<?xml version="1.0" encoding="UTF-8" standalone="no"?>
<!-- Generator: Adobe Illustrator 19.0.1, SVG Export Plug-In . SVG Version: 6.00 Build 0)  -->

<svg
   xmlns:dc="http://purl.org/dc/elements/1.1/"
   xmlns:cc="http://creativecommons.org/ns#"
   xmlns:rdf="http://www.w3.org/1999/02/22-rdf-syntax-ns#"
   xmlns:svg="http://www.w3.org/2000/svg"
   xmlns="http://www.w3.org/2000/svg"
   xmlns:sodipodi="http://sodipodi.sourceforge.net/DTD/sodipodi-0.dtd"
   xmlns:inkscape="http://www.inkscape.org/namespaces/inkscape"
   version="1.1"
   id="Layer_1"
   x="0px"
   y="0px"
   viewBox="0 0 265.74802 265.74804"
   xml:space="preserve"
   inkscape:version="0.91 r13725"
   sodipodi:docname="logo as layers.svg"
   width="75mm"
   height="75mm"><metadata
     id="metadata17"><rdf:RDF><cc:Work
         rdf:about=""><dc:format>image/svg+xml</dc:format><dc:type
           rdf:resource="http://purl.org/dc/dcmitype/StillImage" /><dc:title></dc:title></cc:Work></rdf:RDF></metadata><defs
     id="defs15" /><sodipodi:namedview
     pagecolor="#ffffff"
     bordercolor="#666666"
     borderopacity="1"
     objecttolerance="10"
     gridtolerance="10"
     guidetolerance="10"
     inkscape:pageopacity="0"
     inkscape:pageshadow="2"
     inkscape:window-width="1410"
     inkscape:window-height="849"
     id="namedview13"
     showgrid="false"
     inkscape:zoom="2.6891746"
     inkscape:cx="129.68966"
     inkscape:cy="132.874"
     inkscape:window-x="15"
     inkscape:window-y="6"
     inkscape:window-maximized="0"
     inkscape:current-layer="layer3"
     units="mm" /><style
     type="text/css"
     id="style3">
	.st0{fill:#95BF47;}
	.st1{fill:#5E8E3E;}
	.st2{fill:#FFFFFF;}
</style><g
     inkscape:groupmode="layer"
     id="layer1"
     inkscape:label="Edge.Cuts"
     style="display:inline"
     transform="translate(0,141.24805)"><path
       transform="translate(0,-3.1619207e-6)"
       style="display:inline;fill:none;stroke:#000000;stroke-width:0.70388174;stroke-miterlimit:4;stroke-dasharray:none;stroke-opacity:1"
       inkscape:connector-curvature="0"
       id="path7"
       d="m 211.43219,-83.964263 c -0.19865,-1.191908 -1.19191,-1.986512 -2.18517,-1.986512 -0.99325,0 -19.8651,-1.390557 -19.8651,-1.390557 0,0 -13.11097,-13.110968 -14.70017,-14.501528 -1.39056,-1.39056 -4.37034,-0.99326 -5.36359,-0.59595 -0.19864,0 -2.97977,0.7946 -7.35008,2.18516 -4.37033,-12.71367 -12.11771,-24.43408 -25.82465,-24.43408 l -1.1919,0 c -3.97302,-5.16493 -8.74064,-7.35009 -12.91231,-7.35009 -31.982829,0 -47.278961,39.928862 -52.046586,60.191271 -12.316367,3.774369 -21.255664,6.555485 -22.248919,6.952787 -6.952788,2.185162 -7.151439,2.383812 -7.946043,8.939298 C 39.003067,-51.186839 20.92582,88.862161 20.92582,88.862161 l 141.04226,26.420599 76.48066,-16.488047 c 0,0 -26.81789,-181.368419 -27.01655,-182.758976 z"
       class="st0"
       sodipodi:nodetypes="csccccscsccccccc" /></g><g
     inkscape:groupmode="layer"
     id="layer2"
     inkscape:label="SilkS"
     style="display:inline"
     transform="translate(0,141.24805)"><g
       id="g4157"
       style="display:inline;fill:#ff2d00;fill-opacity:1;stroke:none"
       transform="matrix(1.9865106,0,0,1.9865106,20.92582,-132.03782)"><path
         class="st2"
         d="m 57.9,44.5 -4.7,14.1 c 0,0 -4.2,-2.2 -9.2,-2.2 -7.5,0 -7.8,4.7 -7.8,5.9 0,6.4 16.8,8.9 16.8,24 0,11.9 -7.5,19.5 -17.7,19.5 -12.2,0 -18.4,-7.6 -18.4,-7.6 l 3.3,-10.8 c 0,0 6.4,5.5 11.8,5.5 3.5,0 5,-2.8 5,-4.8 0,-8.4 -13.8,-8.8 -13.8,-22.6 0,-11.6 8.3,-22.9 25.2,-22.9 6.3,0 9.5,1.9 9.5,1.9 z"
         id="path11"
         inkscape:connector-curvature="0"
         style="fill:#ff2d00;fill-opacity:1;stroke:none" /><path
         inkscape:connector-curvature="0"
         id="path4151"
         d="M 29.84701,28.452709 C 29.85121,27.9057 31.723798,22.769505 32.819217,20.300516 37.35298,10.081767 43.514066,4.4040032 50.052161,4.419456 50.99859,4.421696 51.412471,4.4835 51.869654,4.6908717 L 52.461645,4.959391 51.671826,5.3835641 C 45.879935,8.4941047 41.470001,15.624568 39.608084,24.889541 l -0.151945,0.756086 -1.843922,0.593745 c -2.034236,0.655026 -7.536504,2.312251 -7.677064,2.312251 -0.04889,0 -0.08856,-0.04451 -0.08814,-0.09891 z"
         style="opacity:1;fill:#ff2d00;fill-opacity:1;fill-rule:nonzero;stroke:none;stroke-width:0.0118697;stroke-linecap:butt;stroke-linejoin:round;stroke-miterlimit:4;stroke-dasharray:none;stroke-dashoffset:0;stroke-opacity:1" /><path
         inkscape:connector-curvature="0"
         id="path4153"
         d="m 44.773166,22.979457 c 1.659575,-5.93683 5.144431,-11.063865 9.142209,-13.4503222 1.225356,-0.7314711 1.250046,-0.7249512 1.615566,0.4266197 0.721909,2.2743725 1.11168,5.1159355 1.137526,8.2929515 l 0.01651,2.028832 -5.934851,1.824948 c -3.264169,1.003721 -6.004465,1.826791 -6.089547,1.829044 -0.107629,0.0029 -0.07337,-0.286816 0.112592,-0.952073 z"
         style="opacity:1;fill:#ff2d00;fill-opacity:1;fill-rule:nonzero;stroke:none;stroke-width:0.0118697;stroke-linecap:butt;stroke-linejoin:round;stroke-miterlimit:4;stroke-dasharray:none;stroke-dashoffset:0;stroke-opacity:1" /><path
         inkscape:connector-curvature="0"
         id="path4155"
         d="m 60.992561,16.230754 c -0.184359,-3.277305 -0.679172,-6.3354771 -1.274778,-7.8787257 -0.075,-0.1943286 -0.02108,-0.2046803 0.479843,-0.092129 2.454151,0.551411 4.799465,3.4087167 6.299074,7.6741867 0.225173,0.640479 0.409406,1.185861 0.409406,1.211961 0,0.0261 -0.489625,0.198651 -1.088056,0.383449 -0.598431,0.184798 -1.893792,0.593687 -2.87858,0.908643 l -1.790524,0.572646 -0.156385,-2.780031 z"
         style="opacity:1;fill:#ff2d00;fill-opacity:1;fill-rule:nonzero;stroke:none;stroke-width:0.0118697;stroke-linecap:butt;stroke-linejoin:round;stroke-miterlimit:4;stroke-dasharray:none;stroke-dashoffset:0;stroke-opacity:1" /></g></g><g
     inkscape:groupmode="layer"
     id="layer3"
     inkscape:label="Mask"
     style="display:inline"
     transform="translate(0,141.24805)"><path
       transform="translate(0,-3.1619207e-6)"
       style="display:inline;fill:#5e8e3e"
       inkscape:connector-curvature="0"
       id="path9"
       d="m 209.24702,-85.950775 c -0.99325,0 -19.8651,-1.390557 -19.8651,-1.390557 0,0 -13.11097,-13.110968 -14.70017,-14.501528 -0.59596,-0.59595 -1.19192,-0.7946 -1.98652,-0.99326 l -10.72715,218.11888 76.48066,-16.488047 c 0,0 -26.8179,-181.368419 -27.01655,-182.560326 -0.19865,-1.390558 -1.39056,-1.986511 -2.18517,-2.185162 z"
       class="st1" /></g></svg>