<?xml version="1.0" standalone="no"?>
 <!DOCTYPE svg PUBLIC "-//W3C//DTD SVG 1.1//EN" 
 "http://www.w3.org/Graphics/SVG/1.1/DTD/svg11.dtd"> 
<svg xmlns="http://www.w3.org/2000/svg" version="1.1" 
    width="29.7002cm" height="21.0007cm" viewBox="0 0 116930 82680 ">
<title>SVG Picture created as PCB-Edge.Cuts.svg date 2018/08/30 22:03:08 </title>
  <desc>Picture generated by PCBNEW </desc>
<g style="fill:#000000; fill-opacity:1;stroke:#000000; stroke-opacity:1;
stroke-linecap:round; stroke-linejoin:round; "
 transform="translate(0 0) scale(1 1)">
</g>
<g style="fill:#000000; fill-opacity:0.0; 
stroke:#000000; stroke-width:-0.000393701; stroke-opacity:1; 
stroke-linecap:round; stroke-linejoin:round;">
</g>
<g style="fill:#000000; fill-opacity:0.0; 
stroke:#000000; stroke-width:57.6094; stroke-opacity:1; 
stroke-linecap:round; stroke-linejoin:round;">
<path d="M36065 40200
L36036 40001
" />
<path d="M36142 40721
L36065 40200
" />
<path d="M36260 41518
L36142 40721
" />
<path d="M36412 42545
L36260 41518
" />
<path d="M36591 43755
L36412 42545
" />
<path d="M36790 45102
L36591 43755
" />
<path d="M37002 46541
L36790 45102
" />
<path d="M37222 48024
L37002 46541
" />
<path d="M37441 49505
L37222 48024
" />
<path d="M37653 50940
L37441 49505
" />
<path d="M37851 52280
L37653 50940
" />
<path d="M38028 53480
L37851 52280
" />
<path d="M38178 54494
L38028 53480
" />
<path d="M38294 55275
L38178 54494
" />
<path d="M38368 55778
L38294 55275
" />
<path d="M38395 55956
L38368 55778
" />
<path d="M31718 57395
L38395 55956
" />
<path d="M19404 55089
L31718 57395
" />
<path d="M19431 54883
L19404 55089
" />
<path d="M19505 54308
L19431 54883
" />
<path d="M19619 53431
L19505 54308
" />
<path d="M19763 52316
L19619 53431
" />
<path d="M19929 51030
L19763 52316
" />
<path d="M20109 49638
L19929 51030
" />
<path d="M20295 48206
L20109 49638
" />
<path d="M20478 46800
L20295 48206
" />
<path d="M20649 45484
L20478 46800
" />
<path d="M20801 44326
L20649 45484
" />
<path d="M20924 43389
L20801 44326
" />
<path d="M21011 42741
L20924 43389
" />
<path d="M21052 42446
L21011 42741
" />
<path d="M21197 41913
L21052 42446
" />
<path d="M21746 41666
L21197 41913
" />
<path d="M22346 41473
L21746 41666
" />
<path d="M23688 41059
L22346 41473
" />
<path d="M23862 40412
L23688 41059
" />
<path d="M24108 39682
L23862 40412
" />
<path d="M24431 38910
L24108 39682
" />
<path d="M24835 38139
L24431 38910
" />
<path d="M25325 37413
L24835 38139
" />
<path d="M25905 36773
L25325 37413
" />
<path d="M26580 36263
L25905 36773
" />
<path d="M27354 35926
L26580 36263
" />
<path d="M28232 35804
L27354 35926
" />
<path d="M28802 35956
L28232 35804
" />
<path d="M29359 36445
L28802 35956
" />
<path d="M29463 36445
L29359 36445
" />
<path d="M30267 36623
L29463 36445
" />
<path d="M30896 37096
L30267 36623
" />
<path d="M31373 37777
L30896 37096
" />
<path d="M31718 38579
L31373 37777
" />
<path d="M32359 38388
L31718 38579
" />
<path d="M32828 38440
L32359 38388
" />
<path d="M33521 39118
L32828 38440
" />
<path d="M34111 39706
L33521 39118
" />
<path d="M34946 39767
L34111 39706
" />
<path d="M35845 39827
L34946 39767
" />
<path d="M36036 40001
L35845 39827
" />
</g> 
</svg>
