<?xml version="1.0" standalone="no"?>
 <!DOCTYPE svg PUBLIC "-//W3C//DTD SVG 1.1//EN" 
 "http://www.w3.org/Graphics/SVG/1.1/DTD/svg11.dtd"> 
<svg xmlns="http://www.w3.org/2000/svg" version="1.1" 
    width="29.7002cm" height="21.0007cm" viewBox="0 0 116930 82680 ">
<title>SVG Picture created as PCB-F.Cu.svg date 2018/08/30 22:03:08 </title>
  <desc>Picture generated by PCBNEW </desc>
<g style="fill:#000000; fill-opacity:1;stroke:#000000; stroke-opacity:1;
stroke-linecap:round; stroke-linejoin:round; "
 transform="translate(0 0) scale(1 1)">
</g>
<g style="fill:#000000; fill-opacity:0.0; 
stroke:#000000; stroke-width:-0.000393701; stroke-opacity:1; 
stroke-linecap:round; stroke-linejoin:round;">
</g>
<g style="fill:#000000; fill-opacity:0.0; 
stroke:#000000; stroke-width:669.291; stroke-opacity:1; 
stroke-linecap:round; stroke-linejoin:round;">
<path d="M34627 55037
L34627 55037
" />
<path d="M34627 54037
L34627 54037
" />
<path d="M34627 53037
L34627 53037
" />
<path d="M34627 52037
L34627 52037
" />
<path d="M34627 51037
L34627 51037
" />
<path d="M34627 50037
L34627 50037
" />
<path d="M34627 49037
L34627 49037
" />
<path d="M34627 48037
L34627 48037
" />
<path d="M34627 47037
L34627 47037
" />
<path d="M34627 46037
L34627 46037
" />
<path d="M34627 45037
L34627 45037
" />
<path d="M34627 44037
L34627 44037
" />
<path d="M34627 43037
L34627 43037
" />
<path d="M34627 42037
L34627 42037
" />
</g>
<g style="fill:#000000; fill-opacity:0.0; 
stroke:#000000; stroke-width:0; stroke-opacity:1; 
stroke-linecap:round; stroke-linejoin:round;">
</g>
<g style="fill:#000000; fill-opacity:1.0; 
stroke:#000000; stroke-width:0; stroke-opacity:1; 
stroke-linecap:round; stroke-linejoin:round;">
<polyline style="fill-rule:evenodd;"
points="34962,40703
34962,41372
34292,41372
34292,40703
34962,40703
" /> 
</g>
<g style="fill:#000000; fill-opacity:1.0; 
stroke:#000000; stroke-width:669.291; stroke-opacity:1; 
stroke-linecap:round; stroke-linejoin:round;">
</g>
<g style="fill:#000000; fill-opacity:0.0; 
stroke:#000000; stroke-width:669.291; stroke-opacity:1; 
stroke-linecap:round; stroke-linejoin:round;">
<path d="M24942 54037
L24942 54037
" />
<path d="M24942 53037
L24942 53037
" />
<path d="M24942 52037
L24942 52037
" />
<path d="M24942 51037
L24942 51037
" />
<path d="M24942 50037
L24942 50037
" />
<path d="M24942 43037
L24942 43037
" />
<path d="M24942 42037
L24942 42037
" />
</g>
<g style="fill:#000000; fill-opacity:0.0; 
stroke:#000000; stroke-width:0; stroke-opacity:1; 
stroke-linecap:round; stroke-linejoin:round;">
</g>
<g style="fill:#000000; fill-opacity:1.0; 
stroke:#000000; stroke-width:0; stroke-opacity:1; 
stroke-linecap:round; stroke-linejoin:round;">
<polyline style="fill-rule:evenodd;"
points="25277,40703
25277,41372
24607,41372
24607,40703
25277,40703
" /> 
</g>
<g style="fill:#000000; fill-opacity:1.0; 
stroke:#000000; stroke-width:669.291; stroke-opacity:1; 
stroke-linecap:round; stroke-linejoin:round;">
</g>
<g style="fill:#000000; fill-opacity:0.0; 
stroke:#000000; stroke-width:669.291; stroke-opacity:1; 
stroke-linecap:round; stroke-linejoin:round;">
<path d="M24942 45037
L24942 45037
" />
<path d="M24942 44037
L24942 44037
" />
<path d="M24942 55037
L24942 55037
" />
<path d="M24942 49037
L24942 49037
" />
<path d="M24942 48037
L24942 48037
" />
<path d="M24942 47037
L24942 47037
" />
<path d="M24942 46037
L24942 46037
" />
<path d="M22400 44900
L22400 44900
" />
<path d="M22400 43900
L22400 43900
" />
</g>
<g style="fill:#000000; fill-opacity:0.0; 
stroke:#000000; stroke-width:0; stroke-opacity:1; 
stroke-linecap:round; stroke-linejoin:round;">
</g>
<g style="fill:#000000; fill-opacity:1.0; 
stroke:#000000; stroke-width:0; stroke-opacity:1; 
stroke-linecap:round; stroke-linejoin:round;">
<polyline style="fill-rule:evenodd;"
points="22734,42565
22734,43234
22065,43234
22065,42565
22734,42565
" /> 
</g>
<g style="fill:#000000; fill-opacity:1.0; 
stroke:#000000; stroke-width:669.291; stroke-opacity:1; 
stroke-linecap:round; stroke-linejoin:round;">
</g>
<g style="fill:#000000; fill-opacity:0.0; 
stroke:#000000; stroke-width:669.291; stroke-opacity:1; 
stroke-linecap:round; stroke-linejoin:round;">
<path d="M22400 49600
L22400 49600
" />
<path d="M22400 48600
L22400 48600
" />
</g>
<g style="fill:#000000; fill-opacity:0.0; 
stroke:#000000; stroke-width:0; stroke-opacity:1; 
stroke-linecap:round; stroke-linejoin:round;">
</g>
<g style="fill:#000000; fill-opacity:1.0; 
stroke:#000000; stroke-width:0; stroke-opacity:1; 
stroke-linecap:round; stroke-linejoin:round;">
<polyline style="fill-rule:evenodd;"
points="22734,47265
22734,47934
22065,47934
22065,47265
22734,47265
" /> 
<polyline style="fill-rule:evenodd;"
points="22734,51565
22734,52234
22065,52234
22065,51565
22734,51565
" /> 
</g>
<g style="fill:#000000; fill-opacity:1.0; 
stroke:#000000; stroke-width:669.291; stroke-opacity:1; 
stroke-linecap:round; stroke-linejoin:round;">
</g>
<g style="fill:#000000; fill-opacity:0.0; 
stroke:#000000; stroke-width:669.291; stroke-opacity:1; 
stroke-linecap:round; stroke-linejoin:round;">
<path d="M22400 52900
L22400 52900
" />
<path d="M22400 53900
L22400 53900
" />
</g>
<g style="fill:#000000; fill-opacity:0.0; 
stroke:#000000; stroke-width:0; stroke-opacity:1; 
stroke-linecap:round; stroke-linejoin:round;">
</g>
<g style="fill:#000000; fill-opacity:1.0; 
stroke:#000000; stroke-width:0; stroke-opacity:1; 
stroke-linecap:round; stroke-linejoin:round;">
<polyline style="fill-rule:evenodd;"
points="36934,52065
36934,52734
36265,52734
36265,52065
36934,52065
" /> 
</g>
<g style="fill:#000000; fill-opacity:1.0; 
stroke:#000000; stroke-width:669.291; stroke-opacity:1; 
stroke-linecap:round; stroke-linejoin:round;">
</g>
<g style="fill:#000000; fill-opacity:0.0; 
stroke:#000000; stroke-width:669.291; stroke-opacity:1; 
stroke-linecap:round; stroke-linejoin:round;">
<path d="M36600 53400
L36600 53400
" />
<path d="M36600 54400
L36600 54400
" />
</g>
<g style="fill:#000000; fill-opacity:1.0; 
stroke:#000000; stroke-width:100; stroke-opacity:1; 
stroke-linecap:round; stroke-linejoin:round;">
<polyline style="fill-rule:evenodd;"
points="28667,36208
29148,36631
29158,36646
29189,36667
29196,36673
29212,36682
29250,36708
29259,36710
29267,36714
29313,36721
29332,36724
29341,36724
29377,36729
29396,36724
29433,36724
30147,36882
30693,37292
31128,37913
31444,38648
31445,38660
31466,38699
31472,38714
31479,38723
31497,38758
31510,38768
31519,38782
31552,38804
31582,38829
31598,38833
31612,38843
31651,38850
31688,38861
31705,38860
31722,38863
31760,38855
31771,38854
31787,38849
31830,38840
31839,38833
32385,38671
32701,38706
33325,39317
33887,39877
33896,39892
33926,39915
33934,39923
33948,39932
33983,39960
33994,39963
34003,39969
34047,39977
34063,39982
34074,39983
34111,39990
34129,39987
34899,40043
34899,40043
34926,40045
34953,40047
34953,40047
35730,40099
35775,40140
35785,40213
35785,40213
35789,40241
35793,40268
35793,40268
35862,40735
35862,40735
35867,40764
35870,40789
35870,40789
35980,41532
35980,41532
35984,41556
35988,41586
35988,41586
36132,42558
36132,42558
36136,42587
36140,42613
36140,42613
36311,43769
36311,43769
36518,45170
36518,45170
36731,46609
36731,46609
36950,48092
36950,48092
37161,49519
37161,49519
37373,50953
37373,50953
37571,52293
37749,53494
37907,54562
37907,54562
38014,55289
38014,55289
38081,55738
31714,57111
19715,54863
19782,54344
19896,53464
19968,52900
21803,52900
21849,53128
21978,53321
22095,53400
21978,53478
21849,53671
21803,53900
21849,54128
21978,54321
22171,54450
22342,54484
22457,54484
22628,54450
22821,54321
22950,54128
22996,53900
22950,53671
22821,53478
22704,53400
22821,53321
22950,53128
22996,52900
22950,52671
22821,52478
22812,52472
22876,52446
22946,52376
22984,52284
22984,52012
22922,51950
22450,51950
22450,51957
22350,51957
22350,51950
21877,51950
21815,52012
21815,52284
21853,52376
21923,52446
21987,52472
21978,52478
21849,52671
21803,52900
19968,52900
20040,52350
20148,51515
21815,51515
21815,51787
21877,51850
22350,51850
22350,51377
22450,51377
22450,51850
22922,51850
22984,51787
22984,51515
22946,51423
22876,51353
22784,51315
22512,51315
22450,51377
22350,51377
22287,51315
22015,51315
21923,51353
21853,51423
21815,51515
20148,51515
20206,51065
20386,49675
20525,48600
21803,48600
21849,48828
21978,49021
22095,49100
21978,49178
21849,49371
21803,49600
21849,49828
21978,50021
22171,50150
22342,50184
22457,50184
22628,50150
22821,50021
22950,49828
22996,49600
22950,49371
22821,49178
22704,49100
22821,49021
22950,48828
22996,48600
22950,48371
22821,48178
22812,48172
22876,48146
22946,48076
22984,47984
22984,47712
22922,47650
22450,47650
22450,47657
22350,47657
22350,47650
21877,47650
21815,47712
21815,47984
21853,48076
21923,48146
21987,48172
21978,48178
21849,48371
21803,48600
20525,48600
20572,48242
20705,47215
21815,47215
21815,47487
21877,47550
22350,47550
22350,47077
22450,47077
22450,47550
22922,47550
22984,47487
22984,47215
22946,47123
22876,47053
22784,47015
22512,47015
22450,47077
22350,47077
22287,47015
22015,47015
21923,47053
21853,47123
21815,47215
20705,47215
20755,46835
20926,45520
21077,44362
21138,43900
21803,43900
21849,44128
21978,44321
22095,44400
21978,44478
21849,44671
21803,44900
21849,45128
21978,45321
22171,45450
22342,45484
22457,45484
22628,45450
22821,45321
22950,45128
22996,44900
22950,44671
22821,44478
22704,44400
22821,44321
22950,44128
22996,43900
22950,43671
22821,43478
22812,43472
22876,43446
22946,43376
22984,43284
22984,43012
22922,42950
22450,42950
22450,42957
22350,42957
22350,42950
21877,42950
21815,43012
21815,43284
21853,43376
21923,43446
21987,43472
21978,43478
21849,43671
21803,43900
21138,43900
21200,43426
21287,42779
21324,42515
21815,42515
21815,42787
21877,42850
22350,42850
22350,42377
22450,42377
22450,42850
22922,42850
22984,42787
22984,42515
22946,42423
22876,42353
22784,42315
22512,42315
22450,42377
22350,42377
22287,42315
22015,42315
21923,42353
21853,42423
21815,42515
21324,42515
21326,42502
21432,42113
21599,42037
24346,42037
24391,42265
24521,42459
24638,42537
24521,42616
24391,42809
24346,43037
24391,43265
24521,43459
24638,43537
24521,43616
24391,43809
24346,44037
24391,44265
24521,44459
24638,44537
24521,44616
24391,44809
24346,45037
24391,45265
24521,45459
24638,45537
24521,45616
24391,45809
24346,46037
24391,46265
24521,46459
24638,46537
24521,46616
24391,46809
24346,47037
24391,47265
24521,47459
24638,47537
24521,47616
24391,47809
24346,48037
24391,48265
24521,48459
24638,48537
24521,48616
24391,48809
24346,49037
24391,49265
24521,49459
24638,49537
24521,49616
24391,49809
24346,50037
24391,50265
24521,50459
24638,50537
24521,50616
24391,50809
24346,51037
24391,51265
24521,51459
24638,51537
24521,51616
24391,51809
24346,52037
24391,52265
24521,52459
24638,52537
24521,52616
24391,52809
24346,53037
24391,53265
24521,53459
24638,53537
24521,53616
24391,53809
24346,54037
24391,54265
24521,54459
24638,54537
24521,54616
24391,54809
24346,55037
24391,55265
24521,55459
24714,55588
24884,55622
25000,55622
25170,55588
25364,55459
25493,55265
25510,55178
34060,55178
34126,55339
34280,55508
34487,55605
34577,55557
34577,55087
34677,55087
34677,55557
34768,55605
34974,55508
35128,55339
35195,55178
35147,55087
34677,55087
34577,55087
34107,55087
34060,55178
25510,55178
25538,55037
25493,54809
25364,54616
25246,54537
25364,54459
25493,54265
25538,54037
25493,53809
25364,53616
25246,53537
25364,53459
25493,53265
25538,53037
25493,52809
25364,52616
25246,52537
25364,52459
25493,52265
25538,52037
25493,51809
25364,51616
25246,51537
25364,51459
25493,51265
25538,51037
25493,50809
25364,50616
25246,50537
25364,50459
25493,50265
25538,50037
25493,49809
25364,49616
25246,49537
25364,49459
25493,49265
25538,49037
25493,48809
25364,48616
25246,48537
25364,48459
25493,48265
25538,48037
25493,47809
25364,47616
25246,47537
25364,47459
25493,47265
25538,47037
25493,46809
25364,46616
25246,46537
25364,46459
25493,46265
25538,46037
25493,45809
25364,45616
25246,45537
25364,45459
25493,45265
25538,45037
25493,44809
25364,44616
25246,44537
25364,44459
25493,44265
25538,44037
25493,43809
25364,43616
25246,43537
25364,43459
25493,43265
25538,43037
25493,42809
25364,42616
25246,42537
25364,42459
25493,42265
25538,42037
34031,42037
34076,42265
34206,42459
34323,42537
34206,42616
34076,42809
34031,43037
34076,43265
34206,43459
34323,43537
34206,43616
34076,43809
34031,44037
34076,44265
34206,44459
34323,44537
34206,44616
34076,44809
34031,45037
34076,45265
34206,45459
34323,45537
34206,45616
34076,45809
34031,46037
34076,46265
34206,46459
34323,46537
34206,46616
34076,46809
34031,47037
34076,47265
34206,47459
34323,47537
34206,47616
34076,47809
34031,48037
34076,48265
34206,48459
34323,48537
34206,48616
34076,48809
34031,49037
34076,49265
34206,49459
34323,49537
34206,49616
34076,49809
34031,50037
34076,50265
34206,50459
34323,50537
34206,50616
34076,50809
34031,51037
34076,51265
34206,51459
34323,51537
34206,51616
34076,51809
34031,52037
34076,52265
34206,52459
34323,52537
34206,52616
34076,52809
34031,53037
34076,53265
34206,53459
34323,53537
34206,53616
34076,53809
34031,54037
34076,54265
34206,54459
34331,54543
34280,54567
34126,54735
34060,54897
34107,54987
34577,54987
34577,54979
34677,54979
34677,54987
35147,54987
35195,54897
35128,54735
34974,54567
34923,54543
35049,54459
35178,54265
35223,54037
35178,53809
35049,53616
34931,53537
35049,53459
35088,53400
36003,53400
36049,53628
36178,53821
36295,53900
36178,53978
36049,54171
36003,54400
36049,54628
36178,54821
36371,54950
36542,54984
36657,54984
36828,54950
37021,54821
37150,54628
37196,54400
37150,54171
37021,53978
36904,53900
37021,53821
37150,53628
37196,53400
37150,53171
37021,52978
37012,52972
37076,52946
37146,52876
37184,52784
37184,52512
37122,52450
36650,52450
36650,52457
36550,52457
36550,52450
36077,52450
36015,52512
36015,52784
36053,52876
36123,52946
36187,52972
36178,52978
36049,53171
36003,53400
35088,53400
35178,53265
35223,53037
35178,52809
35049,52616
34931,52537
35049,52459
35178,52265
35223,52037
35219,52015
36015,52015
36015,52287
36077,52350
36550,52350
36550,51877
36650,51877
36650,52350
37122,52350
37184,52287
37184,52015
37146,51923
37076,51853
36984,51815
36712,51815
36650,51877
36550,51877
36487,51815
36215,51815
36123,51853
36053,51923
36015,52015
35219,52015
35178,51809
35049,51616
34931,51537
35049,51459
35178,51265
35223,51037
35178,50809
35049,50616
34931,50537
35049,50459
35178,50265
35223,50037
35178,49809
35049,49616
34931,49537
35049,49459
35178,49265
35223,49037
35178,48809
35049,48616
34931,48537
35049,48459
35178,48265
35223,48037
35178,47809
35049,47616
34931,47537
35049,47459
35178,47265
35223,47037
35178,46809
35049,46616
34931,46537
35049,46459
35178,46265
35223,46037
35178,45809
35049,45616
34931,45537
35049,45459
35178,45265
35223,45037
35178,44809
35049,44616
34931,44537
35049,44459
35178,44265
35223,44037
35178,43809
35049,43616
34931,43537
35049,43459
35178,43265
35223,43037
35178,42809
35049,42616
34931,42537
35049,42459
35178,42265
35223,42037
35178,41809
35049,41616
35041,41611
35059,41607
35142,41552
35197,41469
35217,41372
35217,40703
35197,40605
35142,40522
35059,40467
34962,40448
34292,40448
34195,40467
34112,40522
34057,40605
34038,40703
34038,41372
34057,41469
34112,41552
34195,41607
34213,41611
34206,41616
34076,41809
34031,42037
25538,42037
25493,41809
25364,41616
25356,41611
25374,41607
25457,41552
25512,41469
25532,41372
25532,40703
25512,40605
25457,40522
25374,40467
25277,40448
24607,40448
24510,40467
24427,40522
24372,40605
24352,40703
24352,41372
24372,41469
24427,41552
24510,41607
24528,41611
24521,41616
24391,41809
24346,42037
21599,42037
21846,41926
22430,41739
23721,41340
23725,41340
23774,41324
23797,41317
23800,41315
23830,41305
23848,41289
23869,41277
23890,41253
23913,41232
23924,41210
23939,41191
23948,41161
23950,41157
23956,41135
23971,41085
23971,41081
24129,40493
24369,39780
24683,39029
25075,38282
25545,37585
26094,36980
26722,36505
27431,36197
28214,36088
28667,36208
" /> 
</g>
<g style="fill:#FFFFFF; fill-opacity:1.0; 
stroke:#FFFFFF; stroke-width:100; stroke-opacity:1; 
stroke-linecap:round; stroke-linejoin:round;">
</g>
<g style="fill:#FFFFFF; fill-opacity:1.0; 
stroke:#FFFFFF; stroke-width:0; stroke-opacity:1; 
stroke-linecap:round; stroke-linejoin:round;">
<circle cx="34627.6" cy="55037.8" r="196.85" /> 
</g>
<g style="fill:#FFFFFF; fill-opacity:1.0; 
stroke:#FFFFFF; stroke-width:39.3701; stroke-opacity:1; 
stroke-linecap:round; stroke-linejoin:round;">
</g>
<g style="fill:#FFFFFF; fill-opacity:1.0; 
stroke:#FFFFFF; stroke-width:0; stroke-opacity:1; 
stroke-linecap:round; stroke-linejoin:round;">
<circle cx="34627.6" cy="54037.8" r="196.85" /> 
</g>
<g style="fill:#FFFFFF; fill-opacity:1.0; 
stroke:#FFFFFF; stroke-width:39.3701; stroke-opacity:1; 
stroke-linecap:round; stroke-linejoin:round;">
</g>
<g style="fill:#FFFFFF; fill-opacity:1.0; 
stroke:#FFFFFF; stroke-width:0; stroke-opacity:1; 
stroke-linecap:round; stroke-linejoin:round;">
<circle cx="34627.6" cy="53037.8" r="196.85" /> 
</g>
<g style="fill:#FFFFFF; fill-opacity:1.0; 
stroke:#FFFFFF; stroke-width:39.3701; stroke-opacity:1; 
stroke-linecap:round; stroke-linejoin:round;">
</g>
<g style="fill:#FFFFFF; fill-opacity:1.0; 
stroke:#FFFFFF; stroke-width:0; stroke-opacity:1; 
stroke-linecap:round; stroke-linejoin:round;">
<circle cx="34627.6" cy="52037.8" r="196.85" /> 
</g>
<g style="fill:#FFFFFF; fill-opacity:1.0; 
stroke:#FFFFFF; stroke-width:39.3701; stroke-opacity:1; 
stroke-linecap:round; stroke-linejoin:round;">
</g>
<g style="fill:#FFFFFF; fill-opacity:1.0; 
stroke:#FFFFFF; stroke-width:0; stroke-opacity:1; 
stroke-linecap:round; stroke-linejoin:round;">
<circle cx="34627.6" cy="51037.8" r="196.85" /> 
</g>
<g style="fill:#FFFFFF; fill-opacity:1.0; 
stroke:#FFFFFF; stroke-width:39.3701; stroke-opacity:1; 
stroke-linecap:round; stroke-linejoin:round;">
</g>
<g style="fill:#FFFFFF; fill-opacity:1.0; 
stroke:#FFFFFF; stroke-width:0; stroke-opacity:1; 
stroke-linecap:round; stroke-linejoin:round;">
<circle cx="34627.6" cy="50037.8" r="196.85" /> 
</g>
<g style="fill:#FFFFFF; fill-opacity:1.0; 
stroke:#FFFFFF; stroke-width:39.3701; stroke-opacity:1; 
stroke-linecap:round; stroke-linejoin:round;">
</g>
<g style="fill:#FFFFFF; fill-opacity:1.0; 
stroke:#FFFFFF; stroke-width:0; stroke-opacity:1; 
stroke-linecap:round; stroke-linejoin:round;">
<circle cx="34627.6" cy="49037.8" r="196.85" /> 
</g>
<g style="fill:#FFFFFF; fill-opacity:1.0; 
stroke:#FFFFFF; stroke-width:39.3701; stroke-opacity:1; 
stroke-linecap:round; stroke-linejoin:round;">
</g>
<g style="fill:#FFFFFF; fill-opacity:1.0; 
stroke:#FFFFFF; stroke-width:0; stroke-opacity:1; 
stroke-linecap:round; stroke-linejoin:round;">
<circle cx="34627.6" cy="48037.8" r="196.85" /> 
</g>
<g style="fill:#FFFFFF; fill-opacity:1.0; 
stroke:#FFFFFF; stroke-width:39.3701; stroke-opacity:1; 
stroke-linecap:round; stroke-linejoin:round;">
</g>
<g style="fill:#FFFFFF; fill-opacity:1.0; 
stroke:#FFFFFF; stroke-width:0; stroke-opacity:1; 
stroke-linecap:round; stroke-linejoin:round;">
<circle cx="34627.6" cy="47037.8" r="196.85" /> 
</g>
<g style="fill:#FFFFFF; fill-opacity:1.0; 
stroke:#FFFFFF; stroke-width:39.3701; stroke-opacity:1; 
stroke-linecap:round; stroke-linejoin:round;">
</g>
<g style="fill:#FFFFFF; fill-opacity:1.0; 
stroke:#FFFFFF; stroke-width:0; stroke-opacity:1; 
stroke-linecap:round; stroke-linejoin:round;">
<circle cx="34627.6" cy="46037.8" r="196.85" /> 
</g>
<g style="fill:#FFFFFF; fill-opacity:1.0; 
stroke:#FFFFFF; stroke-width:39.3701; stroke-opacity:1; 
stroke-linecap:round; stroke-linejoin:round;">
</g>
<g style="fill:#FFFFFF; fill-opacity:1.0; 
stroke:#FFFFFF; stroke-width:0; stroke-opacity:1; 
stroke-linecap:round; stroke-linejoin:round;">
<circle cx="34627.6" cy="45037.8" r="196.85" /> 
</g>
<g style="fill:#FFFFFF; fill-opacity:1.0; 
stroke:#FFFFFF; stroke-width:39.3701; stroke-opacity:1; 
stroke-linecap:round; stroke-linejoin:round;">
</g>
<g style="fill:#FFFFFF; fill-opacity:1.0; 
stroke:#FFFFFF; stroke-width:0; stroke-opacity:1; 
stroke-linecap:round; stroke-linejoin:round;">
<circle cx="34627.6" cy="44037.8" r="196.85" /> 
</g>
<g style="fill:#FFFFFF; fill-opacity:1.0; 
stroke:#FFFFFF; stroke-width:39.3701; stroke-opacity:1; 
stroke-linecap:round; stroke-linejoin:round;">
</g>
<g style="fill:#FFFFFF; fill-opacity:1.0; 
stroke:#FFFFFF; stroke-width:0; stroke-opacity:1; 
stroke-linecap:round; stroke-linejoin:round;">
<circle cx="34627.6" cy="43037.8" r="196.85" /> 
</g>
<g style="fill:#FFFFFF; fill-opacity:1.0; 
stroke:#FFFFFF; stroke-width:39.3701; stroke-opacity:1; 
stroke-linecap:round; stroke-linejoin:round;">
</g>
<g style="fill:#FFFFFF; fill-opacity:1.0; 
stroke:#FFFFFF; stroke-width:0; stroke-opacity:1; 
stroke-linecap:round; stroke-linejoin:round;">
<circle cx="34627.6" cy="42037.8" r="196.85" /> 
</g>
<g style="fill:#FFFFFF; fill-opacity:1.0; 
stroke:#FFFFFF; stroke-width:39.3701; stroke-opacity:1; 
stroke-linecap:round; stroke-linejoin:round;">
</g>
<g style="fill:#FFFFFF; fill-opacity:1.0; 
stroke:#FFFFFF; stroke-width:0; stroke-opacity:1; 
stroke-linecap:round; stroke-linejoin:round;">
<circle cx="34627.6" cy="41037.8" r="196.85" /> 
</g>
<g style="fill:#FFFFFF; fill-opacity:1.0; 
stroke:#FFFFFF; stroke-width:39.3701; stroke-opacity:1; 
stroke-linecap:round; stroke-linejoin:round;">
</g>
<g style="fill:#FFFFFF; fill-opacity:1.0; 
stroke:#FFFFFF; stroke-width:0; stroke-opacity:1; 
stroke-linecap:round; stroke-linejoin:round;">
<circle cx="24942.5" cy="54037.8" r="196.85" /> 
</g>
<g style="fill:#FFFFFF; fill-opacity:1.0; 
stroke:#FFFFFF; stroke-width:39.3701; stroke-opacity:1; 
stroke-linecap:round; stroke-linejoin:round;">
</g>
<g style="fill:#FFFFFF; fill-opacity:1.0; 
stroke:#FFFFFF; stroke-width:0; stroke-opacity:1; 
stroke-linecap:round; stroke-linejoin:round;">
<circle cx="24942.5" cy="53037.8" r="196.85" /> 
</g>
<g style="fill:#FFFFFF; fill-opacity:1.0; 
stroke:#FFFFFF; stroke-width:39.3701; stroke-opacity:1; 
stroke-linecap:round; stroke-linejoin:round;">
</g>
<g style="fill:#FFFFFF; fill-opacity:1.0; 
stroke:#FFFFFF; stroke-width:0; stroke-opacity:1; 
stroke-linecap:round; stroke-linejoin:round;">
<circle cx="24942.5" cy="52037.8" r="196.85" /> 
</g>
<g style="fill:#FFFFFF; fill-opacity:1.0; 
stroke:#FFFFFF; stroke-width:39.3701; stroke-opacity:1; 
stroke-linecap:round; stroke-linejoin:round;">
</g>
<g style="fill:#FFFFFF; fill-opacity:1.0; 
stroke:#FFFFFF; stroke-width:0; stroke-opacity:1; 
stroke-linecap:round; stroke-linejoin:round;">
<circle cx="24942.5" cy="51037.8" r="196.85" /> 
</g>
<g style="fill:#FFFFFF; fill-opacity:1.0; 
stroke:#FFFFFF; stroke-width:39.3701; stroke-opacity:1; 
stroke-linecap:round; stroke-linejoin:round;">
</g>
<g style="fill:#FFFFFF; fill-opacity:1.0; 
stroke:#FFFFFF; stroke-width:0; stroke-opacity:1; 
stroke-linecap:round; stroke-linejoin:round;">
<circle cx="24942.5" cy="50037.8" r="196.85" /> 
</g>
<g style="fill:#FFFFFF; fill-opacity:1.0; 
stroke:#FFFFFF; stroke-width:39.3701; stroke-opacity:1; 
stroke-linecap:round; stroke-linejoin:round;">
</g>
<g style="fill:#FFFFFF; fill-opacity:1.0; 
stroke:#FFFFFF; stroke-width:0; stroke-opacity:1; 
stroke-linecap:round; stroke-linejoin:round;">
<circle cx="24942.5" cy="43037.8" r="196.85" /> 
</g>
<g style="fill:#FFFFFF; fill-opacity:1.0; 
stroke:#FFFFFF; stroke-width:39.3701; stroke-opacity:1; 
stroke-linecap:round; stroke-linejoin:round;">
</g>
<g style="fill:#FFFFFF; fill-opacity:1.0; 
stroke:#FFFFFF; stroke-width:0; stroke-opacity:1; 
stroke-linecap:round; stroke-linejoin:round;">
<circle cx="24942.5" cy="42037.8" r="196.85" /> 
</g>
<g style="fill:#FFFFFF; fill-opacity:1.0; 
stroke:#FFFFFF; stroke-width:39.3701; stroke-opacity:1; 
stroke-linecap:round; stroke-linejoin:round;">
</g>
<g style="fill:#FFFFFF; fill-opacity:1.0; 
stroke:#FFFFFF; stroke-width:0; stroke-opacity:1; 
stroke-linecap:round; stroke-linejoin:round;">
<circle cx="24942.5" cy="41037.8" r="196.85" /> 
</g>
<g style="fill:#FFFFFF; fill-opacity:1.0; 
stroke:#FFFFFF; stroke-width:39.3701; stroke-opacity:1; 
stroke-linecap:round; stroke-linejoin:round;">
</g>
<g style="fill:#FFFFFF; fill-opacity:1.0; 
stroke:#FFFFFF; stroke-width:0; stroke-opacity:1; 
stroke-linecap:round; stroke-linejoin:round;">
<circle cx="24942.5" cy="45037.8" r="196.85" /> 
</g>
<g style="fill:#FFFFFF; fill-opacity:1.0; 
stroke:#FFFFFF; stroke-width:39.3701; stroke-opacity:1; 
stroke-linecap:round; stroke-linejoin:round;">
</g>
<g style="fill:#FFFFFF; fill-opacity:1.0; 
stroke:#FFFFFF; stroke-width:0; stroke-opacity:1; 
stroke-linecap:round; stroke-linejoin:round;">
<circle cx="24942.5" cy="44037.8" r="196.85" /> 
</g>
<g style="fill:#FFFFFF; fill-opacity:1.0; 
stroke:#FFFFFF; stroke-width:39.3701; stroke-opacity:1; 
stroke-linecap:round; stroke-linejoin:round;">
</g>
<g style="fill:#FFFFFF; fill-opacity:1.0; 
stroke:#FFFFFF; stroke-width:0; stroke-opacity:1; 
stroke-linecap:round; stroke-linejoin:round;">
<circle cx="24942.5" cy="55037.8" r="196.85" /> 
</g>
<g style="fill:#FFFFFF; fill-opacity:1.0; 
stroke:#FFFFFF; stroke-width:39.3701; stroke-opacity:1; 
stroke-linecap:round; stroke-linejoin:round;">
</g>
<g style="fill:#FFFFFF; fill-opacity:1.0; 
stroke:#FFFFFF; stroke-width:0; stroke-opacity:1; 
stroke-linecap:round; stroke-linejoin:round;">
<circle cx="24942.5" cy="49037.8" r="196.85" /> 
</g>
<g style="fill:#FFFFFF; fill-opacity:1.0; 
stroke:#FFFFFF; stroke-width:39.3701; stroke-opacity:1; 
stroke-linecap:round; stroke-linejoin:round;">
</g>
<g style="fill:#FFFFFF; fill-opacity:1.0; 
stroke:#FFFFFF; stroke-width:0; stroke-opacity:1; 
stroke-linecap:round; stroke-linejoin:round;">
<circle cx="24942.5" cy="48037.8" r="196.85" /> 
</g>
<g style="fill:#FFFFFF; fill-opacity:1.0; 
stroke:#FFFFFF; stroke-width:39.3701; stroke-opacity:1; 
stroke-linecap:round; stroke-linejoin:round;">
</g>
<g style="fill:#FFFFFF; fill-opacity:1.0; 
stroke:#FFFFFF; stroke-width:0; stroke-opacity:1; 
stroke-linecap:round; stroke-linejoin:round;">
<circle cx="24942.5" cy="47037.8" r="196.85" /> 
</g>
<g style="fill:#FFFFFF; fill-opacity:1.0; 
stroke:#FFFFFF; stroke-width:39.3701; stroke-opacity:1; 
stroke-linecap:round; stroke-linejoin:round;">
</g>
<g style="fill:#FFFFFF; fill-opacity:1.0; 
stroke:#FFFFFF; stroke-width:0; stroke-opacity:1; 
stroke-linecap:round; stroke-linejoin:round;">
<circle cx="24942.5" cy="46037.8" r="196.85" /> 
</g>
<g style="fill:#FFFFFF; fill-opacity:1.0; 
stroke:#FFFFFF; stroke-width:39.3701; stroke-opacity:1; 
stroke-linecap:round; stroke-linejoin:round;">
</g>
<g style="fill:#FFFFFF; fill-opacity:1.0; 
stroke:#FFFFFF; stroke-width:0; stroke-opacity:1; 
stroke-linecap:round; stroke-linejoin:round;">
<circle cx="22400" cy="44900" r="196.85" /> 
</g>
<g style="fill:#FFFFFF; fill-opacity:1.0; 
stroke:#FFFFFF; stroke-width:39.3701; stroke-opacity:1; 
stroke-linecap:round; stroke-linejoin:round;">
</g>
<g style="fill:#FFFFFF; fill-opacity:1.0; 
stroke:#FFFFFF; stroke-width:0; stroke-opacity:1; 
stroke-linecap:round; stroke-linejoin:round;">
<circle cx="22400" cy="43900" r="196.85" /> 
</g>
<g style="fill:#FFFFFF; fill-opacity:1.0; 
stroke:#FFFFFF; stroke-width:39.3701; stroke-opacity:1; 
stroke-linecap:round; stroke-linejoin:round;">
</g>
<g style="fill:#FFFFFF; fill-opacity:1.0; 
stroke:#FFFFFF; stroke-width:0; stroke-opacity:1; 
stroke-linecap:round; stroke-linejoin:round;">
<circle cx="22400" cy="42900" r="196.85" /> 
</g>
<g style="fill:#FFFFFF; fill-opacity:1.0; 
stroke:#FFFFFF; stroke-width:39.3701; stroke-opacity:1; 
stroke-linecap:round; stroke-linejoin:round;">
</g>
<g style="fill:#FFFFFF; fill-opacity:1.0; 
stroke:#FFFFFF; stroke-width:0; stroke-opacity:1; 
stroke-linecap:round; stroke-linejoin:round;">
<circle cx="22400" cy="49600" r="196.85" /> 
</g>
<g style="fill:#FFFFFF; fill-opacity:1.0; 
stroke:#FFFFFF; stroke-width:39.3701; stroke-opacity:1; 
stroke-linecap:round; stroke-linejoin:round;">
</g>
<g style="fill:#FFFFFF; fill-opacity:1.0; 
stroke:#FFFFFF; stroke-width:0; stroke-opacity:1; 
stroke-linecap:round; stroke-linejoin:round;">
<circle cx="22400" cy="48600" r="196.85" /> 
</g>
<g style="fill:#FFFFFF; fill-opacity:1.0; 
stroke:#FFFFFF; stroke-width:39.3701; stroke-opacity:1; 
stroke-linecap:round; stroke-linejoin:round;">
</g>
<g style="fill:#FFFFFF; fill-opacity:1.0; 
stroke:#FFFFFF; stroke-width:0; stroke-opacity:1; 
stroke-linecap:round; stroke-linejoin:round;">
<circle cx="22400" cy="47600" r="196.85" /> 
</g>
<g style="fill:#FFFFFF; fill-opacity:1.0; 
stroke:#FFFFFF; stroke-width:39.3701; stroke-opacity:1; 
stroke-linecap:round; stroke-linejoin:round;">
</g>
<g style="fill:#FFFFFF; fill-opacity:1.0; 
stroke:#FFFFFF; stroke-width:0; stroke-opacity:1; 
stroke-linecap:round; stroke-linejoin:round;">
<circle cx="22400" cy="51900" r="196.85" /> 
</g>
<g style="fill:#FFFFFF; fill-opacity:1.0; 
stroke:#FFFFFF; stroke-width:39.3701; stroke-opacity:1; 
stroke-linecap:round; stroke-linejoin:round;">
</g>
<g style="fill:#FFFFFF; fill-opacity:1.0; 
stroke:#FFFFFF; stroke-width:0; stroke-opacity:1; 
stroke-linecap:round; stroke-linejoin:round;">
<circle cx="22400" cy="52900" r="196.85" /> 
</g>
<g style="fill:#FFFFFF; fill-opacity:1.0; 
stroke:#FFFFFF; stroke-width:39.3701; stroke-opacity:1; 
stroke-linecap:round; stroke-linejoin:round;">
</g>
<g style="fill:#FFFFFF; fill-opacity:1.0; 
stroke:#FFFFFF; stroke-width:0; stroke-opacity:1; 
stroke-linecap:round; stroke-linejoin:round;">
<circle cx="22400" cy="53900" r="196.85" /> 
</g>
<g style="fill:#FFFFFF; fill-opacity:1.0; 
stroke:#FFFFFF; stroke-width:39.3701; stroke-opacity:1; 
stroke-linecap:round; stroke-linejoin:round;">
</g>
<g style="fill:#FFFFFF; fill-opacity:1.0; 
stroke:#FFFFFF; stroke-width:0; stroke-opacity:1; 
stroke-linecap:round; stroke-linejoin:round;">
<circle cx="36600" cy="52400" r="196.85" /> 
</g>
<g style="fill:#FFFFFF; fill-opacity:1.0; 
stroke:#FFFFFF; stroke-width:39.3701; stroke-opacity:1; 
stroke-linecap:round; stroke-linejoin:round;">
</g>
<g style="fill:#FFFFFF; fill-opacity:1.0; 
stroke:#FFFFFF; stroke-width:0; stroke-opacity:1; 
stroke-linecap:round; stroke-linejoin:round;">
<circle cx="36600" cy="53400" r="196.85" /> 
</g>
<g style="fill:#FFFFFF; fill-opacity:1.0; 
stroke:#FFFFFF; stroke-width:39.3701; stroke-opacity:1; 
stroke-linecap:round; stroke-linejoin:round;">
</g>
<g style="fill:#FFFFFF; fill-opacity:1.0; 
stroke:#FFFFFF; stroke-width:0; stroke-opacity:1; 
stroke-linecap:round; stroke-linejoin:round;">
<circle cx="36600" cy="54400" r="196.85" /> 
</g>
<g style="fill:#FFFFFF; fill-opacity:1.0; 
stroke:#FFFFFF; stroke-width:39.3701; stroke-opacity:1; 
stroke-linecap:round; stroke-linejoin:round;">
</g>
<g style="fill:#000000; fill-opacity:1.0; 
stroke:#000000; stroke-width:39.3701; stroke-opacity:1; 
stroke-linecap:round; stroke-linejoin:round;">
</g> 
</svg>
