G04 #@! TF.GenerationSoftware,KiCad,Pcbnew,(5.0.0-3-g5ebb6b6)*
G04 #@! TF.CreationDate,2018-09-06T10:07:47-04:00*
G04 #@! TF.ProjectId,PCB,5043422E6B696361645F706362000000,rev?*
G04 #@! TF.SameCoordinates,Original*
G04 #@! TF.FileFunction,Copper,L1,Top,Signal*
G04 #@! TF.FilePolarity,Positive*
%FSLAX46Y46*%
G04 Gerber Fmt 4.6, Leading zero omitted, Abs format (unit mm)*
G04 Created by KiCad (PCBNEW (5.0.0-3-g5ebb6b6)) date Thursday, September 06, 2018 at 10:07:47 AM*
%MOMM*%
%LPD*%
G01*
G04 APERTURE LIST*
G04 #@! TA.AperFunction,ComponentPad*
%ADD10O,1.700000X1.700000*%
G04 #@! TD*
G04 #@! TA.AperFunction,ComponentPad*
%ADD11R,1.700000X1.700000*%
G04 #@! TD*
G04 #@! TA.AperFunction,Conductor*
%ADD12C,0.254000*%
G04 #@! TD*
G04 APERTURE END LIST*
D10*
G04 #@! TO.P,U1,21*
G04 #@! TO.N,Net-(U1-Pad21)*
X63638000Y-116936000D03*
G04 #@! TO.P,U1,22*
G04 #@! TO.N,GND*
X63638000Y-119476000D03*
G04 #@! TO.P,U1,23*
G04 #@! TO.N,Net-(U1-Pad23)*
X63638000Y-122016000D03*
G04 #@! TO.P,U1,24*
G04 #@! TO.N,Net-(U1-Pad24)*
X63638000Y-124556000D03*
G04 #@! TO.P,U1,30*
G04 #@! TO.N,Net-(U1-Pad30)*
X63638000Y-139796000D03*
G04 #@! TO.P,U1,19*
G04 #@! TO.N,/FLOW4*
X63638000Y-111856000D03*
G04 #@! TO.P,U1,20*
G04 #@! TO.N,Net-(U1-Pad20)*
X63638000Y-114396000D03*
D11*
G04 #@! TO.P,U1,16*
G04 #@! TO.N,/FLOW1*
X63638000Y-104236000D03*
D10*
G04 #@! TO.P,U1,17*
G04 #@! TO.N,/FLOW2*
X63638000Y-106776000D03*
G04 #@! TO.P,U1,18*
G04 #@! TO.N,/FLOW3*
X63638000Y-109316000D03*
G04 #@! TO.P,U1,25*
G04 #@! TO.N,Net-(U1-Pad25)*
X63638000Y-127096000D03*
G04 #@! TO.P,U1,26*
G04 #@! TO.N,Net-(U1-Pad26)*
X63638000Y-129636000D03*
G04 #@! TO.P,U1,27*
G04 #@! TO.N,Net-(U1-Pad27)*
X63638000Y-132176000D03*
G04 #@! TO.P,U1,28*
G04 #@! TO.N,Net-(U1-Pad28)*
X63638000Y-134716000D03*
G04 #@! TO.P,U1,29*
G04 #@! TO.N,GND*
X63638000Y-137256000D03*
D11*
G04 #@! TO.P,U1,1*
G04 #@! TO.N,Net-(U1-Pad1)*
X87238000Y-104236000D03*
D10*
G04 #@! TO.P,U1,2*
G04 #@! TO.N,Net-(U1-Pad2)*
X87238000Y-106776000D03*
G04 #@! TO.P,U1,3*
G04 #@! TO.N,Net-(U1-Pad3)*
X87238000Y-109316000D03*
G04 #@! TO.P,U1,4*
G04 #@! TO.N,Net-(U1-Pad4)*
X87238000Y-111856000D03*
G04 #@! TO.P,U1,5*
G04 #@! TO.N,Net-(U1-Pad5)*
X87238000Y-114396000D03*
G04 #@! TO.P,U1,6*
G04 #@! TO.N,Net-(U1-Pad6)*
X87238000Y-116936000D03*
G04 #@! TO.P,U1,7*
G04 #@! TO.N,Net-(U1-Pad7)*
X87238000Y-119476000D03*
G04 #@! TO.P,U1,8*
G04 #@! TO.N,Net-(U1-Pad8)*
X87238000Y-122016000D03*
G04 #@! TO.P,U1,9*
G04 #@! TO.N,Net-(U1-Pad9)*
X87238000Y-124556000D03*
G04 #@! TO.P,U1,10*
G04 #@! TO.N,GND*
X87238000Y-127096000D03*
G04 #@! TO.P,U1,11*
G04 #@! TO.N,Net-(U1-Pad11)*
X87238000Y-129636000D03*
G04 #@! TO.P,U1,12*
G04 #@! TO.N,Net-(U1-Pad12)*
X87238000Y-132176000D03*
G04 #@! TO.P,U1,13*
G04 #@! TO.N,Net-(U1-Pad13)*
X87238000Y-134716000D03*
G04 #@! TO.P,U1,14*
G04 #@! TO.N,GND*
X87238000Y-137256000D03*
G04 #@! TO.P,U1,15*
G04 #@! TO.N,VCC*
X87238000Y-139796000D03*
G04 #@! TD*
G04 #@! TO.P,J1,3*
G04 #@! TO.N,GND*
X56896000Y-114046000D03*
G04 #@! TO.P,J1,2*
G04 #@! TO.N,/FLOW1*
X56896000Y-111506000D03*
D11*
G04 #@! TO.P,J1,1*
G04 #@! TO.N,VCC*
X56896000Y-108966000D03*
G04 #@! TD*
D10*
G04 #@! TO.P,J2,3*
G04 #@! TO.N,GND*
X56896000Y-125984000D03*
G04 #@! TO.P,J2,2*
G04 #@! TO.N,/FLOW2*
X56896000Y-123444000D03*
D11*
G04 #@! TO.P,J2,1*
G04 #@! TO.N,VCC*
X56896000Y-120904000D03*
G04 #@! TD*
G04 #@! TO.P,J3,1*
G04 #@! TO.N,VCC*
X56896000Y-131826000D03*
D10*
G04 #@! TO.P,J3,2*
G04 #@! TO.N,/FLOW3*
X56896000Y-134366000D03*
G04 #@! TO.P,J3,3*
G04 #@! TO.N,GND*
X56896000Y-136906000D03*
G04 #@! TD*
D11*
G04 #@! TO.P,J4,1*
G04 #@! TO.N,VCC*
X92964000Y-133096000D03*
D10*
G04 #@! TO.P,J4,2*
G04 #@! TO.N,/FLOW4*
X92964000Y-135636000D03*
G04 #@! TO.P,J4,3*
G04 #@! TO.N,GND*
X92964000Y-138176000D03*
G04 #@! TD*
D12*
G04 #@! TO.N,GND*
G36*
X72754020Y-85568272D02*
X74219973Y-86857400D01*
X74266033Y-86926333D01*
X74400642Y-87016276D01*
X74430206Y-87042274D01*
X74500349Y-87082898D01*
X74669622Y-87196003D01*
X74709249Y-87203885D01*
X74744213Y-87224135D01*
X74946015Y-87250981D01*
X75025519Y-87266795D01*
X75064892Y-87266795D01*
X75225367Y-87288143D01*
X75305474Y-87266795D01*
X75375882Y-87266795D01*
X77181959Y-87583564D01*
X78594395Y-88404839D01*
X79805309Y-89702412D01*
X80815958Y-91395027D01*
X81572357Y-93237121D01*
X81577922Y-93297027D01*
X81663882Y-93460016D01*
X81687336Y-93517134D01*
X81719808Y-93566056D01*
X81804356Y-93726368D01*
X81853026Y-93766764D01*
X81888007Y-93819467D01*
X82038401Y-93920626D01*
X82177855Y-94036374D01*
X82238279Y-94055070D01*
X82290765Y-94090374D01*
X82468417Y-94126279D01*
X82641558Y-94179852D01*
X82704539Y-94174002D01*
X82766538Y-94186532D01*
X82944401Y-94151720D01*
X83002871Y-94146289D01*
X83062063Y-94128691D01*
X83242893Y-94093299D01*
X83293018Y-94060029D01*
X84955561Y-93565758D01*
X85808995Y-93660584D01*
X86779107Y-94600679D01*
X88670771Y-96477855D01*
X89527831Y-97333091D01*
X89565682Y-97399811D01*
X89698186Y-97503084D01*
X89730383Y-97535213D01*
X89792766Y-97576800D01*
X89948527Y-97698200D01*
X89993494Y-97710614D01*
X90032313Y-97736492D01*
X90226046Y-97774813D01*
X90298312Y-97794763D01*
X90343677Y-97798081D01*
X90508479Y-97830679D01*
X90583696Y-97815634D01*
X91690428Y-97896574D01*
X91691302Y-97896814D01*
X91810134Y-97905329D01*
X91929220Y-97914038D01*
X91930121Y-97913926D01*
X94332764Y-98086085D01*
X94337016Y-98087219D01*
X94452582Y-98094670D01*
X94568097Y-98102947D01*
X94572464Y-98102399D01*
X95589445Y-98167967D01*
X95603494Y-98263402D01*
X95603581Y-98263646D01*
X95732771Y-99138690D01*
X95732768Y-99138748D01*
X95750569Y-99259241D01*
X95767865Y-99376394D01*
X95767884Y-99376447D01*
X95987083Y-100860204D01*
X95987082Y-100860229D01*
X96001591Y-100958410D01*
X96022204Y-101097936D01*
X96022213Y-101097961D01*
X96320153Y-103114126D01*
X96320152Y-103114139D01*
X96336630Y-103225631D01*
X96355285Y-103351867D01*
X96355290Y-103351881D01*
X96720666Y-105823991D01*
X96720665Y-105824005D01*
X96747103Y-106002862D01*
X96755805Y-106061742D01*
X96755807Y-106061746D01*
X97177312Y-108913340D01*
X97177312Y-108913347D01*
X97196346Y-109042111D01*
X97212455Y-109151089D01*
X97212457Y-109151095D01*
X97678782Y-112305676D01*
X97678782Y-112305682D01*
X97695534Y-112419000D01*
X97713928Y-112543428D01*
X97713929Y-112543431D01*
X98248911Y-116162274D01*
X98248913Y-116162279D01*
X98770947Y-119693393D01*
X98770947Y-119693397D01*
X99339020Y-123535805D01*
X99339020Y-123535807D01*
X99352155Y-123624646D01*
X99374170Y-123773557D01*
X99374171Y-123773560D01*
X99906672Y-127375271D01*
X99906672Y-127375273D01*
X100497745Y-131373060D01*
X100497747Y-131373065D01*
X101030625Y-134977185D01*
X101030626Y-134977188D01*
X101528942Y-138347486D01*
X101982014Y-141411750D01*
X101982015Y-141411752D01*
X102342748Y-143851471D01*
X102342748Y-143851473D01*
X102670349Y-146067093D01*
X102918354Y-147744371D01*
X102918354Y-147744375D01*
X102980768Y-148166482D01*
X82753462Y-152527176D01*
X44322798Y-145328192D01*
X44392590Y-144787783D01*
X44648675Y-142805663D01*
X44977056Y-140265159D01*
X45037731Y-139796000D01*
X61622269Y-139796000D01*
X61775707Y-140567387D01*
X62212663Y-141221337D01*
X62866613Y-141658293D01*
X63443286Y-141773000D01*
X63832714Y-141773000D01*
X64409387Y-141658293D01*
X65063337Y-141221337D01*
X65500293Y-140567387D01*
X65653731Y-139796000D01*
X85222269Y-139796000D01*
X85375707Y-140567387D01*
X85812663Y-141221337D01*
X86466613Y-141658293D01*
X87043286Y-141773000D01*
X87432714Y-141773000D01*
X88009387Y-141658293D01*
X88663337Y-141221337D01*
X89100293Y-140567387D01*
X89253731Y-139796000D01*
X89100293Y-139024613D01*
X88771734Y-138532890D01*
X91522524Y-138532890D01*
X91692355Y-138942924D01*
X92082642Y-139371183D01*
X92607108Y-139617486D01*
X92837000Y-139496819D01*
X92837000Y-138303000D01*
X93091000Y-138303000D01*
X93091000Y-139496819D01*
X93320892Y-139617486D01*
X93845358Y-139371183D01*
X94235645Y-138942924D01*
X94405476Y-138532890D01*
X94284155Y-138303000D01*
X93091000Y-138303000D01*
X92837000Y-138303000D01*
X91643845Y-138303000D01*
X91522524Y-138532890D01*
X88771734Y-138532890D01*
X88663337Y-138370663D01*
X88370846Y-138175227D01*
X88509645Y-138022924D01*
X88679476Y-137612890D01*
X88558155Y-137383000D01*
X87365000Y-137383000D01*
X87365000Y-137403000D01*
X87111000Y-137403000D01*
X87111000Y-137383000D01*
X85917845Y-137383000D01*
X85796524Y-137612890D01*
X85966355Y-138022924D01*
X86105154Y-138175227D01*
X85812663Y-138370663D01*
X85375707Y-139024613D01*
X85222269Y-139796000D01*
X65653731Y-139796000D01*
X65500293Y-139024613D01*
X65063337Y-138370663D01*
X64770846Y-138175227D01*
X64909645Y-138022924D01*
X65079476Y-137612890D01*
X64958155Y-137383000D01*
X63765000Y-137383000D01*
X63765000Y-137403000D01*
X63511000Y-137403000D01*
X63511000Y-137383000D01*
X62317845Y-137383000D01*
X62196524Y-137612890D01*
X62366355Y-138022924D01*
X62505154Y-138175227D01*
X62212663Y-138370663D01*
X61775707Y-139024613D01*
X61622269Y-139796000D01*
X45037731Y-139796000D01*
X45365335Y-137262890D01*
X55454524Y-137262890D01*
X55624355Y-137672924D01*
X56014642Y-138101183D01*
X56539108Y-138347486D01*
X56769000Y-138226819D01*
X56769000Y-137033000D01*
X57023000Y-137033000D01*
X57023000Y-138226819D01*
X57252892Y-138347486D01*
X57777358Y-138101183D01*
X58167645Y-137672924D01*
X58337476Y-137262890D01*
X58216155Y-137033000D01*
X57023000Y-137033000D01*
X56769000Y-137033000D01*
X55575845Y-137033000D01*
X55454524Y-137262890D01*
X45365335Y-137262890D01*
X45740225Y-134366000D01*
X54880269Y-134366000D01*
X55033707Y-135137387D01*
X55470663Y-135791337D01*
X55763154Y-135986773D01*
X55624355Y-136139076D01*
X55454524Y-136549110D01*
X55575845Y-136779000D01*
X56769000Y-136779000D01*
X56769000Y-136759000D01*
X57023000Y-136759000D01*
X57023000Y-136779000D01*
X58216155Y-136779000D01*
X58337476Y-136549110D01*
X58167645Y-136139076D01*
X58028846Y-135986773D01*
X58321337Y-135791337D01*
X58758293Y-135137387D01*
X58911731Y-134366000D01*
X58758293Y-133594613D01*
X58622963Y-133392078D01*
X58807611Y-133115733D01*
X58895079Y-132676000D01*
X58895079Y-130976000D01*
X58807611Y-130536267D01*
X58558522Y-130163478D01*
X58185733Y-129914389D01*
X57746000Y-129826921D01*
X56046000Y-129826921D01*
X55606267Y-129914389D01*
X55233478Y-130163478D01*
X54984389Y-130536267D01*
X54896921Y-130976000D01*
X54896921Y-132676000D01*
X54984389Y-133115733D01*
X55169037Y-133392078D01*
X55033707Y-133594613D01*
X54880269Y-134366000D01*
X45740225Y-134366000D01*
X45801651Y-133891346D01*
X46268716Y-130285017D01*
X46755111Y-126533000D01*
X46780045Y-126340890D01*
X55454524Y-126340890D01*
X55624355Y-126750924D01*
X56014642Y-127179183D01*
X56539108Y-127425486D01*
X56769000Y-127304819D01*
X56769000Y-126111000D01*
X57023000Y-126111000D01*
X57023000Y-127304819D01*
X57252892Y-127425486D01*
X57777358Y-127179183D01*
X58167645Y-126750924D01*
X58337476Y-126340890D01*
X58216155Y-126111000D01*
X57023000Y-126111000D01*
X56769000Y-126111000D01*
X55575845Y-126111000D01*
X55454524Y-126340890D01*
X46780045Y-126340890D01*
X47156037Y-123444000D01*
X54880269Y-123444000D01*
X55033707Y-124215387D01*
X55470663Y-124869337D01*
X55763154Y-125064773D01*
X55624355Y-125217076D01*
X55454524Y-125627110D01*
X55575845Y-125857000D01*
X56769000Y-125857000D01*
X56769000Y-125837000D01*
X57023000Y-125837000D01*
X57023000Y-125857000D01*
X58216155Y-125857000D01*
X58337476Y-125627110D01*
X58167645Y-125217076D01*
X58028846Y-125064773D01*
X58321337Y-124869337D01*
X58758293Y-124215387D01*
X58911731Y-123444000D01*
X58758293Y-122672613D01*
X58622963Y-122470078D01*
X58807611Y-122193733D01*
X58842964Y-122016000D01*
X61622269Y-122016000D01*
X61775707Y-122787387D01*
X62108870Y-123286000D01*
X61775707Y-123784613D01*
X61622269Y-124556000D01*
X61775707Y-125327387D01*
X62108870Y-125826000D01*
X61775707Y-126324613D01*
X61622269Y-127096000D01*
X61775707Y-127867387D01*
X62108870Y-128366000D01*
X61775707Y-128864613D01*
X61622269Y-129636000D01*
X61775707Y-130407387D01*
X62108870Y-130906000D01*
X61775707Y-131404613D01*
X61622269Y-132176000D01*
X61775707Y-132947387D01*
X62108870Y-133446000D01*
X61775707Y-133944613D01*
X61622269Y-134716000D01*
X61775707Y-135487387D01*
X62212663Y-136141337D01*
X62505154Y-136336773D01*
X62366355Y-136489076D01*
X62196524Y-136899110D01*
X62317845Y-137129000D01*
X63511000Y-137129000D01*
X63511000Y-137109000D01*
X63765000Y-137109000D01*
X63765000Y-137129000D01*
X64958155Y-137129000D01*
X65079476Y-136899110D01*
X64909645Y-136489076D01*
X64770846Y-136336773D01*
X65063337Y-136141337D01*
X65500293Y-135487387D01*
X65653731Y-134716000D01*
X65500293Y-133944613D01*
X65167130Y-133446000D01*
X65500293Y-132947387D01*
X65653731Y-132176000D01*
X65500293Y-131404613D01*
X65167130Y-130906000D01*
X65500293Y-130407387D01*
X65653731Y-129636000D01*
X85222269Y-129636000D01*
X85375707Y-130407387D01*
X85708870Y-130906000D01*
X85375707Y-131404613D01*
X85222269Y-132176000D01*
X85375707Y-132947387D01*
X85708870Y-133446000D01*
X85375707Y-133944613D01*
X85222269Y-134716000D01*
X85375707Y-135487387D01*
X85812663Y-136141337D01*
X86105154Y-136336773D01*
X85966355Y-136489076D01*
X85796524Y-136899110D01*
X85917845Y-137129000D01*
X87111000Y-137129000D01*
X87111000Y-137109000D01*
X87365000Y-137109000D01*
X87365000Y-137129000D01*
X88558155Y-137129000D01*
X88679476Y-136899110D01*
X88509645Y-136489076D01*
X88370846Y-136336773D01*
X88663337Y-136141337D01*
X89000992Y-135636000D01*
X90948269Y-135636000D01*
X91101707Y-136407387D01*
X91538663Y-137061337D01*
X91831154Y-137256773D01*
X91692355Y-137409076D01*
X91522524Y-137819110D01*
X91643845Y-138049000D01*
X92837000Y-138049000D01*
X92837000Y-138029000D01*
X93091000Y-138029000D01*
X93091000Y-138049000D01*
X94284155Y-138049000D01*
X94405476Y-137819110D01*
X94235645Y-137409076D01*
X94096846Y-137256773D01*
X94389337Y-137061337D01*
X94826293Y-136407387D01*
X94979731Y-135636000D01*
X94826293Y-134864613D01*
X94690963Y-134662078D01*
X94875611Y-134385733D01*
X94963079Y-133946000D01*
X94963079Y-132246000D01*
X94875611Y-131806267D01*
X94626522Y-131433478D01*
X94253733Y-131184389D01*
X93814000Y-131096921D01*
X92114000Y-131096921D01*
X91674267Y-131184389D01*
X91301478Y-131433478D01*
X91052389Y-131806267D01*
X90964921Y-132246000D01*
X90964921Y-133946000D01*
X91052389Y-134385733D01*
X91237037Y-134662078D01*
X91101707Y-134864613D01*
X90948269Y-135636000D01*
X89000992Y-135636000D01*
X89100293Y-135487387D01*
X89253731Y-134716000D01*
X89100293Y-133944613D01*
X88767130Y-133446000D01*
X89100293Y-132947387D01*
X89253731Y-132176000D01*
X89100293Y-131404613D01*
X88767130Y-130906000D01*
X89100293Y-130407387D01*
X89253731Y-129636000D01*
X89100293Y-128864613D01*
X88663337Y-128210663D01*
X88370846Y-128015227D01*
X88509645Y-127862924D01*
X88679476Y-127452890D01*
X88558155Y-127223000D01*
X87365000Y-127223000D01*
X87365000Y-127243000D01*
X87111000Y-127243000D01*
X87111000Y-127223000D01*
X85917845Y-127223000D01*
X85796524Y-127452890D01*
X85966355Y-127862924D01*
X86105154Y-128015227D01*
X85812663Y-128210663D01*
X85375707Y-128864613D01*
X85222269Y-129636000D01*
X65653731Y-129636000D01*
X65500293Y-128864613D01*
X65167130Y-128366000D01*
X65500293Y-127867387D01*
X65653731Y-127096000D01*
X65500293Y-126324613D01*
X65167130Y-125826000D01*
X65500293Y-125327387D01*
X65653731Y-124556000D01*
X65500293Y-123784613D01*
X65167130Y-123286000D01*
X65500293Y-122787387D01*
X65653731Y-122016000D01*
X65500293Y-121244613D01*
X65063337Y-120590663D01*
X64770846Y-120395227D01*
X64909645Y-120242924D01*
X65079476Y-119832890D01*
X64958155Y-119603000D01*
X63765000Y-119603000D01*
X63765000Y-119623000D01*
X63511000Y-119623000D01*
X63511000Y-119603000D01*
X62317845Y-119603000D01*
X62196524Y-119832890D01*
X62366355Y-120242924D01*
X62505154Y-120395227D01*
X62212663Y-120590663D01*
X61775707Y-121244613D01*
X61622269Y-122016000D01*
X58842964Y-122016000D01*
X58895079Y-121754000D01*
X58895079Y-120054000D01*
X58807611Y-119614267D01*
X58558522Y-119241478D01*
X58185733Y-118992389D01*
X57746000Y-118904921D01*
X56046000Y-118904921D01*
X55606267Y-118992389D01*
X55233478Y-119241478D01*
X54984389Y-119614267D01*
X54896921Y-120054000D01*
X54896921Y-121754000D01*
X54984389Y-122193733D01*
X55169037Y-122470078D01*
X55033707Y-122672613D01*
X54880269Y-123444000D01*
X47156037Y-123444000D01*
X47241859Y-122782775D01*
X47717241Y-119125769D01*
X48166446Y-115677342D01*
X48332950Y-114402890D01*
X55454524Y-114402890D01*
X55624355Y-114812924D01*
X56014642Y-115241183D01*
X56539108Y-115487486D01*
X56769000Y-115366819D01*
X56769000Y-114173000D01*
X57023000Y-114173000D01*
X57023000Y-115366819D01*
X57252892Y-115487486D01*
X57777358Y-115241183D01*
X58167645Y-114812924D01*
X58337476Y-114402890D01*
X58216155Y-114173000D01*
X57023000Y-114173000D01*
X56769000Y-114173000D01*
X55575845Y-114173000D01*
X55454524Y-114402890D01*
X48332950Y-114402890D01*
X48573983Y-112557991D01*
X48712043Y-111506000D01*
X54880269Y-111506000D01*
X55033707Y-112277387D01*
X55470663Y-112931337D01*
X55763154Y-113126773D01*
X55624355Y-113279076D01*
X55454524Y-113689110D01*
X55575845Y-113919000D01*
X56769000Y-113919000D01*
X56769000Y-113899000D01*
X57023000Y-113899000D01*
X57023000Y-113919000D01*
X58216155Y-113919000D01*
X58337476Y-113689110D01*
X58167645Y-113279076D01*
X58028846Y-113126773D01*
X58321337Y-112931337D01*
X58758293Y-112277387D01*
X58911731Y-111506000D01*
X58758293Y-110734613D01*
X58622963Y-110532078D01*
X58807611Y-110255733D01*
X58895079Y-109816000D01*
X58895079Y-108116000D01*
X58807611Y-107676267D01*
X58558522Y-107303478D01*
X58185733Y-107054389D01*
X57746000Y-106966921D01*
X56046000Y-106966921D01*
X55606267Y-107054389D01*
X55233478Y-107303478D01*
X54984389Y-107676267D01*
X54896921Y-108116000D01*
X54896921Y-109816000D01*
X54984389Y-110255733D01*
X55169037Y-110532078D01*
X55033707Y-110734613D01*
X54880269Y-111506000D01*
X48712043Y-111506000D01*
X48926118Y-109874800D01*
X49207343Y-107748348D01*
X49338034Y-106776000D01*
X61622269Y-106776000D01*
X61775707Y-107547387D01*
X62108870Y-108046000D01*
X61775707Y-108544613D01*
X61622269Y-109316000D01*
X61775707Y-110087387D01*
X62108870Y-110586000D01*
X61775707Y-111084613D01*
X61622269Y-111856000D01*
X61775707Y-112627387D01*
X62108870Y-113126000D01*
X61775707Y-113624613D01*
X61622269Y-114396000D01*
X61775707Y-115167387D01*
X62108870Y-115666000D01*
X61775707Y-116164613D01*
X61622269Y-116936000D01*
X61775707Y-117707387D01*
X62212663Y-118361337D01*
X62505154Y-118556773D01*
X62366355Y-118709076D01*
X62196524Y-119119110D01*
X62317845Y-119349000D01*
X63511000Y-119349000D01*
X63511000Y-119329000D01*
X63765000Y-119329000D01*
X63765000Y-119349000D01*
X64958155Y-119349000D01*
X65079476Y-119119110D01*
X64909645Y-118709076D01*
X64770846Y-118556773D01*
X65063337Y-118361337D01*
X65500293Y-117707387D01*
X65653731Y-116936000D01*
X65500293Y-116164613D01*
X65167130Y-115666000D01*
X65500293Y-115167387D01*
X65653731Y-114396000D01*
X65500293Y-113624613D01*
X65167130Y-113126000D01*
X65500293Y-112627387D01*
X65653731Y-111856000D01*
X65500293Y-111084613D01*
X65167130Y-110586000D01*
X65500293Y-110087387D01*
X65653731Y-109316000D01*
X65500293Y-108544613D01*
X65167130Y-108046000D01*
X65500293Y-107547387D01*
X65653731Y-106776000D01*
X85222269Y-106776000D01*
X85375707Y-107547387D01*
X85708870Y-108046000D01*
X85375707Y-108544613D01*
X85222269Y-109316000D01*
X85375707Y-110087387D01*
X85708870Y-110586000D01*
X85375707Y-111084613D01*
X85222269Y-111856000D01*
X85375707Y-112627387D01*
X85708870Y-113126000D01*
X85375707Y-113624613D01*
X85222269Y-114396000D01*
X85375707Y-115167387D01*
X85708870Y-115666000D01*
X85375707Y-116164613D01*
X85222269Y-116936000D01*
X85375707Y-117707387D01*
X85708870Y-118206000D01*
X85375707Y-118704613D01*
X85222269Y-119476000D01*
X85375707Y-120247387D01*
X85708870Y-120746000D01*
X85375707Y-121244613D01*
X85222269Y-122016000D01*
X85375707Y-122787387D01*
X85708870Y-123286000D01*
X85375707Y-123784613D01*
X85222269Y-124556000D01*
X85375707Y-125327387D01*
X85812663Y-125981337D01*
X86105154Y-126176773D01*
X85966355Y-126329076D01*
X85796524Y-126739110D01*
X85917845Y-126969000D01*
X87111000Y-126969000D01*
X87111000Y-126949000D01*
X87365000Y-126949000D01*
X87365000Y-126969000D01*
X88558155Y-126969000D01*
X88679476Y-126739110D01*
X88509645Y-126329076D01*
X88370846Y-126176773D01*
X88663337Y-125981337D01*
X89100293Y-125327387D01*
X89253731Y-124556000D01*
X89100293Y-123784613D01*
X88767130Y-123286000D01*
X89100293Y-122787387D01*
X89253731Y-122016000D01*
X89100293Y-121244613D01*
X88767130Y-120746000D01*
X89100293Y-120247387D01*
X89253731Y-119476000D01*
X89100293Y-118704613D01*
X88767130Y-118206000D01*
X89100293Y-117707387D01*
X89253731Y-116936000D01*
X89100293Y-116164613D01*
X88767130Y-115666000D01*
X89100293Y-115167387D01*
X89253731Y-114396000D01*
X89100293Y-113624613D01*
X88767130Y-113126000D01*
X89100293Y-112627387D01*
X89253731Y-111856000D01*
X89100293Y-111084613D01*
X88767130Y-110586000D01*
X89100293Y-110087387D01*
X89253731Y-109316000D01*
X89100293Y-108544613D01*
X88767130Y-108046000D01*
X89100293Y-107547387D01*
X89253731Y-106776000D01*
X89100293Y-106004613D01*
X88964963Y-105802078D01*
X89149611Y-105525733D01*
X89237079Y-105086000D01*
X89237079Y-103386000D01*
X89149611Y-102946267D01*
X88900522Y-102573478D01*
X88527733Y-102324389D01*
X88088000Y-102236921D01*
X86388000Y-102236921D01*
X85948267Y-102324389D01*
X85575478Y-102573478D01*
X85326389Y-102946267D01*
X85238921Y-103386000D01*
X85238921Y-105086000D01*
X85326389Y-105525733D01*
X85511037Y-105802078D01*
X85375707Y-106004613D01*
X85222269Y-106776000D01*
X65653731Y-106776000D01*
X65500293Y-106004613D01*
X65364963Y-105802078D01*
X65549611Y-105525733D01*
X65637079Y-105086000D01*
X65637079Y-103386000D01*
X65549611Y-102946267D01*
X65300522Y-102573478D01*
X64927733Y-102324389D01*
X64488000Y-102236921D01*
X62788000Y-102236921D01*
X62348267Y-102324389D01*
X61975478Y-102573478D01*
X61726389Y-102946267D01*
X61638921Y-103386000D01*
X61638921Y-105086000D01*
X61726389Y-105525733D01*
X61911037Y-105802078D01*
X61775707Y-106004613D01*
X61622269Y-106776000D01*
X49338034Y-106776000D01*
X49403009Y-106292587D01*
X49488406Y-105691864D01*
X49786674Y-104596729D01*
X50975909Y-104060869D01*
X51885894Y-103762039D01*
X54063673Y-103082258D01*
X56960262Y-102190852D01*
X56981675Y-102192143D01*
X57191484Y-102119695D01*
X57286570Y-102090433D01*
X57304943Y-102080517D01*
X57440485Y-102033714D01*
X57516506Y-101966339D01*
X57605902Y-101918092D01*
X57696427Y-101806878D01*
X57803742Y-101711767D01*
X57848193Y-101620427D01*
X57912320Y-101541644D01*
X57953395Y-101404252D01*
X57962529Y-101385483D01*
X57987768Y-101289277D01*
X58051354Y-101076589D01*
X58049165Y-101055247D01*
X58427166Y-99614399D01*
X59004849Y-97791737D01*
X59739396Y-95851740D01*
X60635400Y-93873617D01*
X61695905Y-91936137D01*
X62921612Y-90117293D01*
X64310262Y-88492757D01*
X65857301Y-87132622D01*
X67560601Y-86097001D01*
X69431086Y-85435696D01*
X71410413Y-85210657D01*
X72754020Y-85568272D01*
X72754020Y-85568272D01*
G37*
X72754020Y-85568272D02*
X74219973Y-86857400D01*
X74266033Y-86926333D01*
X74400642Y-87016276D01*
X74430206Y-87042274D01*
X74500349Y-87082898D01*
X74669622Y-87196003D01*
X74709249Y-87203885D01*
X74744213Y-87224135D01*
X74946015Y-87250981D01*
X75025519Y-87266795D01*
X75064892Y-87266795D01*
X75225367Y-87288143D01*
X75305474Y-87266795D01*
X75375882Y-87266795D01*
X77181959Y-87583564D01*
X78594395Y-88404839D01*
X79805309Y-89702412D01*
X80815958Y-91395027D01*
X81572357Y-93237121D01*
X81577922Y-93297027D01*
X81663882Y-93460016D01*
X81687336Y-93517134D01*
X81719808Y-93566056D01*
X81804356Y-93726368D01*
X81853026Y-93766764D01*
X81888007Y-93819467D01*
X82038401Y-93920626D01*
X82177855Y-94036374D01*
X82238279Y-94055070D01*
X82290765Y-94090374D01*
X82468417Y-94126279D01*
X82641558Y-94179852D01*
X82704539Y-94174002D01*
X82766538Y-94186532D01*
X82944401Y-94151720D01*
X83002871Y-94146289D01*
X83062063Y-94128691D01*
X83242893Y-94093299D01*
X83293018Y-94060029D01*
X84955561Y-93565758D01*
X85808995Y-93660584D01*
X86779107Y-94600679D01*
X88670771Y-96477855D01*
X89527831Y-97333091D01*
X89565682Y-97399811D01*
X89698186Y-97503084D01*
X89730383Y-97535213D01*
X89792766Y-97576800D01*
X89948527Y-97698200D01*
X89993494Y-97710614D01*
X90032313Y-97736492D01*
X90226046Y-97774813D01*
X90298312Y-97794763D01*
X90343677Y-97798081D01*
X90508479Y-97830679D01*
X90583696Y-97815634D01*
X91690428Y-97896574D01*
X91691302Y-97896814D01*
X91810134Y-97905329D01*
X91929220Y-97914038D01*
X91930121Y-97913926D01*
X94332764Y-98086085D01*
X94337016Y-98087219D01*
X94452582Y-98094670D01*
X94568097Y-98102947D01*
X94572464Y-98102399D01*
X95589445Y-98167967D01*
X95603494Y-98263402D01*
X95603581Y-98263646D01*
X95732771Y-99138690D01*
X95732768Y-99138748D01*
X95750569Y-99259241D01*
X95767865Y-99376394D01*
X95767884Y-99376447D01*
X95987083Y-100860204D01*
X95987082Y-100860229D01*
X96001591Y-100958410D01*
X96022204Y-101097936D01*
X96022213Y-101097961D01*
X96320153Y-103114126D01*
X96320152Y-103114139D01*
X96336630Y-103225631D01*
X96355285Y-103351867D01*
X96355290Y-103351881D01*
X96720666Y-105823991D01*
X96720665Y-105824005D01*
X96747103Y-106002862D01*
X96755805Y-106061742D01*
X96755807Y-106061746D01*
X97177312Y-108913340D01*
X97177312Y-108913347D01*
X97196346Y-109042111D01*
X97212455Y-109151089D01*
X97212457Y-109151095D01*
X97678782Y-112305676D01*
X97678782Y-112305682D01*
X97695534Y-112419000D01*
X97713928Y-112543428D01*
X97713929Y-112543431D01*
X98248911Y-116162274D01*
X98248913Y-116162279D01*
X98770947Y-119693393D01*
X98770947Y-119693397D01*
X99339020Y-123535805D01*
X99339020Y-123535807D01*
X99352155Y-123624646D01*
X99374170Y-123773557D01*
X99374171Y-123773560D01*
X99906672Y-127375271D01*
X99906672Y-127375273D01*
X100497745Y-131373060D01*
X100497747Y-131373065D01*
X101030625Y-134977185D01*
X101030626Y-134977188D01*
X101528942Y-138347486D01*
X101982014Y-141411750D01*
X101982015Y-141411752D01*
X102342748Y-143851471D01*
X102342748Y-143851473D01*
X102670349Y-146067093D01*
X102918354Y-147744371D01*
X102918354Y-147744375D01*
X102980768Y-148166482D01*
X82753462Y-152527176D01*
X44322798Y-145328192D01*
X44392590Y-144787783D01*
X44648675Y-142805663D01*
X44977056Y-140265159D01*
X45037731Y-139796000D01*
X61622269Y-139796000D01*
X61775707Y-140567387D01*
X62212663Y-141221337D01*
X62866613Y-141658293D01*
X63443286Y-141773000D01*
X63832714Y-141773000D01*
X64409387Y-141658293D01*
X65063337Y-141221337D01*
X65500293Y-140567387D01*
X65653731Y-139796000D01*
X85222269Y-139796000D01*
X85375707Y-140567387D01*
X85812663Y-141221337D01*
X86466613Y-141658293D01*
X87043286Y-141773000D01*
X87432714Y-141773000D01*
X88009387Y-141658293D01*
X88663337Y-141221337D01*
X89100293Y-140567387D01*
X89253731Y-139796000D01*
X89100293Y-139024613D01*
X88771734Y-138532890D01*
X91522524Y-138532890D01*
X91692355Y-138942924D01*
X92082642Y-139371183D01*
X92607108Y-139617486D01*
X92837000Y-139496819D01*
X92837000Y-138303000D01*
X93091000Y-138303000D01*
X93091000Y-139496819D01*
X93320892Y-139617486D01*
X93845358Y-139371183D01*
X94235645Y-138942924D01*
X94405476Y-138532890D01*
X94284155Y-138303000D01*
X93091000Y-138303000D01*
X92837000Y-138303000D01*
X91643845Y-138303000D01*
X91522524Y-138532890D01*
X88771734Y-138532890D01*
X88663337Y-138370663D01*
X88370846Y-138175227D01*
X88509645Y-138022924D01*
X88679476Y-137612890D01*
X88558155Y-137383000D01*
X87365000Y-137383000D01*
X87365000Y-137403000D01*
X87111000Y-137403000D01*
X87111000Y-137383000D01*
X85917845Y-137383000D01*
X85796524Y-137612890D01*
X85966355Y-138022924D01*
X86105154Y-138175227D01*
X85812663Y-138370663D01*
X85375707Y-139024613D01*
X85222269Y-139796000D01*
X65653731Y-139796000D01*
X65500293Y-139024613D01*
X65063337Y-138370663D01*
X64770846Y-138175227D01*
X64909645Y-138022924D01*
X65079476Y-137612890D01*
X64958155Y-137383000D01*
X63765000Y-137383000D01*
X63765000Y-137403000D01*
X63511000Y-137403000D01*
X63511000Y-137383000D01*
X62317845Y-137383000D01*
X62196524Y-137612890D01*
X62366355Y-138022924D01*
X62505154Y-138175227D01*
X62212663Y-138370663D01*
X61775707Y-139024613D01*
X61622269Y-139796000D01*
X45037731Y-139796000D01*
X45365335Y-137262890D01*
X55454524Y-137262890D01*
X55624355Y-137672924D01*
X56014642Y-138101183D01*
X56539108Y-138347486D01*
X56769000Y-138226819D01*
X56769000Y-137033000D01*
X57023000Y-137033000D01*
X57023000Y-138226819D01*
X57252892Y-138347486D01*
X57777358Y-138101183D01*
X58167645Y-137672924D01*
X58337476Y-137262890D01*
X58216155Y-137033000D01*
X57023000Y-137033000D01*
X56769000Y-137033000D01*
X55575845Y-137033000D01*
X55454524Y-137262890D01*
X45365335Y-137262890D01*
X45740225Y-134366000D01*
X54880269Y-134366000D01*
X55033707Y-135137387D01*
X55470663Y-135791337D01*
X55763154Y-135986773D01*
X55624355Y-136139076D01*
X55454524Y-136549110D01*
X55575845Y-136779000D01*
X56769000Y-136779000D01*
X56769000Y-136759000D01*
X57023000Y-136759000D01*
X57023000Y-136779000D01*
X58216155Y-136779000D01*
X58337476Y-136549110D01*
X58167645Y-136139076D01*
X58028846Y-135986773D01*
X58321337Y-135791337D01*
X58758293Y-135137387D01*
X58911731Y-134366000D01*
X58758293Y-133594613D01*
X58622963Y-133392078D01*
X58807611Y-133115733D01*
X58895079Y-132676000D01*
X58895079Y-130976000D01*
X58807611Y-130536267D01*
X58558522Y-130163478D01*
X58185733Y-129914389D01*
X57746000Y-129826921D01*
X56046000Y-129826921D01*
X55606267Y-129914389D01*
X55233478Y-130163478D01*
X54984389Y-130536267D01*
X54896921Y-130976000D01*
X54896921Y-132676000D01*
X54984389Y-133115733D01*
X55169037Y-133392078D01*
X55033707Y-133594613D01*
X54880269Y-134366000D01*
X45740225Y-134366000D01*
X45801651Y-133891346D01*
X46268716Y-130285017D01*
X46755111Y-126533000D01*
X46780045Y-126340890D01*
X55454524Y-126340890D01*
X55624355Y-126750924D01*
X56014642Y-127179183D01*
X56539108Y-127425486D01*
X56769000Y-127304819D01*
X56769000Y-126111000D01*
X57023000Y-126111000D01*
X57023000Y-127304819D01*
X57252892Y-127425486D01*
X57777358Y-127179183D01*
X58167645Y-126750924D01*
X58337476Y-126340890D01*
X58216155Y-126111000D01*
X57023000Y-126111000D01*
X56769000Y-126111000D01*
X55575845Y-126111000D01*
X55454524Y-126340890D01*
X46780045Y-126340890D01*
X47156037Y-123444000D01*
X54880269Y-123444000D01*
X55033707Y-124215387D01*
X55470663Y-124869337D01*
X55763154Y-125064773D01*
X55624355Y-125217076D01*
X55454524Y-125627110D01*
X55575845Y-125857000D01*
X56769000Y-125857000D01*
X56769000Y-125837000D01*
X57023000Y-125837000D01*
X57023000Y-125857000D01*
X58216155Y-125857000D01*
X58337476Y-125627110D01*
X58167645Y-125217076D01*
X58028846Y-125064773D01*
X58321337Y-124869337D01*
X58758293Y-124215387D01*
X58911731Y-123444000D01*
X58758293Y-122672613D01*
X58622963Y-122470078D01*
X58807611Y-122193733D01*
X58842964Y-122016000D01*
X61622269Y-122016000D01*
X61775707Y-122787387D01*
X62108870Y-123286000D01*
X61775707Y-123784613D01*
X61622269Y-124556000D01*
X61775707Y-125327387D01*
X62108870Y-125826000D01*
X61775707Y-126324613D01*
X61622269Y-127096000D01*
X61775707Y-127867387D01*
X62108870Y-128366000D01*
X61775707Y-128864613D01*
X61622269Y-129636000D01*
X61775707Y-130407387D01*
X62108870Y-130906000D01*
X61775707Y-131404613D01*
X61622269Y-132176000D01*
X61775707Y-132947387D01*
X62108870Y-133446000D01*
X61775707Y-133944613D01*
X61622269Y-134716000D01*
X61775707Y-135487387D01*
X62212663Y-136141337D01*
X62505154Y-136336773D01*
X62366355Y-136489076D01*
X62196524Y-136899110D01*
X62317845Y-137129000D01*
X63511000Y-137129000D01*
X63511000Y-137109000D01*
X63765000Y-137109000D01*
X63765000Y-137129000D01*
X64958155Y-137129000D01*
X65079476Y-136899110D01*
X64909645Y-136489076D01*
X64770846Y-136336773D01*
X65063337Y-136141337D01*
X65500293Y-135487387D01*
X65653731Y-134716000D01*
X65500293Y-133944613D01*
X65167130Y-133446000D01*
X65500293Y-132947387D01*
X65653731Y-132176000D01*
X65500293Y-131404613D01*
X65167130Y-130906000D01*
X65500293Y-130407387D01*
X65653731Y-129636000D01*
X85222269Y-129636000D01*
X85375707Y-130407387D01*
X85708870Y-130906000D01*
X85375707Y-131404613D01*
X85222269Y-132176000D01*
X85375707Y-132947387D01*
X85708870Y-133446000D01*
X85375707Y-133944613D01*
X85222269Y-134716000D01*
X85375707Y-135487387D01*
X85812663Y-136141337D01*
X86105154Y-136336773D01*
X85966355Y-136489076D01*
X85796524Y-136899110D01*
X85917845Y-137129000D01*
X87111000Y-137129000D01*
X87111000Y-137109000D01*
X87365000Y-137109000D01*
X87365000Y-137129000D01*
X88558155Y-137129000D01*
X88679476Y-136899110D01*
X88509645Y-136489076D01*
X88370846Y-136336773D01*
X88663337Y-136141337D01*
X89000992Y-135636000D01*
X90948269Y-135636000D01*
X91101707Y-136407387D01*
X91538663Y-137061337D01*
X91831154Y-137256773D01*
X91692355Y-137409076D01*
X91522524Y-137819110D01*
X91643845Y-138049000D01*
X92837000Y-138049000D01*
X92837000Y-138029000D01*
X93091000Y-138029000D01*
X93091000Y-138049000D01*
X94284155Y-138049000D01*
X94405476Y-137819110D01*
X94235645Y-137409076D01*
X94096846Y-137256773D01*
X94389337Y-137061337D01*
X94826293Y-136407387D01*
X94979731Y-135636000D01*
X94826293Y-134864613D01*
X94690963Y-134662078D01*
X94875611Y-134385733D01*
X94963079Y-133946000D01*
X94963079Y-132246000D01*
X94875611Y-131806267D01*
X94626522Y-131433478D01*
X94253733Y-131184389D01*
X93814000Y-131096921D01*
X92114000Y-131096921D01*
X91674267Y-131184389D01*
X91301478Y-131433478D01*
X91052389Y-131806267D01*
X90964921Y-132246000D01*
X90964921Y-133946000D01*
X91052389Y-134385733D01*
X91237037Y-134662078D01*
X91101707Y-134864613D01*
X90948269Y-135636000D01*
X89000992Y-135636000D01*
X89100293Y-135487387D01*
X89253731Y-134716000D01*
X89100293Y-133944613D01*
X88767130Y-133446000D01*
X89100293Y-132947387D01*
X89253731Y-132176000D01*
X89100293Y-131404613D01*
X88767130Y-130906000D01*
X89100293Y-130407387D01*
X89253731Y-129636000D01*
X89100293Y-128864613D01*
X88663337Y-128210663D01*
X88370846Y-128015227D01*
X88509645Y-127862924D01*
X88679476Y-127452890D01*
X88558155Y-127223000D01*
X87365000Y-127223000D01*
X87365000Y-127243000D01*
X87111000Y-127243000D01*
X87111000Y-127223000D01*
X85917845Y-127223000D01*
X85796524Y-127452890D01*
X85966355Y-127862924D01*
X86105154Y-128015227D01*
X85812663Y-128210663D01*
X85375707Y-128864613D01*
X85222269Y-129636000D01*
X65653731Y-129636000D01*
X65500293Y-128864613D01*
X65167130Y-128366000D01*
X65500293Y-127867387D01*
X65653731Y-127096000D01*
X65500293Y-126324613D01*
X65167130Y-125826000D01*
X65500293Y-125327387D01*
X65653731Y-124556000D01*
X65500293Y-123784613D01*
X65167130Y-123286000D01*
X65500293Y-122787387D01*
X65653731Y-122016000D01*
X65500293Y-121244613D01*
X65063337Y-120590663D01*
X64770846Y-120395227D01*
X64909645Y-120242924D01*
X65079476Y-119832890D01*
X64958155Y-119603000D01*
X63765000Y-119603000D01*
X63765000Y-119623000D01*
X63511000Y-119623000D01*
X63511000Y-119603000D01*
X62317845Y-119603000D01*
X62196524Y-119832890D01*
X62366355Y-120242924D01*
X62505154Y-120395227D01*
X62212663Y-120590663D01*
X61775707Y-121244613D01*
X61622269Y-122016000D01*
X58842964Y-122016000D01*
X58895079Y-121754000D01*
X58895079Y-120054000D01*
X58807611Y-119614267D01*
X58558522Y-119241478D01*
X58185733Y-118992389D01*
X57746000Y-118904921D01*
X56046000Y-118904921D01*
X55606267Y-118992389D01*
X55233478Y-119241478D01*
X54984389Y-119614267D01*
X54896921Y-120054000D01*
X54896921Y-121754000D01*
X54984389Y-122193733D01*
X55169037Y-122470078D01*
X55033707Y-122672613D01*
X54880269Y-123444000D01*
X47156037Y-123444000D01*
X47241859Y-122782775D01*
X47717241Y-119125769D01*
X48166446Y-115677342D01*
X48332950Y-114402890D01*
X55454524Y-114402890D01*
X55624355Y-114812924D01*
X56014642Y-115241183D01*
X56539108Y-115487486D01*
X56769000Y-115366819D01*
X56769000Y-114173000D01*
X57023000Y-114173000D01*
X57023000Y-115366819D01*
X57252892Y-115487486D01*
X57777358Y-115241183D01*
X58167645Y-114812924D01*
X58337476Y-114402890D01*
X58216155Y-114173000D01*
X57023000Y-114173000D01*
X56769000Y-114173000D01*
X55575845Y-114173000D01*
X55454524Y-114402890D01*
X48332950Y-114402890D01*
X48573983Y-112557991D01*
X48712043Y-111506000D01*
X54880269Y-111506000D01*
X55033707Y-112277387D01*
X55470663Y-112931337D01*
X55763154Y-113126773D01*
X55624355Y-113279076D01*
X55454524Y-113689110D01*
X55575845Y-113919000D01*
X56769000Y-113919000D01*
X56769000Y-113899000D01*
X57023000Y-113899000D01*
X57023000Y-113919000D01*
X58216155Y-113919000D01*
X58337476Y-113689110D01*
X58167645Y-113279076D01*
X58028846Y-113126773D01*
X58321337Y-112931337D01*
X58758293Y-112277387D01*
X58911731Y-111506000D01*
X58758293Y-110734613D01*
X58622963Y-110532078D01*
X58807611Y-110255733D01*
X58895079Y-109816000D01*
X58895079Y-108116000D01*
X58807611Y-107676267D01*
X58558522Y-107303478D01*
X58185733Y-107054389D01*
X57746000Y-106966921D01*
X56046000Y-106966921D01*
X55606267Y-107054389D01*
X55233478Y-107303478D01*
X54984389Y-107676267D01*
X54896921Y-108116000D01*
X54896921Y-109816000D01*
X54984389Y-110255733D01*
X55169037Y-110532078D01*
X55033707Y-110734613D01*
X54880269Y-111506000D01*
X48712043Y-111506000D01*
X48926118Y-109874800D01*
X49207343Y-107748348D01*
X49338034Y-106776000D01*
X61622269Y-106776000D01*
X61775707Y-107547387D01*
X62108870Y-108046000D01*
X61775707Y-108544613D01*
X61622269Y-109316000D01*
X61775707Y-110087387D01*
X62108870Y-110586000D01*
X61775707Y-111084613D01*
X61622269Y-111856000D01*
X61775707Y-112627387D01*
X62108870Y-113126000D01*
X61775707Y-113624613D01*
X61622269Y-114396000D01*
X61775707Y-115167387D01*
X62108870Y-115666000D01*
X61775707Y-116164613D01*
X61622269Y-116936000D01*
X61775707Y-117707387D01*
X62212663Y-118361337D01*
X62505154Y-118556773D01*
X62366355Y-118709076D01*
X62196524Y-119119110D01*
X62317845Y-119349000D01*
X63511000Y-119349000D01*
X63511000Y-119329000D01*
X63765000Y-119329000D01*
X63765000Y-119349000D01*
X64958155Y-119349000D01*
X65079476Y-119119110D01*
X64909645Y-118709076D01*
X64770846Y-118556773D01*
X65063337Y-118361337D01*
X65500293Y-117707387D01*
X65653731Y-116936000D01*
X65500293Y-116164613D01*
X65167130Y-115666000D01*
X65500293Y-115167387D01*
X65653731Y-114396000D01*
X65500293Y-113624613D01*
X65167130Y-113126000D01*
X65500293Y-112627387D01*
X65653731Y-111856000D01*
X65500293Y-111084613D01*
X65167130Y-110586000D01*
X65500293Y-110087387D01*
X65653731Y-109316000D01*
X65500293Y-108544613D01*
X65167130Y-108046000D01*
X65500293Y-107547387D01*
X65653731Y-106776000D01*
X85222269Y-106776000D01*
X85375707Y-107547387D01*
X85708870Y-108046000D01*
X85375707Y-108544613D01*
X85222269Y-109316000D01*
X85375707Y-110087387D01*
X85708870Y-110586000D01*
X85375707Y-111084613D01*
X85222269Y-111856000D01*
X85375707Y-112627387D01*
X85708870Y-113126000D01*
X85375707Y-113624613D01*
X85222269Y-114396000D01*
X85375707Y-115167387D01*
X85708870Y-115666000D01*
X85375707Y-116164613D01*
X85222269Y-116936000D01*
X85375707Y-117707387D01*
X85708870Y-118206000D01*
X85375707Y-118704613D01*
X85222269Y-119476000D01*
X85375707Y-120247387D01*
X85708870Y-120746000D01*
X85375707Y-121244613D01*
X85222269Y-122016000D01*
X85375707Y-122787387D01*
X85708870Y-123286000D01*
X85375707Y-123784613D01*
X85222269Y-124556000D01*
X85375707Y-125327387D01*
X85812663Y-125981337D01*
X86105154Y-126176773D01*
X85966355Y-126329076D01*
X85796524Y-126739110D01*
X85917845Y-126969000D01*
X87111000Y-126969000D01*
X87111000Y-126949000D01*
X87365000Y-126949000D01*
X87365000Y-126969000D01*
X88558155Y-126969000D01*
X88679476Y-126739110D01*
X88509645Y-126329076D01*
X88370846Y-126176773D01*
X88663337Y-125981337D01*
X89100293Y-125327387D01*
X89253731Y-124556000D01*
X89100293Y-123784613D01*
X88767130Y-123286000D01*
X89100293Y-122787387D01*
X89253731Y-122016000D01*
X89100293Y-121244613D01*
X88767130Y-120746000D01*
X89100293Y-120247387D01*
X89253731Y-119476000D01*
X89100293Y-118704613D01*
X88767130Y-118206000D01*
X89100293Y-117707387D01*
X89253731Y-116936000D01*
X89100293Y-116164613D01*
X88767130Y-115666000D01*
X89100293Y-115167387D01*
X89253731Y-114396000D01*
X89100293Y-113624613D01*
X88767130Y-113126000D01*
X89100293Y-112627387D01*
X89253731Y-111856000D01*
X89100293Y-111084613D01*
X88767130Y-110586000D01*
X89100293Y-110087387D01*
X89253731Y-109316000D01*
X89100293Y-108544613D01*
X88767130Y-108046000D01*
X89100293Y-107547387D01*
X89253731Y-106776000D01*
X89100293Y-106004613D01*
X88964963Y-105802078D01*
X89149611Y-105525733D01*
X89237079Y-105086000D01*
X89237079Y-103386000D01*
X89149611Y-102946267D01*
X88900522Y-102573478D01*
X88527733Y-102324389D01*
X88088000Y-102236921D01*
X86388000Y-102236921D01*
X85948267Y-102324389D01*
X85575478Y-102573478D01*
X85326389Y-102946267D01*
X85238921Y-103386000D01*
X85238921Y-105086000D01*
X85326389Y-105525733D01*
X85511037Y-105802078D01*
X85375707Y-106004613D01*
X85222269Y-106776000D01*
X65653731Y-106776000D01*
X65500293Y-106004613D01*
X65364963Y-105802078D01*
X65549611Y-105525733D01*
X65637079Y-105086000D01*
X65637079Y-103386000D01*
X65549611Y-102946267D01*
X65300522Y-102573478D01*
X64927733Y-102324389D01*
X64488000Y-102236921D01*
X62788000Y-102236921D01*
X62348267Y-102324389D01*
X61975478Y-102573478D01*
X61726389Y-102946267D01*
X61638921Y-103386000D01*
X61638921Y-105086000D01*
X61726389Y-105525733D01*
X61911037Y-105802078D01*
X61775707Y-106004613D01*
X61622269Y-106776000D01*
X49338034Y-106776000D01*
X49403009Y-106292587D01*
X49488406Y-105691864D01*
X49786674Y-104596729D01*
X50975909Y-104060869D01*
X51885894Y-103762039D01*
X54063673Y-103082258D01*
X56960262Y-102190852D01*
X56981675Y-102192143D01*
X57191484Y-102119695D01*
X57286570Y-102090433D01*
X57304943Y-102080517D01*
X57440485Y-102033714D01*
X57516506Y-101966339D01*
X57605902Y-101918092D01*
X57696427Y-101806878D01*
X57803742Y-101711767D01*
X57848193Y-101620427D01*
X57912320Y-101541644D01*
X57953395Y-101404252D01*
X57962529Y-101385483D01*
X57987768Y-101289277D01*
X58051354Y-101076589D01*
X58049165Y-101055247D01*
X58427166Y-99614399D01*
X59004849Y-97791737D01*
X59739396Y-95851740D01*
X60635400Y-93873617D01*
X61695905Y-91936137D01*
X62921612Y-90117293D01*
X64310262Y-88492757D01*
X65857301Y-87132622D01*
X67560601Y-86097001D01*
X69431086Y-85435696D01*
X71410413Y-85210657D01*
X72754020Y-85568272D01*
G04 #@! TD*
M02*
