G04 #@! TF.GenerationSoftware,KiCad,Pcbnew,(5.0.0-3-g5ebb6b6)*
G04 #@! TF.CreationDate,2018-09-06T10:07:47-04:00*
G04 #@! TF.ProjectId,PCB,5043422E6B696361645F706362000000,rev?*
G04 #@! TF.SameCoordinates,Original*
G04 #@! TF.FileFunction,Profile,NP*
%FSLAX46Y46*%
G04 Gerber Fmt 4.6, Leading zero omitted, Abs format (unit mm)*
G04 Created by KiCad (PCBNEW (5.0.0-3-g5ebb6b6)) date Thursday, September 06, 2018 at 10:07:47 AM*
%MOMM*%
%LPD*%
G01*
G04 APERTURE LIST*
G04 #@! TA.AperFunction,NonConductor*
%ADD10C,0.186235*%
G04 #@! TD*
G04 APERTURE END LIST*
D10*
G04 #@! TO.C,svg2mod*
X96793100Y-97966817D02*
X96730231Y-97539745D01*
X96957346Y-99079311D02*
X96793100Y-97966817D01*
X97211658Y-100800741D02*
X96957346Y-99079311D01*
X97544726Y-103054623D02*
X97211658Y-100800741D01*
X97945239Y-105764471D02*
X97544726Y-103054623D01*
X98401885Y-108853800D02*
X97945239Y-105764471D01*
X98903355Y-112246126D02*
X98401885Y-108853800D01*
X99438336Y-115864964D02*
X98903355Y-112246126D01*
X99995519Y-119633828D02*
X99438336Y-115864964D01*
X100563592Y-123476234D02*
X99995519Y-119633828D01*
X101131244Y-127315696D02*
X100563592Y-123476234D01*
X101687165Y-131075730D02*
X101131244Y-127315696D01*
X102220044Y-134679851D02*
X101687165Y-131075730D01*
X102718570Y-138051573D02*
X102220044Y-134679851D01*
X103171432Y-141114412D02*
X102718570Y-138051573D01*
X103567319Y-143791884D02*
X103171432Y-141114412D01*
X103894920Y-146007502D02*
X103567319Y-143791884D01*
X104142925Y-147684782D02*
X103894920Y-146007502D01*
X104300023Y-148747239D02*
X104142925Y-147684782D01*
X104354902Y-149118388D02*
X104300023Y-148747239D01*
X82770360Y-153771681D02*
X104354902Y-149118388D01*
X42965098Y-146315201D02*
X82770360Y-153771681D01*
X43022448Y-145870989D02*
X42965098Y-146315201D01*
X43184754Y-144614236D02*
X43022448Y-145870989D01*
X43437396Y-142658766D02*
X43184754Y-144614236D01*
X43765758Y-140118405D02*
X43437396Y-142658766D01*
X44155221Y-137106977D02*
X43765758Y-140118405D01*
X44591165Y-133738307D02*
X44155221Y-137106977D01*
X45058975Y-130126220D02*
X44591165Y-133738307D01*
X45544030Y-126384540D02*
X45058975Y-130126220D01*
X46031714Y-122627092D02*
X45544030Y-126384540D01*
X46507407Y-118967701D02*
X46031714Y-122627092D01*
X46956492Y-115520192D02*
X46507407Y-118967701D01*
X47364350Y-112398388D02*
X46956492Y-115520192D01*
X47716364Y-109716116D02*
X47364350Y-112398388D01*
X47997914Y-107587200D02*
X47716364Y-109716116D01*
X48194384Y-106125463D02*
X47997914Y-107587200D01*
X48291154Y-105444732D02*
X48194384Y-106125463D01*
X48760688Y-103720772D02*
X48291154Y-105444732D01*
X50533704Y-102921864D02*
X48760688Y-103720772D01*
X51513781Y-102600016D02*
X50533704Y-102921864D01*
X53702344Y-101916869D02*
X51513781Y-102600016D01*
X56812844Y-100959633D02*
X53702344Y-101916869D01*
X57254783Y-99275067D02*
X56812844Y-100959633D01*
X57851897Y-97391098D02*
X57254783Y-99275067D01*
X58612022Y-95383544D02*
X57851897Y-97391098D01*
X59542992Y-93328225D02*
X58612022Y-95383544D01*
X60652642Y-91300958D02*
X59542992Y-93328225D01*
X61948805Y-89377563D02*
X60652642Y-91300958D01*
X63439318Y-87633859D02*
X61948805Y-89377563D01*
X65132014Y-86145663D02*
X63439318Y-87633859D01*
X67034727Y-84988796D02*
X65132014Y-86145663D01*
X69155294Y-84239075D02*
X67034727Y-84988796D01*
X71501547Y-83972319D02*
X69155294Y-84239075D01*
X73344642Y-84462877D02*
X71501547Y-83972319D01*
X75145688Y-86046678D02*
X73344642Y-84462877D01*
X75482069Y-86046678D02*
X75145688Y-86046678D01*
X77607111Y-86419390D02*
X75482069Y-86046678D01*
X79363477Y-87440647D02*
X77607111Y-86419390D01*
X80786151Y-88965132D02*
X79363477Y-87440647D01*
X81910117Y-90847528D02*
X80786151Y-88965132D01*
X82770360Y-92942518D02*
X81910117Y-90847528D01*
X84844716Y-92325817D02*
X82770360Y-92942518D01*
X86358440Y-92494008D02*
X84844716Y-92325817D01*
X87633369Y-93729487D02*
X86358440Y-92494008D01*
X89531230Y-95612813D02*
X87633369Y-93729487D01*
X90507155Y-96586661D02*
X89531230Y-95612813D01*
X91898366Y-96688406D02*
X90507155Y-96586661D01*
X94535438Y-96877362D02*
X91898366Y-96688406D01*
X96113528Y-96979107D02*
X94535438Y-96877362D01*
X96730231Y-97539745D02*
X96113528Y-96979107D01*
G04 #@! TD*
M02*
