G04 #@! TF.GenerationSoftware,KiCad,Pcbnew,(5.0.0-3-g5ebb6b6)*
G04 #@! TF.CreationDate,2018-09-06T10:07:47-04:00*
G04 #@! TF.ProjectId,PCB,5043422E6B696361645F706362000000,rev?*
G04 #@! TF.SameCoordinates,Original*
G04 #@! TF.FileFunction,Legend,Bot*
G04 #@! TF.FilePolarity,Positive*
%FSLAX46Y46*%
G04 Gerber Fmt 4.6, Leading zero omitted, Abs format (unit mm)*
G04 Created by KiCad (PCBNEW (5.0.0-3-g5ebb6b6)) date Thursday, September 06, 2018 at 10:07:47 AM*
%MOMM*%
%LPD*%
G01*
G04 APERTURE LIST*
%ADD10C,0.250000*%
%ADD11C,0.150000*%
%ADD12C,0.120000*%
%ADD13O,1.700000X1.700000*%
%ADD14R,1.700000X1.700000*%
G04 APERTURE END LIST*
D10*
X91503333Y-132421380D02*
X91170000Y-133421380D01*
X90836666Y-132421380D01*
X89931904Y-133326142D02*
X89979523Y-133373761D01*
X90122380Y-133421380D01*
X90217619Y-133421380D01*
X90360476Y-133373761D01*
X90455714Y-133278523D01*
X90503333Y-133183285D01*
X90550952Y-132992809D01*
X90550952Y-132849952D01*
X90503333Y-132659476D01*
X90455714Y-132564238D01*
X90360476Y-132469000D01*
X90217619Y-132421380D01*
X90122380Y-132421380D01*
X89979523Y-132469000D01*
X89931904Y-132516619D01*
X88931904Y-133326142D02*
X88979523Y-133373761D01*
X89122380Y-133421380D01*
X89217619Y-133421380D01*
X89360476Y-133373761D01*
X89455714Y-133278523D01*
X89503333Y-133183285D01*
X89550952Y-132992809D01*
X89550952Y-132849952D01*
X89503333Y-132659476D01*
X89455714Y-132564238D01*
X89360476Y-132469000D01*
X89217619Y-132421380D01*
X89122380Y-132421380D01*
X88979523Y-132469000D01*
X88931904Y-132516619D01*
X90931904Y-137803000D02*
X91027142Y-137755380D01*
X91170000Y-137755380D01*
X91312857Y-137803000D01*
X91408095Y-137898238D01*
X91455714Y-137993476D01*
X91503333Y-138183952D01*
X91503333Y-138326809D01*
X91455714Y-138517285D01*
X91408095Y-138612523D01*
X91312857Y-138707761D01*
X91170000Y-138755380D01*
X91074761Y-138755380D01*
X90931904Y-138707761D01*
X90884285Y-138660142D01*
X90884285Y-138326809D01*
X91074761Y-138326809D01*
X90455714Y-138755380D02*
X90455714Y-137755380D01*
X89884285Y-138755380D01*
X89884285Y-137755380D01*
X89408095Y-138755380D02*
X89408095Y-137755380D01*
X89170000Y-137755380D01*
X89027142Y-137803000D01*
X88931904Y-137898238D01*
X88884285Y-137993476D01*
X88836666Y-138183952D01*
X88836666Y-138326809D01*
X88884285Y-138517285D01*
X88931904Y-138612523D01*
X89027142Y-138707761D01*
X89170000Y-138755380D01*
X89408095Y-138755380D01*
X91003333Y-135691571D02*
X91336666Y-135691571D01*
X91336666Y-136215380D02*
X91336666Y-135215380D01*
X90860476Y-135215380D01*
X90003333Y-136215380D02*
X90479523Y-136215380D01*
X90479523Y-135215380D01*
X89765238Y-135215380D02*
X89527142Y-136215380D01*
X89336666Y-135501095D01*
X89146190Y-136215380D01*
X88908095Y-135215380D01*
X61158333Y-134421571D02*
X61491666Y-134421571D01*
X61491666Y-134945380D02*
X61491666Y-133945380D01*
X61015476Y-133945380D01*
X60158333Y-134945380D02*
X60634523Y-134945380D01*
X60634523Y-133945380D01*
X59920238Y-133945380D02*
X59682142Y-134945380D01*
X59491666Y-134231095D01*
X59301190Y-134945380D01*
X59063095Y-133945380D01*
X61086904Y-136533000D02*
X61182142Y-136485380D01*
X61325000Y-136485380D01*
X61467857Y-136533000D01*
X61563095Y-136628238D01*
X61610714Y-136723476D01*
X61658333Y-136913952D01*
X61658333Y-137056809D01*
X61610714Y-137247285D01*
X61563095Y-137342523D01*
X61467857Y-137437761D01*
X61325000Y-137485380D01*
X61229761Y-137485380D01*
X61086904Y-137437761D01*
X61039285Y-137390142D01*
X61039285Y-137056809D01*
X61229761Y-137056809D01*
X60610714Y-137485380D02*
X60610714Y-136485380D01*
X60039285Y-137485380D01*
X60039285Y-136485380D01*
X59563095Y-137485380D02*
X59563095Y-136485380D01*
X59325000Y-136485380D01*
X59182142Y-136533000D01*
X59086904Y-136628238D01*
X59039285Y-136723476D01*
X58991666Y-136913952D01*
X58991666Y-137056809D01*
X59039285Y-137247285D01*
X59086904Y-137342523D01*
X59182142Y-137437761D01*
X59325000Y-137485380D01*
X59563095Y-137485380D01*
X61658333Y-131151380D02*
X61325000Y-132151380D01*
X60991666Y-131151380D01*
X60086904Y-132056142D02*
X60134523Y-132103761D01*
X60277380Y-132151380D01*
X60372619Y-132151380D01*
X60515476Y-132103761D01*
X60610714Y-132008523D01*
X60658333Y-131913285D01*
X60705952Y-131722809D01*
X60705952Y-131579952D01*
X60658333Y-131389476D01*
X60610714Y-131294238D01*
X60515476Y-131199000D01*
X60372619Y-131151380D01*
X60277380Y-131151380D01*
X60134523Y-131199000D01*
X60086904Y-131246619D01*
X59086904Y-132056142D02*
X59134523Y-132103761D01*
X59277380Y-132151380D01*
X59372619Y-132151380D01*
X59515476Y-132103761D01*
X59610714Y-132008523D01*
X59658333Y-131913285D01*
X59705952Y-131722809D01*
X59705952Y-131579952D01*
X59658333Y-131389476D01*
X59610714Y-131294238D01*
X59515476Y-131199000D01*
X59372619Y-131151380D01*
X59277380Y-131151380D01*
X59134523Y-131199000D01*
X59086904Y-131246619D01*
X61285333Y-123499571D02*
X61618666Y-123499571D01*
X61618666Y-124023380D02*
X61618666Y-123023380D01*
X61142476Y-123023380D01*
X60285333Y-124023380D02*
X60761523Y-124023380D01*
X60761523Y-123023380D01*
X60047238Y-123023380D02*
X59809142Y-124023380D01*
X59618666Y-123309095D01*
X59428190Y-124023380D01*
X59190095Y-123023380D01*
X61213904Y-125611000D02*
X61309142Y-125563380D01*
X61452000Y-125563380D01*
X61594857Y-125611000D01*
X61690095Y-125706238D01*
X61737714Y-125801476D01*
X61785333Y-125991952D01*
X61785333Y-126134809D01*
X61737714Y-126325285D01*
X61690095Y-126420523D01*
X61594857Y-126515761D01*
X61452000Y-126563380D01*
X61356761Y-126563380D01*
X61213904Y-126515761D01*
X61166285Y-126468142D01*
X61166285Y-126134809D01*
X61356761Y-126134809D01*
X60737714Y-126563380D02*
X60737714Y-125563380D01*
X60166285Y-126563380D01*
X60166285Y-125563380D01*
X59690095Y-126563380D02*
X59690095Y-125563380D01*
X59452000Y-125563380D01*
X59309142Y-125611000D01*
X59213904Y-125706238D01*
X59166285Y-125801476D01*
X59118666Y-125991952D01*
X59118666Y-126134809D01*
X59166285Y-126325285D01*
X59213904Y-126420523D01*
X59309142Y-126515761D01*
X59452000Y-126563380D01*
X59690095Y-126563380D01*
X61785333Y-120229380D02*
X61452000Y-121229380D01*
X61118666Y-120229380D01*
X60213904Y-121134142D02*
X60261523Y-121181761D01*
X60404380Y-121229380D01*
X60499619Y-121229380D01*
X60642476Y-121181761D01*
X60737714Y-121086523D01*
X60785333Y-120991285D01*
X60832952Y-120800809D01*
X60832952Y-120657952D01*
X60785333Y-120467476D01*
X60737714Y-120372238D01*
X60642476Y-120277000D01*
X60499619Y-120229380D01*
X60404380Y-120229380D01*
X60261523Y-120277000D01*
X60213904Y-120324619D01*
X59213904Y-121134142D02*
X59261523Y-121181761D01*
X59404380Y-121229380D01*
X59499619Y-121229380D01*
X59642476Y-121181761D01*
X59737714Y-121086523D01*
X59785333Y-120991285D01*
X59832952Y-120800809D01*
X59832952Y-120657952D01*
X59785333Y-120467476D01*
X59737714Y-120372238D01*
X59642476Y-120277000D01*
X59499619Y-120229380D01*
X59404380Y-120229380D01*
X59261523Y-120277000D01*
X59213904Y-120324619D01*
X60959904Y-113800000D02*
X61055142Y-113752380D01*
X61198000Y-113752380D01*
X61340857Y-113800000D01*
X61436095Y-113895238D01*
X61483714Y-113990476D01*
X61531333Y-114180952D01*
X61531333Y-114323809D01*
X61483714Y-114514285D01*
X61436095Y-114609523D01*
X61340857Y-114704761D01*
X61198000Y-114752380D01*
X61102761Y-114752380D01*
X60959904Y-114704761D01*
X60912285Y-114657142D01*
X60912285Y-114323809D01*
X61102761Y-114323809D01*
X60483714Y-114752380D02*
X60483714Y-113752380D01*
X59912285Y-114752380D01*
X59912285Y-113752380D01*
X59436095Y-114752380D02*
X59436095Y-113752380D01*
X59198000Y-113752380D01*
X59055142Y-113800000D01*
X58959904Y-113895238D01*
X58912285Y-113990476D01*
X58864666Y-114180952D01*
X58864666Y-114323809D01*
X58912285Y-114514285D01*
X58959904Y-114609523D01*
X59055142Y-114704761D01*
X59198000Y-114752380D01*
X59436095Y-114752380D01*
X61031333Y-111688571D02*
X61364666Y-111688571D01*
X61364666Y-112212380D02*
X61364666Y-111212380D01*
X60888476Y-111212380D01*
X60031333Y-112212380D02*
X60507523Y-112212380D01*
X60507523Y-111212380D01*
X59793238Y-111212380D02*
X59555142Y-112212380D01*
X59364666Y-111498095D01*
X59174190Y-112212380D01*
X58936095Y-111212380D01*
X61531333Y-108418380D02*
X61198000Y-109418380D01*
X60864666Y-108418380D01*
X59959904Y-109323142D02*
X60007523Y-109370761D01*
X60150380Y-109418380D01*
X60245619Y-109418380D01*
X60388476Y-109370761D01*
X60483714Y-109275523D01*
X60531333Y-109180285D01*
X60578952Y-108989809D01*
X60578952Y-108846952D01*
X60531333Y-108656476D01*
X60483714Y-108561238D01*
X60388476Y-108466000D01*
X60245619Y-108418380D01*
X60150380Y-108418380D01*
X60007523Y-108466000D01*
X59959904Y-108513619D01*
X58959904Y-109323142D02*
X59007523Y-109370761D01*
X59150380Y-109418380D01*
X59245619Y-109418380D01*
X59388476Y-109370761D01*
X59483714Y-109275523D01*
X59531333Y-109180285D01*
X59578952Y-108989809D01*
X59578952Y-108846952D01*
X59531333Y-108656476D01*
X59483714Y-108561238D01*
X59388476Y-108466000D01*
X59245619Y-108418380D01*
X59150380Y-108418380D01*
X59007523Y-108466000D01*
X58959904Y-108513619D01*
D11*
G04 #@! TO.C,U1*
X71938000Y-107536000D02*
X78038000Y-107536000D01*
X71938000Y-107636000D02*
X71938000Y-107536000D01*
X71938000Y-115936000D02*
X71938000Y-107636000D01*
X79038000Y-115936000D02*
X71938000Y-115936000D01*
X79038000Y-114436000D02*
X79038000Y-115936000D01*
X79038000Y-107536000D02*
X79038000Y-114436000D01*
X78038000Y-107536000D02*
X79038000Y-107536000D01*
X78038000Y-104836000D02*
X78038000Y-107536000D01*
X77038000Y-104836000D02*
X78038000Y-104836000D01*
X77038000Y-106936000D02*
X77038000Y-104836000D01*
X76038000Y-106936000D02*
X77038000Y-106936000D01*
X76038000Y-104836000D02*
X76038000Y-106936000D01*
X75038000Y-104836000D02*
X76038000Y-104836000D01*
X75038000Y-106936000D02*
X75038000Y-104836000D01*
X74138000Y-106936000D02*
X75038000Y-106936000D01*
X74138000Y-104836000D02*
X74138000Y-106936000D01*
X72038000Y-104836000D02*
X74138000Y-104836000D01*
X71038000Y-103836000D02*
X80038000Y-103836000D01*
X71038000Y-116836000D02*
X71038000Y-103836000D01*
X80038000Y-116836000D02*
X71038000Y-116836000D01*
X80038000Y-112936000D02*
X80038000Y-116836000D01*
X80038000Y-103936000D02*
X80038000Y-112936000D01*
X79638000Y-137636000D02*
X79638000Y-140736000D01*
X72538000Y-137636000D02*
X79638000Y-137636000D01*
X72538000Y-140736000D02*
X72538000Y-137636000D01*
X79538000Y-140736000D02*
X72538000Y-140736000D01*
D12*
X64968000Y-141126000D02*
X62308000Y-141126000D01*
X64968000Y-102906000D02*
X63638000Y-102906000D01*
X64968000Y-105506000D02*
X64968000Y-141126000D01*
X62308000Y-105506000D02*
X62308000Y-141126000D01*
X64968000Y-105506000D02*
X62308000Y-105506000D01*
X64968000Y-104236000D02*
X64968000Y-102906000D01*
X88568000Y-141126000D02*
X85908000Y-141126000D01*
X88568000Y-105506000D02*
X88568000Y-141126000D01*
X85908000Y-105506000D02*
X85908000Y-141126000D01*
X88568000Y-105506000D02*
X85908000Y-105506000D01*
X88568000Y-104236000D02*
X88568000Y-102906000D01*
X88568000Y-102906000D02*
X87238000Y-102906000D01*
G04 #@! TO.C,J1*
X58226000Y-107636000D02*
X56896000Y-107636000D01*
X58226000Y-108966000D02*
X58226000Y-107636000D01*
X58226000Y-110236000D02*
X55566000Y-110236000D01*
X55566000Y-110236000D02*
X55566000Y-115376000D01*
X58226000Y-110236000D02*
X58226000Y-115376000D01*
X58226000Y-115376000D02*
X55566000Y-115376000D01*
G04 #@! TO.C,J2*
X58226000Y-119574000D02*
X56896000Y-119574000D01*
X58226000Y-120904000D02*
X58226000Y-119574000D01*
X58226000Y-122174000D02*
X55566000Y-122174000D01*
X55566000Y-122174000D02*
X55566000Y-127314000D01*
X58226000Y-122174000D02*
X58226000Y-127314000D01*
X58226000Y-127314000D02*
X55566000Y-127314000D01*
G04 #@! TO.C,J3*
X58226000Y-138236000D02*
X55566000Y-138236000D01*
X58226000Y-133096000D02*
X58226000Y-138236000D01*
X55566000Y-133096000D02*
X55566000Y-138236000D01*
X58226000Y-133096000D02*
X55566000Y-133096000D01*
X58226000Y-131826000D02*
X58226000Y-130496000D01*
X58226000Y-130496000D02*
X56896000Y-130496000D01*
G04 #@! TO.C,J4*
X94294000Y-139506000D02*
X91634000Y-139506000D01*
X94294000Y-134366000D02*
X94294000Y-139506000D01*
X91634000Y-134366000D02*
X91634000Y-139506000D01*
X94294000Y-134366000D02*
X91634000Y-134366000D01*
X94294000Y-133096000D02*
X94294000Y-131766000D01*
X94294000Y-131766000D02*
X92964000Y-131766000D01*
G04 #@! TO.C,U1*
D11*
X87699904Y-101358380D02*
X87699904Y-102167904D01*
X87652285Y-102263142D01*
X87604666Y-102310761D01*
X87509428Y-102358380D01*
X87318952Y-102358380D01*
X87223714Y-102310761D01*
X87176095Y-102263142D01*
X87128476Y-102167904D01*
X87128476Y-101358380D01*
X86128476Y-102358380D02*
X86699904Y-102358380D01*
X86414190Y-102358380D02*
X86414190Y-101358380D01*
X86509428Y-101501238D01*
X86604666Y-101596476D01*
X86699904Y-101644095D01*
X75266571Y-108740761D02*
X75266571Y-109074095D01*
X75790380Y-109216952D02*
X75790380Y-108740761D01*
X74790380Y-108740761D01*
X74790380Y-109216952D01*
X75742761Y-109597904D02*
X75790380Y-109740761D01*
X75790380Y-109978857D01*
X75742761Y-110074095D01*
X75695142Y-110121714D01*
X75599904Y-110169333D01*
X75504666Y-110169333D01*
X75409428Y-110121714D01*
X75361809Y-110074095D01*
X75314190Y-109978857D01*
X75266571Y-109788380D01*
X75218952Y-109693142D01*
X75171333Y-109645523D01*
X75076095Y-109597904D01*
X74980857Y-109597904D01*
X74885619Y-109645523D01*
X74838000Y-109693142D01*
X74790380Y-109788380D01*
X74790380Y-110026476D01*
X74838000Y-110169333D01*
X75790380Y-110597904D02*
X74790380Y-110597904D01*
X74790380Y-110978857D01*
X74838000Y-111074095D01*
X74885619Y-111121714D01*
X74980857Y-111169333D01*
X75123714Y-111169333D01*
X75218952Y-111121714D01*
X75266571Y-111074095D01*
X75314190Y-110978857D01*
X75314190Y-110597904D01*
X75218952Y-111740761D02*
X75171333Y-111645523D01*
X75123714Y-111597904D01*
X75028476Y-111550285D01*
X74980857Y-111550285D01*
X74885619Y-111597904D01*
X74838000Y-111645523D01*
X74790380Y-111740761D01*
X74790380Y-111931238D01*
X74838000Y-112026476D01*
X74885619Y-112074095D01*
X74980857Y-112121714D01*
X75028476Y-112121714D01*
X75123714Y-112074095D01*
X75171333Y-112026476D01*
X75218952Y-111931238D01*
X75218952Y-111740761D01*
X75266571Y-111645523D01*
X75314190Y-111597904D01*
X75409428Y-111550285D01*
X75599904Y-111550285D01*
X75695142Y-111597904D01*
X75742761Y-111645523D01*
X75790380Y-111740761D01*
X75790380Y-111931238D01*
X75742761Y-112026476D01*
X75695142Y-112074095D01*
X75599904Y-112121714D01*
X75409428Y-112121714D01*
X75314190Y-112074095D01*
X75266571Y-112026476D01*
X75218952Y-111931238D01*
X74885619Y-112502666D02*
X74838000Y-112550285D01*
X74790380Y-112645523D01*
X74790380Y-112883619D01*
X74838000Y-112978857D01*
X74885619Y-113026476D01*
X74980857Y-113074095D01*
X75076095Y-113074095D01*
X75218952Y-113026476D01*
X75790380Y-112455047D01*
X75790380Y-113074095D01*
X74790380Y-113931238D02*
X74790380Y-113740761D01*
X74838000Y-113645523D01*
X74885619Y-113597904D01*
X75028476Y-113502666D01*
X75218952Y-113455047D01*
X75599904Y-113455047D01*
X75695142Y-113502666D01*
X75742761Y-113550285D01*
X75790380Y-113645523D01*
X75790380Y-113836000D01*
X75742761Y-113931238D01*
X75695142Y-113978857D01*
X75599904Y-114026476D01*
X75361809Y-114026476D01*
X75266571Y-113978857D01*
X75218952Y-113931238D01*
X75171333Y-113836000D01*
X75171333Y-113645523D01*
X75218952Y-113550285D01*
X75266571Y-113502666D01*
X75361809Y-113455047D01*
X74790380Y-114883619D02*
X74790380Y-114693142D01*
X74838000Y-114597904D01*
X74885619Y-114550285D01*
X75028476Y-114455047D01*
X75218952Y-114407428D01*
X75599904Y-114407428D01*
X75695142Y-114455047D01*
X75742761Y-114502666D01*
X75790380Y-114597904D01*
X75790380Y-114788380D01*
X75742761Y-114883619D01*
X75695142Y-114931238D01*
X75599904Y-114978857D01*
X75361809Y-114978857D01*
X75266571Y-114931238D01*
X75218952Y-114883619D01*
X75171333Y-114788380D01*
X75171333Y-114597904D01*
X75218952Y-114502666D01*
X75266571Y-114455047D01*
X75361809Y-114407428D01*
X77499904Y-138688380D02*
X77499904Y-139497904D01*
X77452285Y-139593142D01*
X77404666Y-139640761D01*
X77309428Y-139688380D01*
X77118952Y-139688380D01*
X77023714Y-139640761D01*
X76976095Y-139593142D01*
X76928476Y-139497904D01*
X76928476Y-138688380D01*
X76499904Y-139640761D02*
X76357047Y-139688380D01*
X76118952Y-139688380D01*
X76023714Y-139640761D01*
X75976095Y-139593142D01*
X75928476Y-139497904D01*
X75928476Y-139402666D01*
X75976095Y-139307428D01*
X76023714Y-139259809D01*
X76118952Y-139212190D01*
X76309428Y-139164571D01*
X76404666Y-139116952D01*
X76452285Y-139069333D01*
X76499904Y-138974095D01*
X76499904Y-138878857D01*
X76452285Y-138783619D01*
X76404666Y-138736000D01*
X76309428Y-138688380D01*
X76071333Y-138688380D01*
X75928476Y-138736000D01*
X75166571Y-139164571D02*
X75023714Y-139212190D01*
X74976095Y-139259809D01*
X74928476Y-139355047D01*
X74928476Y-139497904D01*
X74976095Y-139593142D01*
X75023714Y-139640761D01*
X75118952Y-139688380D01*
X75499904Y-139688380D01*
X75499904Y-138688380D01*
X75166571Y-138688380D01*
X75071333Y-138736000D01*
X75023714Y-138783619D01*
X74976095Y-138878857D01*
X74976095Y-138974095D01*
X75023714Y-139069333D01*
X75071333Y-139116952D01*
X75166571Y-139164571D01*
X75499904Y-139164571D01*
G04 #@! TO.C,J1*
X57229333Y-106088380D02*
X57229333Y-106802666D01*
X57276952Y-106945523D01*
X57372190Y-107040761D01*
X57515047Y-107088380D01*
X57610285Y-107088380D01*
X56229333Y-107088380D02*
X56800761Y-107088380D01*
X56515047Y-107088380D02*
X56515047Y-106088380D01*
X56610285Y-106231238D01*
X56705523Y-106326476D01*
X56800761Y-106374095D01*
G04 #@! TO.C,J2*
X57229333Y-118026380D02*
X57229333Y-118740666D01*
X57276952Y-118883523D01*
X57372190Y-118978761D01*
X57515047Y-119026380D01*
X57610285Y-119026380D01*
X56800761Y-118121619D02*
X56753142Y-118074000D01*
X56657904Y-118026380D01*
X56419809Y-118026380D01*
X56324571Y-118074000D01*
X56276952Y-118121619D01*
X56229333Y-118216857D01*
X56229333Y-118312095D01*
X56276952Y-118454952D01*
X56848380Y-119026380D01*
X56229333Y-119026380D01*
G04 #@! TO.C,J3*
X57229333Y-128948380D02*
X57229333Y-129662666D01*
X57276952Y-129805523D01*
X57372190Y-129900761D01*
X57515047Y-129948380D01*
X57610285Y-129948380D01*
X56848380Y-128948380D02*
X56229333Y-128948380D01*
X56562666Y-129329333D01*
X56419809Y-129329333D01*
X56324571Y-129376952D01*
X56276952Y-129424571D01*
X56229333Y-129519809D01*
X56229333Y-129757904D01*
X56276952Y-129853142D01*
X56324571Y-129900761D01*
X56419809Y-129948380D01*
X56705523Y-129948380D01*
X56800761Y-129900761D01*
X56848380Y-129853142D01*
G04 #@! TO.C,J4*
X93297333Y-130218380D02*
X93297333Y-130932666D01*
X93344952Y-131075523D01*
X93440190Y-131170761D01*
X93583047Y-131218380D01*
X93678285Y-131218380D01*
X92392571Y-130551714D02*
X92392571Y-131218380D01*
X92630666Y-130170761D02*
X92868761Y-130885047D01*
X92249714Y-130885047D01*
G04 #@! TD*
%LPC*%
D13*
G04 #@! TO.C,U1*
X63638000Y-116936000D03*
X63638000Y-119476000D03*
X63638000Y-122016000D03*
X63638000Y-124556000D03*
X63638000Y-139796000D03*
X63638000Y-111856000D03*
X63638000Y-114396000D03*
D14*
X63638000Y-104236000D03*
D13*
X63638000Y-106776000D03*
X63638000Y-109316000D03*
X63638000Y-127096000D03*
X63638000Y-129636000D03*
X63638000Y-132176000D03*
X63638000Y-134716000D03*
X63638000Y-137256000D03*
D14*
X87238000Y-104236000D03*
D13*
X87238000Y-106776000D03*
X87238000Y-109316000D03*
X87238000Y-111856000D03*
X87238000Y-114396000D03*
X87238000Y-116936000D03*
X87238000Y-119476000D03*
X87238000Y-122016000D03*
X87238000Y-124556000D03*
X87238000Y-127096000D03*
X87238000Y-129636000D03*
X87238000Y-132176000D03*
X87238000Y-134716000D03*
X87238000Y-137256000D03*
X87238000Y-139796000D03*
G04 #@! TD*
G04 #@! TO.C,J1*
X56896000Y-114046000D03*
X56896000Y-111506000D03*
D14*
X56896000Y-108966000D03*
G04 #@! TD*
D13*
G04 #@! TO.C,J2*
X56896000Y-125984000D03*
X56896000Y-123444000D03*
D14*
X56896000Y-120904000D03*
G04 #@! TD*
G04 #@! TO.C,J3*
X56896000Y-131826000D03*
D13*
X56896000Y-134366000D03*
X56896000Y-136906000D03*
G04 #@! TD*
D14*
G04 #@! TO.C,J4*
X92964000Y-133096000D03*
D13*
X92964000Y-135636000D03*
X92964000Y-138176000D03*
G04 #@! TD*
M02*
