G04 #@! TF.GenerationSoftware,KiCad,Pcbnew,(5.0.0-3-g5ebb6b6)*
G04 #@! TF.CreationDate,2018-09-06T10:07:47-04:00*
G04 #@! TF.ProjectId,PCB,5043422E6B696361645F706362000000,rev?*
G04 #@! TF.SameCoordinates,Original*
G04 #@! TF.FileFunction,Soldermask,Bot*
G04 #@! TF.FilePolarity,Negative*
%FSLAX46Y46*%
G04 Gerber Fmt 4.6, Leading zero omitted, Abs format (unit mm)*
G04 Created by KiCad (PCBNEW (5.0.0-3-g5ebb6b6)) date Thursday, September 06, 2018 at 10:07:47 AM*
%MOMM*%
%LPD*%
G01*
G04 APERTURE LIST*
%ADD10O,1.700000X1.700000*%
%ADD11R,1.700000X1.700000*%
G04 APERTURE END LIST*
D10*
G04 #@! TO.C,U1*
X63638000Y-116936000D03*
X63638000Y-119476000D03*
X63638000Y-122016000D03*
X63638000Y-124556000D03*
X63638000Y-139796000D03*
X63638000Y-111856000D03*
X63638000Y-114396000D03*
D11*
X63638000Y-104236000D03*
D10*
X63638000Y-106776000D03*
X63638000Y-109316000D03*
X63638000Y-127096000D03*
X63638000Y-129636000D03*
X63638000Y-132176000D03*
X63638000Y-134716000D03*
X63638000Y-137256000D03*
D11*
X87238000Y-104236000D03*
D10*
X87238000Y-106776000D03*
X87238000Y-109316000D03*
X87238000Y-111856000D03*
X87238000Y-114396000D03*
X87238000Y-116936000D03*
X87238000Y-119476000D03*
X87238000Y-122016000D03*
X87238000Y-124556000D03*
X87238000Y-127096000D03*
X87238000Y-129636000D03*
X87238000Y-132176000D03*
X87238000Y-134716000D03*
X87238000Y-137256000D03*
X87238000Y-139796000D03*
G04 #@! TD*
G04 #@! TO.C,J1*
X56896000Y-114046000D03*
X56896000Y-111506000D03*
D11*
X56896000Y-108966000D03*
G04 #@! TD*
D10*
G04 #@! TO.C,J2*
X56896000Y-125984000D03*
X56896000Y-123444000D03*
D11*
X56896000Y-120904000D03*
G04 #@! TD*
G04 #@! TO.C,J3*
X56896000Y-131826000D03*
D10*
X56896000Y-134366000D03*
X56896000Y-136906000D03*
G04 #@! TD*
D11*
G04 #@! TO.C,J4*
X92964000Y-133096000D03*
D10*
X92964000Y-135636000D03*
X92964000Y-138176000D03*
G04 #@! TD*
M02*
