G04 #@! TF.GenerationSoftware,KiCad,Pcbnew,(5.0.0-3-g5ebb6b6)*
G04 #@! TF.CreationDate,2018-09-06T10:07:47-04:00*
G04 #@! TF.ProjectId,PCB,5043422E6B696361645F706362000000,rev?*
G04 #@! TF.SameCoordinates,Original*
G04 #@! TF.FileFunction,Legend,Top*
G04 #@! TF.FilePolarity,Positive*
%FSLAX46Y46*%
G04 Gerber Fmt 4.6, Leading zero omitted, Abs format (unit mm)*
G04 Created by KiCad (PCBNEW (5.0.0-3-g5ebb6b6)) date Thursday, September 06, 2018 at 10:07:47 AM*
%MOMM*%
%LPD*%
G01*
G04 APERTURE LIST*
%ADD10C,0.100000*%
%ADD11O,1.700000X1.700000*%
%ADD12R,1.700000X1.700000*%
G04 APERTURE END LIST*
D10*
G04 #@! TO.C,svg2mod*
G36*
X77159812Y-93071888D02*
X76888928Y-90498768D01*
X76445124Y-88654780D01*
X76714142Y-88603129D01*
X78054391Y-89324553D01*
X79262158Y-90795980D01*
X80245639Y-92905565D01*
X80475167Y-93585036D01*
X79865162Y-93800012D01*
X78251322Y-94309431D01*
X77247488Y-94630478D01*
X77159812Y-93071888D01*
X77159812Y-93071888D01*
G37*
G36*
X68066612Y-96855464D02*
X68944803Y-94461196D01*
X70137763Y-92338660D01*
X71576513Y-90589337D01*
X73192077Y-89314710D01*
X74097823Y-89553889D01*
X74563033Y-91688787D01*
X74735563Y-94203228D01*
X74744819Y-95340667D01*
X71417519Y-96363801D01*
X69042137Y-97087064D01*
X68003491Y-97389231D01*
X68066615Y-96855464D01*
X68066612Y-96855464D01*
X68066612Y-96855464D01*
G37*
G36*
X59698450Y-99923973D02*
X60302198Y-98042836D01*
X61364780Y-95353549D01*
X62708462Y-92704187D01*
X64184728Y-90497077D01*
X65774108Y-88750162D01*
X67457130Y-87481387D01*
X69214323Y-86708696D01*
X71026214Y-86450033D01*
X72045169Y-86602198D01*
X72377061Y-86752740D01*
X71934259Y-86990548D01*
X70378275Y-88045407D01*
X68969579Y-89446523D01*
X67726332Y-91164536D01*
X66666693Y-93170082D01*
X65808820Y-95433800D01*
X65170873Y-97926328D01*
X65085687Y-98350218D01*
X64051916Y-98683094D01*
X61501766Y-99468973D01*
X59747866Y-99979428D01*
X59698451Y-99923976D01*
X59698450Y-99923973D01*
X59698450Y-99923973D01*
G37*
G36*
X75426007Y-108920685D02*
X72791011Y-116825673D01*
X72076717Y-116505902D01*
X70216231Y-115912042D01*
X67633146Y-115592271D01*
X64630621Y-116300335D01*
X63459512Y-117743457D01*
X63260174Y-118900031D01*
X63583175Y-120027766D01*
X64448818Y-121069675D01*
X65702061Y-122101894D01*
X67187866Y-123200559D01*
X68751191Y-124441805D01*
X70236996Y-125901770D01*
X71490239Y-127656588D01*
X72355882Y-129782396D01*
X72678883Y-132355329D01*
X72429293Y-135061590D01*
X71711906Y-137440294D01*
X70573796Y-139459079D01*
X69062036Y-141085582D01*
X67223701Y-142287438D01*
X65105864Y-143032285D01*
X62755600Y-143287759D01*
X59056290Y-142844631D01*
X56169680Y-141787942D01*
X54101152Y-140526732D01*
X52856088Y-139470042D01*
X52439871Y-139026915D01*
X54289974Y-132972031D01*
X55332345Y-133771458D01*
X57844831Y-135256109D01*
X60905496Y-136055536D01*
X63042927Y-135130485D01*
X63708684Y-133364477D01*
X63376243Y-131785275D01*
X62499809Y-130485954D01*
X61260713Y-129325916D01*
X59840285Y-128164565D01*
X58419858Y-126861302D01*
X57180761Y-125275530D01*
X56304327Y-123266652D01*
X55971887Y-120694071D01*
X56111654Y-118754266D01*
X56531627Y-116861554D01*
X57232817Y-115052937D01*
X58216231Y-113365419D01*
X59482879Y-111836000D01*
X61033770Y-110501683D01*
X62869914Y-109399470D01*
X64992319Y-108566362D01*
X67401995Y-108039363D01*
X70099951Y-107855474D01*
X73050565Y-108131640D01*
X74830070Y-108644519D01*
X75426007Y-108920685D01*
X75426007Y-108920685D01*
G37*
G04 #@! TD*
%LPC*%
G04 #@! TO.C,svg2mod*
G36*
X96113528Y-96979107D02*
X94535438Y-96877362D01*
X91898366Y-96688406D01*
X90507155Y-96586661D01*
X89531230Y-95612813D01*
X87633369Y-93729487D01*
X86358440Y-92494008D01*
X85797800Y-92213688D01*
X82770360Y-153771681D01*
X104354902Y-149118388D01*
X104300023Y-148747246D01*
X104142925Y-147684838D01*
X103894920Y-146007691D01*
X103567319Y-143792332D01*
X103171431Y-141115288D01*
X102718569Y-138053087D01*
X102220043Y-134682254D01*
X101687164Y-131079318D01*
X101131243Y-127320805D01*
X100563590Y-123483241D01*
X99995517Y-119643155D01*
X99438335Y-115877074D01*
X98903353Y-112261523D01*
X98401884Y-108873030D01*
X97945238Y-105788123D01*
X97544725Y-103083328D01*
X97211658Y-100835171D01*
X96957345Y-99120182D01*
X96793100Y-98014885D01*
X96730231Y-97595808D01*
X96113528Y-96979107D01*
X96113528Y-96979107D01*
G37*
G04 #@! TD*
D11*
G04 #@! TO.C,U1*
X63638000Y-116936000D03*
X63638000Y-119476000D03*
X63638000Y-122016000D03*
X63638000Y-124556000D03*
X63638000Y-139796000D03*
X63638000Y-111856000D03*
X63638000Y-114396000D03*
D12*
X63638000Y-104236000D03*
D11*
X63638000Y-106776000D03*
X63638000Y-109316000D03*
X63638000Y-127096000D03*
X63638000Y-129636000D03*
X63638000Y-132176000D03*
X63638000Y-134716000D03*
X63638000Y-137256000D03*
D12*
X87238000Y-104236000D03*
D11*
X87238000Y-106776000D03*
X87238000Y-109316000D03*
X87238000Y-111856000D03*
X87238000Y-114396000D03*
X87238000Y-116936000D03*
X87238000Y-119476000D03*
X87238000Y-122016000D03*
X87238000Y-124556000D03*
X87238000Y-127096000D03*
X87238000Y-129636000D03*
X87238000Y-132176000D03*
X87238000Y-134716000D03*
X87238000Y-137256000D03*
X87238000Y-139796000D03*
G04 #@! TD*
G04 #@! TO.C,J1*
X56896000Y-114046000D03*
X56896000Y-111506000D03*
D12*
X56896000Y-108966000D03*
G04 #@! TD*
D11*
G04 #@! TO.C,J2*
X56896000Y-125984000D03*
X56896000Y-123444000D03*
D12*
X56896000Y-120904000D03*
G04 #@! TD*
G04 #@! TO.C,J3*
X56896000Y-131826000D03*
D11*
X56896000Y-134366000D03*
X56896000Y-136906000D03*
G04 #@! TD*
D12*
G04 #@! TO.C,J4*
X92964000Y-133096000D03*
D11*
X92964000Y-135636000D03*
X92964000Y-138176000D03*
G04 #@! TD*
M02*
