M48
INCH,TZ
T1C0.0394
%
G90
G05
T1
X22400Y-47600
X22400Y-48600
X22400Y-49600
X36600Y-52400
X36600Y-53400
X36600Y-54400
X22400Y-42900
X22400Y-43900
X22400Y-44900
X25054Y-41038
X25054Y-42038
X25054Y-43038
X25054Y-44038
X25054Y-45038
X25054Y-46038
X25054Y-47038
X25054Y-48038
X25054Y-49038
X25054Y-50038
X25054Y-51038
X25054Y-52038
X25054Y-53038
X25054Y-54038
X25054Y-55038
X34346Y-41038
X34346Y-42038
X34346Y-43038
X34346Y-44038
X34346Y-45038
X34346Y-46038
X34346Y-47038
X34346Y-48038
X34346Y-49038
X34346Y-50038
X34346Y-51038
X34346Y-52038
X34346Y-53038
X34346Y-54038
X34346Y-55038
X22400Y-51900
X22400Y-52900
X22400Y-53900
T0
M30
