G04 #@! TF.GenerationSoftware,KiCad,Pcbnew,(5.0.0-3-g5ebb6b6)*
G04 #@! TF.CreationDate,2018-08-30T21:54:11-04:00*
G04 #@! TF.ProjectId,PCB,5043422E6B696361645F706362000000,rev?*
G04 #@! TF.SameCoordinates,Original*
G04 #@! TF.FileFunction,Copper,L2,Bot,Signal*
G04 #@! TF.FilePolarity,Positive*
%FSLAX46Y46*%
G04 Gerber Fmt 4.6, Leading zero omitted, Abs format (unit mm)*
G04 Created by KiCad (PCBNEW (5.0.0-3-g5ebb6b6)) date Thursday, August 30, 2018 at 09:54:11 PM*
%MOMM*%
%LPD*%
G01*
G04 APERTURE LIST*
G04 #@! TA.AperFunction,ComponentPad*
%ADD10O,1.700000X1.700000*%
G04 #@! TD*
G04 #@! TA.AperFunction,ComponentPad*
%ADD11R,1.700000X1.700000*%
G04 #@! TD*
G04 #@! TA.AperFunction,Conductor*
%ADD12C,0.250000*%
G04 #@! TD*
G04 #@! TA.AperFunction,Conductor*
%ADD13C,0.254000*%
G04 #@! TD*
G04 APERTURE END LIST*
D10*
G04 #@! TO.P,U1,15*
G04 #@! TO.N,VCC*
X87954000Y-139796000D03*
G04 #@! TO.P,U1,14*
G04 #@! TO.N,GND*
X87954000Y-137256000D03*
G04 #@! TO.P,U1,13*
G04 #@! TO.N,Net-(U1-Pad13)*
X87954000Y-134716000D03*
G04 #@! TO.P,U1,12*
G04 #@! TO.N,Net-(U1-Pad12)*
X87954000Y-132176000D03*
G04 #@! TO.P,U1,11*
G04 #@! TO.N,Net-(U1-Pad11)*
X87954000Y-129636000D03*
G04 #@! TO.P,U1,10*
G04 #@! TO.N,GND*
X87954000Y-127096000D03*
G04 #@! TO.P,U1,9*
G04 #@! TO.N,Net-(U1-Pad9)*
X87954000Y-124556000D03*
G04 #@! TO.P,U1,8*
G04 #@! TO.N,Net-(U1-Pad8)*
X87954000Y-122016000D03*
G04 #@! TO.P,U1,7*
G04 #@! TO.N,Net-(U1-Pad7)*
X87954000Y-119476000D03*
G04 #@! TO.P,U1,6*
G04 #@! TO.N,Net-(U1-Pad6)*
X87954000Y-116936000D03*
G04 #@! TO.P,U1,5*
G04 #@! TO.N,Net-(U1-Pad5)*
X87954000Y-114396000D03*
G04 #@! TO.P,U1,4*
G04 #@! TO.N,Net-(U1-Pad4)*
X87954000Y-111856000D03*
G04 #@! TO.P,U1,3*
G04 #@! TO.N,Net-(U1-Pad3)*
X87954000Y-109316000D03*
G04 #@! TO.P,U1,2*
G04 #@! TO.N,GND*
X87954000Y-106776000D03*
D11*
G04 #@! TO.P,U1,1*
G04 #@! TO.N,Net-(U1-Pad1)*
X87954000Y-104236000D03*
D10*
G04 #@! TO.P,U1,29*
G04 #@! TO.N,GND*
X63354000Y-137256000D03*
G04 #@! TO.P,U1,28*
G04 #@! TO.N,Net-(U1-Pad28)*
X63354000Y-134716000D03*
G04 #@! TO.P,U1,27*
G04 #@! TO.N,Net-(U1-Pad27)*
X63354000Y-132176000D03*
G04 #@! TO.P,U1,26*
G04 #@! TO.N,Net-(U1-Pad26)*
X63354000Y-129636000D03*
G04 #@! TO.P,U1,25*
G04 #@! TO.N,Net-(U1-Pad25)*
X63354000Y-127096000D03*
G04 #@! TO.P,U1,18*
G04 #@! TO.N,/FLOW3*
X63354000Y-109316000D03*
G04 #@! TO.P,U1,17*
G04 #@! TO.N,/FLOW2*
X63354000Y-106776000D03*
D11*
G04 #@! TO.P,U1,16*
G04 #@! TO.N,/FLOW1*
X63354000Y-104236000D03*
D10*
G04 #@! TO.P,U1,20*
G04 #@! TO.N,Net-(U1-Pad20)*
X63354000Y-114396000D03*
G04 #@! TO.P,U1,19*
G04 #@! TO.N,/FLOW4*
X63354000Y-111856000D03*
G04 #@! TO.P,U1,30*
G04 #@! TO.N,Net-(U1-Pad30)*
X63354000Y-139796000D03*
G04 #@! TO.P,U1,24*
G04 #@! TO.N,Net-(U1-Pad24)*
X63354000Y-124556000D03*
G04 #@! TO.P,U1,23*
G04 #@! TO.N,Net-(U1-Pad23)*
X63354000Y-122016000D03*
G04 #@! TO.P,U1,22*
G04 #@! TO.N,GND*
X63354000Y-119476000D03*
G04 #@! TO.P,U1,21*
G04 #@! TO.N,Net-(U1-Pad21)*
X63354000Y-116936000D03*
G04 #@! TD*
G04 #@! TO.P,J1,3*
G04 #@! TO.N,GND*
X56896000Y-114046000D03*
G04 #@! TO.P,J1,2*
G04 #@! TO.N,/FLOW1*
X56896000Y-111506000D03*
D11*
G04 #@! TO.P,J1,1*
G04 #@! TO.N,VCC*
X56896000Y-108966000D03*
G04 #@! TD*
D10*
G04 #@! TO.P,J2,3*
G04 #@! TO.N,GND*
X56896000Y-125984000D03*
G04 #@! TO.P,J2,2*
G04 #@! TO.N,/FLOW2*
X56896000Y-123444000D03*
D11*
G04 #@! TO.P,J2,1*
G04 #@! TO.N,VCC*
X56896000Y-120904000D03*
G04 #@! TD*
G04 #@! TO.P,J3,1*
G04 #@! TO.N,VCC*
X56896000Y-131826000D03*
D10*
G04 #@! TO.P,J3,2*
G04 #@! TO.N,/FLOW3*
X56896000Y-134366000D03*
G04 #@! TO.P,J3,3*
G04 #@! TO.N,GND*
X56896000Y-136906000D03*
G04 #@! TD*
D11*
G04 #@! TO.P,J4,1*
G04 #@! TO.N,VCC*
X92964000Y-133096000D03*
D10*
G04 #@! TO.P,J4,2*
G04 #@! TO.N,/FLOW4*
X92964000Y-135636000D03*
G04 #@! TO.P,J4,3*
G04 #@! TO.N,GND*
X92964000Y-138176000D03*
G04 #@! TD*
D12*
G04 #@! TO.N,/FLOW1*
X62254000Y-104236000D02*
X60198000Y-106292000D01*
X63354000Y-104236000D02*
X62254000Y-104236000D01*
X60198000Y-108204000D02*
X56896000Y-111506000D01*
X60198000Y-106292000D02*
X60198000Y-108204000D01*
G04 #@! TO.N,/FLOW4*
X92114001Y-134786001D02*
X92964000Y-135636000D01*
X84849001Y-133351001D02*
X90679001Y-133351001D01*
X90679001Y-133351001D02*
X92114001Y-134786001D01*
X63354000Y-111856000D02*
X84849001Y-133351001D01*
G04 #@! TO.N,/FLOW2*
X57745999Y-122594001D02*
X56896000Y-123444000D01*
X60198000Y-120142000D02*
X57745999Y-122594001D01*
X60198000Y-109932000D02*
X60198000Y-120142000D01*
X63354000Y-106776000D02*
X60198000Y-109932000D01*
G04 #@! TO.N,/FLOW3*
X63354000Y-109316000D02*
X60706000Y-111964000D01*
X60706000Y-130556000D02*
X56896000Y-134366000D01*
X60706000Y-111964000D02*
X60706000Y-130556000D01*
G04 #@! TD*
D13*
G04 #@! TO.N,GND*
G36*
X72815418Y-91969837D02*
X74036038Y-93043224D01*
X74062770Y-93083231D01*
X74140894Y-93135432D01*
X74158054Y-93150522D01*
X74198765Y-93174100D01*
X74297015Y-93239749D01*
X74320016Y-93244324D01*
X74340309Y-93256077D01*
X74457434Y-93271658D01*
X74503583Y-93280838D01*
X74526437Y-93280838D01*
X74619573Y-93293228D01*
X74666065Y-93280838D01*
X74760457Y-93280838D01*
X76575764Y-93681246D01*
X77961664Y-94722909D01*
X79066144Y-96301457D01*
X79869375Y-98167883D01*
X79872042Y-98196592D01*
X79924698Y-98296434D01*
X79941226Y-98334839D01*
X79957176Y-98358016D01*
X80003465Y-98445785D01*
X80036376Y-98473101D01*
X80060626Y-98508339D01*
X80143892Y-98562340D01*
X80220246Y-98625714D01*
X80261105Y-98638356D01*
X80296994Y-98661632D01*
X80394584Y-98679658D01*
X80489382Y-98708990D01*
X80531970Y-98705034D01*
X80574032Y-98712803D01*
X80671094Y-98692110D01*
X80699093Y-98689509D01*
X80739143Y-98677602D01*
X80849565Y-98654061D01*
X80873323Y-98637711D01*
X82258330Y-98225954D01*
X83062613Y-98315319D01*
X84647878Y-99865907D01*
X86074891Y-101287674D01*
X86096807Y-101326268D01*
X86173834Y-101386253D01*
X86192634Y-101404984D01*
X86228755Y-101429023D01*
X86319081Y-101499365D01*
X86345315Y-101506596D01*
X86367970Y-101521673D01*
X86480307Y-101543803D01*
X86522125Y-101555329D01*
X86548585Y-101557253D01*
X86644382Y-101576125D01*
X86687900Y-101567385D01*
X88643901Y-101709641D01*
X88645705Y-101710128D01*
X88713393Y-101714695D01*
X88781154Y-101719623D01*
X88783011Y-101719392D01*
X90754245Y-101852391D01*
X90868912Y-101956635D01*
X90896402Y-102143224D01*
X90896396Y-102143349D01*
X90906590Y-102212375D01*
X90916715Y-102281099D01*
X90916757Y-102281216D01*
X91091925Y-103467318D01*
X91091924Y-103467348D01*
X91102998Y-103542292D01*
X91112301Y-103605285D01*
X91112309Y-103605309D01*
X91391082Y-105491931D01*
X91391081Y-105491944D01*
X91400339Y-105554582D01*
X91411470Y-105629911D01*
X91411474Y-105629921D01*
X91776510Y-108099777D01*
X91776510Y-108099785D01*
X91787251Y-108172449D01*
X91796904Y-108237761D01*
X91796906Y-108237766D01*
X92230852Y-111173495D01*
X92230852Y-111173502D01*
X92757149Y-114733707D01*
X92757150Y-114733711D01*
X93297248Y-118387063D01*
X93297250Y-118387067D01*
X93854188Y-122154177D01*
X93854189Y-122154180D01*
X94390211Y-125779691D01*
X94390211Y-125779692D01*
X94928760Y-129422201D01*
X94928760Y-129422204D01*
X95432077Y-132826355D01*
X95882806Y-135874771D01*
X96283990Y-138588066D01*
X96283991Y-138588070D01*
X96557065Y-140434903D01*
X96557065Y-140434904D01*
X96725868Y-141576530D01*
X80554334Y-145062860D01*
X52438007Y-139796000D01*
X61839908Y-139796000D01*
X61955161Y-140375418D01*
X62283375Y-140866625D01*
X62774582Y-141194839D01*
X63207744Y-141281000D01*
X63500256Y-141281000D01*
X63933418Y-141194839D01*
X64424625Y-140866625D01*
X64752839Y-140375418D01*
X64868092Y-139796000D01*
X86439908Y-139796000D01*
X86555161Y-140375418D01*
X86883375Y-140866625D01*
X87374582Y-141194839D01*
X87807744Y-141281000D01*
X88100256Y-141281000D01*
X88533418Y-141194839D01*
X89024625Y-140866625D01*
X89352839Y-140375418D01*
X89468092Y-139796000D01*
X89352839Y-139216582D01*
X89024625Y-138725375D01*
X88736552Y-138532890D01*
X91522524Y-138532890D01*
X91692355Y-138942924D01*
X92082642Y-139371183D01*
X92607108Y-139617486D01*
X92837000Y-139496819D01*
X92837000Y-138303000D01*
X93091000Y-138303000D01*
X93091000Y-139496819D01*
X93320892Y-139617486D01*
X93845358Y-139371183D01*
X94235645Y-138942924D01*
X94405476Y-138532890D01*
X94284155Y-138303000D01*
X93091000Y-138303000D01*
X92837000Y-138303000D01*
X91643845Y-138303000D01*
X91522524Y-138532890D01*
X88736552Y-138532890D01*
X88705522Y-138512157D01*
X88835358Y-138451183D01*
X89225645Y-138022924D01*
X89395476Y-137612890D01*
X89274155Y-137383000D01*
X88081000Y-137383000D01*
X88081000Y-137403000D01*
X87827000Y-137403000D01*
X87827000Y-137383000D01*
X86633845Y-137383000D01*
X86512524Y-137612890D01*
X86682355Y-138022924D01*
X87072642Y-138451183D01*
X87202478Y-138512157D01*
X86883375Y-138725375D01*
X86555161Y-139216582D01*
X86439908Y-139796000D01*
X64868092Y-139796000D01*
X64752839Y-139216582D01*
X64424625Y-138725375D01*
X64105522Y-138512157D01*
X64235358Y-138451183D01*
X64625645Y-138022924D01*
X64795476Y-137612890D01*
X64674155Y-137383000D01*
X63481000Y-137383000D01*
X63481000Y-137403000D01*
X63227000Y-137403000D01*
X63227000Y-137383000D01*
X62033845Y-137383000D01*
X61912524Y-137612890D01*
X62082355Y-138022924D01*
X62472642Y-138451183D01*
X62602478Y-138512157D01*
X62283375Y-138725375D01*
X61955161Y-139216582D01*
X61839908Y-139796000D01*
X52438007Y-139796000D01*
X50076589Y-139353650D01*
X50246962Y-138034617D01*
X50346694Y-137262890D01*
X55454524Y-137262890D01*
X55624355Y-137672924D01*
X56014642Y-138101183D01*
X56539108Y-138347486D01*
X56769000Y-138226819D01*
X56769000Y-137033000D01*
X57023000Y-137033000D01*
X57023000Y-138226819D01*
X57252892Y-138347486D01*
X57777358Y-138101183D01*
X58167645Y-137672924D01*
X58337476Y-137262890D01*
X58216155Y-137033000D01*
X57023000Y-137033000D01*
X56769000Y-137033000D01*
X55575845Y-137033000D01*
X55454524Y-137262890D01*
X50346694Y-137262890D01*
X50535891Y-135798885D01*
X50901431Y-132972130D01*
X51324119Y-129706017D01*
X51760048Y-126340890D01*
X55454524Y-126340890D01*
X55624355Y-126750924D01*
X56014642Y-127179183D01*
X56539108Y-127425486D01*
X56769000Y-127304819D01*
X56769000Y-126111000D01*
X57023000Y-126111000D01*
X57023000Y-127304819D01*
X57252892Y-127425486D01*
X57777358Y-127179183D01*
X58167645Y-126750924D01*
X58337476Y-126340890D01*
X58216155Y-126111000D01*
X57023000Y-126111000D01*
X56769000Y-126111000D01*
X55575845Y-126111000D01*
X55454524Y-126340890D01*
X51760048Y-126340890D01*
X51781525Y-126175107D01*
X52253605Y-122535599D01*
X52717897Y-118962298D01*
X53152877Y-115622792D01*
X53312371Y-114402890D01*
X55454524Y-114402890D01*
X55624355Y-114812924D01*
X56014642Y-115241183D01*
X56539108Y-115487486D01*
X56769000Y-115366819D01*
X56769000Y-114173000D01*
X57023000Y-114173000D01*
X57023000Y-115366819D01*
X57252892Y-115487486D01*
X57777358Y-115241183D01*
X58167645Y-114812924D01*
X58337476Y-114402890D01*
X58216155Y-114173000D01*
X57023000Y-114173000D01*
X56769000Y-114173000D01*
X55575845Y-114173000D01*
X55454524Y-114402890D01*
X53312371Y-114402890D01*
X53537554Y-112680561D01*
X53850491Y-110302533D01*
X54069829Y-108658795D01*
X54168387Y-107956855D01*
X54437743Y-106967875D01*
X55489918Y-106493773D01*
X56973289Y-106017166D01*
X60252757Y-105005247D01*
X60262780Y-105005910D01*
X60386917Y-104963851D01*
X60444389Y-104946117D01*
X60453003Y-104941460D01*
X60484364Y-104930834D01*
X59713530Y-105701669D01*
X59650071Y-105744071D01*
X59482096Y-105995464D01*
X59438000Y-106217149D01*
X59438000Y-106217153D01*
X59423112Y-106292000D01*
X59438000Y-106366847D01*
X59438001Y-107889197D01*
X58393440Y-108933758D01*
X58393440Y-108116000D01*
X58344157Y-107868235D01*
X58203809Y-107658191D01*
X57993765Y-107517843D01*
X57746000Y-107468560D01*
X56046000Y-107468560D01*
X55798235Y-107517843D01*
X55588191Y-107658191D01*
X55447843Y-107868235D01*
X55398560Y-108116000D01*
X55398560Y-109816000D01*
X55447843Y-110063765D01*
X55588191Y-110273809D01*
X55798235Y-110414157D01*
X55843619Y-110423184D01*
X55825375Y-110435375D01*
X55497161Y-110926582D01*
X55381908Y-111506000D01*
X55497161Y-112085418D01*
X55825375Y-112576625D01*
X56144478Y-112789843D01*
X56014642Y-112850817D01*
X55624355Y-113279076D01*
X55454524Y-113689110D01*
X55575845Y-113919000D01*
X56769000Y-113919000D01*
X56769000Y-113899000D01*
X57023000Y-113899000D01*
X57023000Y-113919000D01*
X58216155Y-113919000D01*
X58337476Y-113689110D01*
X58167645Y-113279076D01*
X57777358Y-112850817D01*
X57647522Y-112789843D01*
X57966625Y-112576625D01*
X58294839Y-112085418D01*
X58410092Y-111506000D01*
X58337209Y-111139592D01*
X59438000Y-110038802D01*
X59438001Y-119827197D01*
X58393440Y-120871759D01*
X58393440Y-120054000D01*
X58344157Y-119806235D01*
X58203809Y-119596191D01*
X57993765Y-119455843D01*
X57746000Y-119406560D01*
X56046000Y-119406560D01*
X55798235Y-119455843D01*
X55588191Y-119596191D01*
X55447843Y-119806235D01*
X55398560Y-120054000D01*
X55398560Y-121754000D01*
X55447843Y-122001765D01*
X55588191Y-122211809D01*
X55798235Y-122352157D01*
X55843619Y-122361184D01*
X55825375Y-122373375D01*
X55497161Y-122864582D01*
X55381908Y-123444000D01*
X55497161Y-124023418D01*
X55825375Y-124514625D01*
X56144478Y-124727843D01*
X56014642Y-124788817D01*
X55624355Y-125217076D01*
X55454524Y-125627110D01*
X55575845Y-125857000D01*
X56769000Y-125857000D01*
X56769000Y-125837000D01*
X57023000Y-125837000D01*
X57023000Y-125857000D01*
X58216155Y-125857000D01*
X58337476Y-125627110D01*
X58167645Y-125217076D01*
X57777358Y-124788817D01*
X57647522Y-124727843D01*
X57966625Y-124514625D01*
X58294839Y-124023418D01*
X58410092Y-123444000D01*
X58337209Y-123077592D01*
X59946001Y-121468801D01*
X59946001Y-130241197D01*
X58393440Y-131793758D01*
X58393440Y-130976000D01*
X58344157Y-130728235D01*
X58203809Y-130518191D01*
X57993765Y-130377843D01*
X57746000Y-130328560D01*
X56046000Y-130328560D01*
X55798235Y-130377843D01*
X55588191Y-130518191D01*
X55447843Y-130728235D01*
X55398560Y-130976000D01*
X55398560Y-132676000D01*
X55447843Y-132923765D01*
X55588191Y-133133809D01*
X55798235Y-133274157D01*
X55843619Y-133283184D01*
X55825375Y-133295375D01*
X55497161Y-133786582D01*
X55381908Y-134366000D01*
X55497161Y-134945418D01*
X55825375Y-135436625D01*
X56144478Y-135649843D01*
X56014642Y-135710817D01*
X55624355Y-136139076D01*
X55454524Y-136549110D01*
X55575845Y-136779000D01*
X56769000Y-136779000D01*
X56769000Y-136759000D01*
X57023000Y-136759000D01*
X57023000Y-136779000D01*
X58216155Y-136779000D01*
X58337476Y-136549110D01*
X58167645Y-136139076D01*
X57777358Y-135710817D01*
X57647522Y-135649843D01*
X57966625Y-135436625D01*
X58294839Y-134945418D01*
X58410092Y-134366000D01*
X58337209Y-133999592D01*
X61190473Y-131146329D01*
X61253929Y-131103929D01*
X61339409Y-130976000D01*
X61421904Y-130852538D01*
X61446629Y-130728235D01*
X61466000Y-130630852D01*
X61466000Y-130630848D01*
X61480888Y-130556000D01*
X61466000Y-130481152D01*
X61466000Y-122016000D01*
X61839908Y-122016000D01*
X61955161Y-122595418D01*
X62283375Y-123086625D01*
X62581761Y-123286000D01*
X62283375Y-123485375D01*
X61955161Y-123976582D01*
X61839908Y-124556000D01*
X61955161Y-125135418D01*
X62283375Y-125626625D01*
X62581761Y-125826000D01*
X62283375Y-126025375D01*
X61955161Y-126516582D01*
X61839908Y-127096000D01*
X61955161Y-127675418D01*
X62283375Y-128166625D01*
X62581761Y-128366000D01*
X62283375Y-128565375D01*
X61955161Y-129056582D01*
X61839908Y-129636000D01*
X61955161Y-130215418D01*
X62283375Y-130706625D01*
X62581761Y-130906000D01*
X62283375Y-131105375D01*
X61955161Y-131596582D01*
X61839908Y-132176000D01*
X61955161Y-132755418D01*
X62283375Y-133246625D01*
X62581761Y-133446000D01*
X62283375Y-133645375D01*
X61955161Y-134136582D01*
X61839908Y-134716000D01*
X61955161Y-135295418D01*
X62283375Y-135786625D01*
X62602478Y-135999843D01*
X62472642Y-136060817D01*
X62082355Y-136489076D01*
X61912524Y-136899110D01*
X62033845Y-137129000D01*
X63227000Y-137129000D01*
X63227000Y-137109000D01*
X63481000Y-137109000D01*
X63481000Y-137129000D01*
X64674155Y-137129000D01*
X64795476Y-136899110D01*
X64625645Y-136489076D01*
X64235358Y-136060817D01*
X64105522Y-135999843D01*
X64424625Y-135786625D01*
X64752839Y-135295418D01*
X64868092Y-134716000D01*
X64752839Y-134136582D01*
X64424625Y-133645375D01*
X64126239Y-133446000D01*
X64424625Y-133246625D01*
X64752839Y-132755418D01*
X64868092Y-132176000D01*
X64752839Y-131596582D01*
X64424625Y-131105375D01*
X64126239Y-130906000D01*
X64424625Y-130706625D01*
X64752839Y-130215418D01*
X64868092Y-129636000D01*
X64752839Y-129056582D01*
X64424625Y-128565375D01*
X64126239Y-128366000D01*
X64424625Y-128166625D01*
X64752839Y-127675418D01*
X64868092Y-127096000D01*
X64752839Y-126516582D01*
X64424625Y-126025375D01*
X64126239Y-125826000D01*
X64424625Y-125626625D01*
X64752839Y-125135418D01*
X64868092Y-124556000D01*
X64752839Y-123976582D01*
X64424625Y-123485375D01*
X64126239Y-123286000D01*
X64424625Y-123086625D01*
X64752839Y-122595418D01*
X64868092Y-122016000D01*
X64752839Y-121436582D01*
X64424625Y-120945375D01*
X64105522Y-120732157D01*
X64235358Y-120671183D01*
X64625645Y-120242924D01*
X64795476Y-119832890D01*
X64674155Y-119603000D01*
X63481000Y-119603000D01*
X63481000Y-119623000D01*
X63227000Y-119623000D01*
X63227000Y-119603000D01*
X62033845Y-119603000D01*
X61912524Y-119832890D01*
X62082355Y-120242924D01*
X62472642Y-120671183D01*
X62602478Y-120732157D01*
X62283375Y-120945375D01*
X61955161Y-121436582D01*
X61839908Y-122016000D01*
X61466000Y-122016000D01*
X61466000Y-112278801D01*
X61848020Y-111896781D01*
X61955161Y-112435418D01*
X62283375Y-112926625D01*
X62581761Y-113126000D01*
X62283375Y-113325375D01*
X61955161Y-113816582D01*
X61839908Y-114396000D01*
X61955161Y-114975418D01*
X62283375Y-115466625D01*
X62581761Y-115666000D01*
X62283375Y-115865375D01*
X61955161Y-116356582D01*
X61839908Y-116936000D01*
X61955161Y-117515418D01*
X62283375Y-118006625D01*
X62602478Y-118219843D01*
X62472642Y-118280817D01*
X62082355Y-118709076D01*
X61912524Y-119119110D01*
X62033845Y-119349000D01*
X63227000Y-119349000D01*
X63227000Y-119329000D01*
X63481000Y-119329000D01*
X63481000Y-119349000D01*
X64674155Y-119349000D01*
X64795476Y-119119110D01*
X64625645Y-118709076D01*
X64235358Y-118280817D01*
X64105522Y-118219843D01*
X64424625Y-118006625D01*
X64752839Y-117515418D01*
X64868092Y-116936000D01*
X64752839Y-116356582D01*
X64424625Y-115865375D01*
X64126239Y-115666000D01*
X64424625Y-115466625D01*
X64752839Y-114975418D01*
X64859980Y-114436781D01*
X84258671Y-133835473D01*
X84301072Y-133898930D01*
X84552464Y-134066905D01*
X84774149Y-134111001D01*
X84774154Y-134111001D01*
X84849001Y-134125889D01*
X84923848Y-134111001D01*
X86572254Y-134111001D01*
X86555161Y-134136582D01*
X86439908Y-134716000D01*
X86555161Y-135295418D01*
X86883375Y-135786625D01*
X87202478Y-135999843D01*
X87072642Y-136060817D01*
X86682355Y-136489076D01*
X86512524Y-136899110D01*
X86633845Y-137129000D01*
X87827000Y-137129000D01*
X87827000Y-137109000D01*
X88081000Y-137109000D01*
X88081000Y-137129000D01*
X89274155Y-137129000D01*
X89395476Y-136899110D01*
X89225645Y-136489076D01*
X88835358Y-136060817D01*
X88705522Y-135999843D01*
X89024625Y-135786625D01*
X89352839Y-135295418D01*
X89468092Y-134716000D01*
X89352839Y-134136582D01*
X89335746Y-134111001D01*
X90364200Y-134111001D01*
X91522791Y-135269593D01*
X91449908Y-135636000D01*
X91565161Y-136215418D01*
X91893375Y-136706625D01*
X92212478Y-136919843D01*
X92082642Y-136980817D01*
X91692355Y-137409076D01*
X91522524Y-137819110D01*
X91643845Y-138049000D01*
X92837000Y-138049000D01*
X92837000Y-138029000D01*
X93091000Y-138029000D01*
X93091000Y-138049000D01*
X94284155Y-138049000D01*
X94405476Y-137819110D01*
X94235645Y-137409076D01*
X93845358Y-136980817D01*
X93715522Y-136919843D01*
X94034625Y-136706625D01*
X94362839Y-136215418D01*
X94478092Y-135636000D01*
X94362839Y-135056582D01*
X94034625Y-134565375D01*
X94016381Y-134553184D01*
X94061765Y-134544157D01*
X94271809Y-134403809D01*
X94412157Y-134193765D01*
X94461440Y-133946000D01*
X94461440Y-132246000D01*
X94412157Y-131998235D01*
X94271809Y-131788191D01*
X94061765Y-131647843D01*
X93814000Y-131598560D01*
X92114000Y-131598560D01*
X91866235Y-131647843D01*
X91656191Y-131788191D01*
X91515843Y-131998235D01*
X91466560Y-132246000D01*
X91466560Y-133063759D01*
X91269332Y-132866531D01*
X91226930Y-132803072D01*
X90975538Y-132635097D01*
X90753853Y-132591001D01*
X90753848Y-132591001D01*
X90679001Y-132576113D01*
X90604154Y-132591001D01*
X89385543Y-132591001D01*
X89468092Y-132176000D01*
X89352839Y-131596582D01*
X89024625Y-131105375D01*
X88726239Y-130906000D01*
X89024625Y-130706625D01*
X89352839Y-130215418D01*
X89468092Y-129636000D01*
X89352839Y-129056582D01*
X89024625Y-128565375D01*
X88705522Y-128352157D01*
X88835358Y-128291183D01*
X89225645Y-127862924D01*
X89395476Y-127452890D01*
X89274155Y-127223000D01*
X88081000Y-127223000D01*
X88081000Y-127243000D01*
X87827000Y-127243000D01*
X87827000Y-127223000D01*
X86633845Y-127223000D01*
X86512524Y-127452890D01*
X86682355Y-127862924D01*
X87072642Y-128291183D01*
X87202478Y-128352157D01*
X86883375Y-128565375D01*
X86555161Y-129056582D01*
X86439908Y-129636000D01*
X86555161Y-130215418D01*
X86883375Y-130706625D01*
X87181761Y-130906000D01*
X86883375Y-131105375D01*
X86555161Y-131596582D01*
X86439908Y-132176000D01*
X86522457Y-132591001D01*
X85163803Y-132591001D01*
X64795209Y-112222408D01*
X64868092Y-111856000D01*
X64752839Y-111276582D01*
X64424625Y-110785375D01*
X64126239Y-110586000D01*
X64424625Y-110386625D01*
X64752839Y-109895418D01*
X64868092Y-109316000D01*
X86439908Y-109316000D01*
X86555161Y-109895418D01*
X86883375Y-110386625D01*
X87181761Y-110586000D01*
X86883375Y-110785375D01*
X86555161Y-111276582D01*
X86439908Y-111856000D01*
X86555161Y-112435418D01*
X86883375Y-112926625D01*
X87181761Y-113126000D01*
X86883375Y-113325375D01*
X86555161Y-113816582D01*
X86439908Y-114396000D01*
X86555161Y-114975418D01*
X86883375Y-115466625D01*
X87181761Y-115666000D01*
X86883375Y-115865375D01*
X86555161Y-116356582D01*
X86439908Y-116936000D01*
X86555161Y-117515418D01*
X86883375Y-118006625D01*
X87181761Y-118206000D01*
X86883375Y-118405375D01*
X86555161Y-118896582D01*
X86439908Y-119476000D01*
X86555161Y-120055418D01*
X86883375Y-120546625D01*
X87181761Y-120746000D01*
X86883375Y-120945375D01*
X86555161Y-121436582D01*
X86439908Y-122016000D01*
X86555161Y-122595418D01*
X86883375Y-123086625D01*
X87181761Y-123286000D01*
X86883375Y-123485375D01*
X86555161Y-123976582D01*
X86439908Y-124556000D01*
X86555161Y-125135418D01*
X86883375Y-125626625D01*
X87202478Y-125839843D01*
X87072642Y-125900817D01*
X86682355Y-126329076D01*
X86512524Y-126739110D01*
X86633845Y-126969000D01*
X87827000Y-126969000D01*
X87827000Y-126949000D01*
X88081000Y-126949000D01*
X88081000Y-126969000D01*
X89274155Y-126969000D01*
X89395476Y-126739110D01*
X89225645Y-126329076D01*
X88835358Y-125900817D01*
X88705522Y-125839843D01*
X89024625Y-125626625D01*
X89352839Y-125135418D01*
X89468092Y-124556000D01*
X89352839Y-123976582D01*
X89024625Y-123485375D01*
X88726239Y-123286000D01*
X89024625Y-123086625D01*
X89352839Y-122595418D01*
X89468092Y-122016000D01*
X89352839Y-121436582D01*
X89024625Y-120945375D01*
X88726239Y-120746000D01*
X89024625Y-120546625D01*
X89352839Y-120055418D01*
X89468092Y-119476000D01*
X89352839Y-118896582D01*
X89024625Y-118405375D01*
X88726239Y-118206000D01*
X89024625Y-118006625D01*
X89352839Y-117515418D01*
X89468092Y-116936000D01*
X89352839Y-116356582D01*
X89024625Y-115865375D01*
X88726239Y-115666000D01*
X89024625Y-115466625D01*
X89352839Y-114975418D01*
X89468092Y-114396000D01*
X89352839Y-113816582D01*
X89024625Y-113325375D01*
X88726239Y-113126000D01*
X89024625Y-112926625D01*
X89352839Y-112435418D01*
X89468092Y-111856000D01*
X89352839Y-111276582D01*
X89024625Y-110785375D01*
X88726239Y-110586000D01*
X89024625Y-110386625D01*
X89352839Y-109895418D01*
X89468092Y-109316000D01*
X89352839Y-108736582D01*
X89024625Y-108245375D01*
X88705522Y-108032157D01*
X88835358Y-107971183D01*
X89225645Y-107542924D01*
X89395476Y-107132890D01*
X89274155Y-106903000D01*
X88081000Y-106903000D01*
X88081000Y-106923000D01*
X87827000Y-106923000D01*
X87827000Y-106903000D01*
X86633845Y-106903000D01*
X86512524Y-107132890D01*
X86682355Y-107542924D01*
X87072642Y-107971183D01*
X87202478Y-108032157D01*
X86883375Y-108245375D01*
X86555161Y-108736582D01*
X86439908Y-109316000D01*
X64868092Y-109316000D01*
X64752839Y-108736582D01*
X64424625Y-108245375D01*
X64126239Y-108046000D01*
X64424625Y-107846625D01*
X64752839Y-107355418D01*
X64868092Y-106776000D01*
X64752839Y-106196582D01*
X64424625Y-105705375D01*
X64406381Y-105693184D01*
X64451765Y-105684157D01*
X64661809Y-105543809D01*
X64802157Y-105333765D01*
X64851440Y-105086000D01*
X64851440Y-103386000D01*
X86456560Y-103386000D01*
X86456560Y-105086000D01*
X86505843Y-105333765D01*
X86646191Y-105543809D01*
X86856235Y-105684157D01*
X86959708Y-105704739D01*
X86682355Y-106009076D01*
X86512524Y-106419110D01*
X86633845Y-106649000D01*
X87827000Y-106649000D01*
X87827000Y-106629000D01*
X88081000Y-106629000D01*
X88081000Y-106649000D01*
X89274155Y-106649000D01*
X89395476Y-106419110D01*
X89225645Y-106009076D01*
X88948292Y-105704739D01*
X89051765Y-105684157D01*
X89261809Y-105543809D01*
X89402157Y-105333765D01*
X89451440Y-105086000D01*
X89451440Y-103386000D01*
X89402157Y-103138235D01*
X89261809Y-102928191D01*
X89051765Y-102787843D01*
X88804000Y-102738560D01*
X87104000Y-102738560D01*
X86856235Y-102787843D01*
X86646191Y-102928191D01*
X86505843Y-103138235D01*
X86456560Y-103386000D01*
X64851440Y-103386000D01*
X64802157Y-103138235D01*
X64661809Y-102928191D01*
X64451765Y-102787843D01*
X64204000Y-102738560D01*
X62504000Y-102738560D01*
X62256235Y-102787843D01*
X62046191Y-102928191D01*
X61905843Y-103138235D01*
X61856560Y-103386000D01*
X61856560Y-103587517D01*
X61706071Y-103688071D01*
X61663671Y-103751527D01*
X60815613Y-104599586D01*
X60830455Y-104549803D01*
X60834786Y-104541034D01*
X60850368Y-104483014D01*
X60887837Y-104357342D01*
X60886804Y-104347346D01*
X61287879Y-102853961D01*
X61897665Y-101043529D01*
X62696357Y-99134400D01*
X63690881Y-97238683D01*
X64885473Y-95467669D01*
X66280705Y-93929735D01*
X67875127Y-92725152D01*
X69675033Y-91940654D01*
X71666025Y-91663915D01*
X72815418Y-91969837D01*
X72815418Y-91969837D01*
G37*
X72815418Y-91969837D02*
X74036038Y-93043224D01*
X74062770Y-93083231D01*
X74140894Y-93135432D01*
X74158054Y-93150522D01*
X74198765Y-93174100D01*
X74297015Y-93239749D01*
X74320016Y-93244324D01*
X74340309Y-93256077D01*
X74457434Y-93271658D01*
X74503583Y-93280838D01*
X74526437Y-93280838D01*
X74619573Y-93293228D01*
X74666065Y-93280838D01*
X74760457Y-93280838D01*
X76575764Y-93681246D01*
X77961664Y-94722909D01*
X79066144Y-96301457D01*
X79869375Y-98167883D01*
X79872042Y-98196592D01*
X79924698Y-98296434D01*
X79941226Y-98334839D01*
X79957176Y-98358016D01*
X80003465Y-98445785D01*
X80036376Y-98473101D01*
X80060626Y-98508339D01*
X80143892Y-98562340D01*
X80220246Y-98625714D01*
X80261105Y-98638356D01*
X80296994Y-98661632D01*
X80394584Y-98679658D01*
X80489382Y-98708990D01*
X80531970Y-98705034D01*
X80574032Y-98712803D01*
X80671094Y-98692110D01*
X80699093Y-98689509D01*
X80739143Y-98677602D01*
X80849565Y-98654061D01*
X80873323Y-98637711D01*
X82258330Y-98225954D01*
X83062613Y-98315319D01*
X84647878Y-99865907D01*
X86074891Y-101287674D01*
X86096807Y-101326268D01*
X86173834Y-101386253D01*
X86192634Y-101404984D01*
X86228755Y-101429023D01*
X86319081Y-101499365D01*
X86345315Y-101506596D01*
X86367970Y-101521673D01*
X86480307Y-101543803D01*
X86522125Y-101555329D01*
X86548585Y-101557253D01*
X86644382Y-101576125D01*
X86687900Y-101567385D01*
X88643901Y-101709641D01*
X88645705Y-101710128D01*
X88713393Y-101714695D01*
X88781154Y-101719623D01*
X88783011Y-101719392D01*
X90754245Y-101852391D01*
X90868912Y-101956635D01*
X90896402Y-102143224D01*
X90896396Y-102143349D01*
X90906590Y-102212375D01*
X90916715Y-102281099D01*
X90916757Y-102281216D01*
X91091925Y-103467318D01*
X91091924Y-103467348D01*
X91102998Y-103542292D01*
X91112301Y-103605285D01*
X91112309Y-103605309D01*
X91391082Y-105491931D01*
X91391081Y-105491944D01*
X91400339Y-105554582D01*
X91411470Y-105629911D01*
X91411474Y-105629921D01*
X91776510Y-108099777D01*
X91776510Y-108099785D01*
X91787251Y-108172449D01*
X91796904Y-108237761D01*
X91796906Y-108237766D01*
X92230852Y-111173495D01*
X92230852Y-111173502D01*
X92757149Y-114733707D01*
X92757150Y-114733711D01*
X93297248Y-118387063D01*
X93297250Y-118387067D01*
X93854188Y-122154177D01*
X93854189Y-122154180D01*
X94390211Y-125779691D01*
X94390211Y-125779692D01*
X94928760Y-129422201D01*
X94928760Y-129422204D01*
X95432077Y-132826355D01*
X95882806Y-135874771D01*
X96283990Y-138588066D01*
X96283991Y-138588070D01*
X96557065Y-140434903D01*
X96557065Y-140434904D01*
X96725868Y-141576530D01*
X80554334Y-145062860D01*
X52438007Y-139796000D01*
X61839908Y-139796000D01*
X61955161Y-140375418D01*
X62283375Y-140866625D01*
X62774582Y-141194839D01*
X63207744Y-141281000D01*
X63500256Y-141281000D01*
X63933418Y-141194839D01*
X64424625Y-140866625D01*
X64752839Y-140375418D01*
X64868092Y-139796000D01*
X86439908Y-139796000D01*
X86555161Y-140375418D01*
X86883375Y-140866625D01*
X87374582Y-141194839D01*
X87807744Y-141281000D01*
X88100256Y-141281000D01*
X88533418Y-141194839D01*
X89024625Y-140866625D01*
X89352839Y-140375418D01*
X89468092Y-139796000D01*
X89352839Y-139216582D01*
X89024625Y-138725375D01*
X88736552Y-138532890D01*
X91522524Y-138532890D01*
X91692355Y-138942924D01*
X92082642Y-139371183D01*
X92607108Y-139617486D01*
X92837000Y-139496819D01*
X92837000Y-138303000D01*
X93091000Y-138303000D01*
X93091000Y-139496819D01*
X93320892Y-139617486D01*
X93845358Y-139371183D01*
X94235645Y-138942924D01*
X94405476Y-138532890D01*
X94284155Y-138303000D01*
X93091000Y-138303000D01*
X92837000Y-138303000D01*
X91643845Y-138303000D01*
X91522524Y-138532890D01*
X88736552Y-138532890D01*
X88705522Y-138512157D01*
X88835358Y-138451183D01*
X89225645Y-138022924D01*
X89395476Y-137612890D01*
X89274155Y-137383000D01*
X88081000Y-137383000D01*
X88081000Y-137403000D01*
X87827000Y-137403000D01*
X87827000Y-137383000D01*
X86633845Y-137383000D01*
X86512524Y-137612890D01*
X86682355Y-138022924D01*
X87072642Y-138451183D01*
X87202478Y-138512157D01*
X86883375Y-138725375D01*
X86555161Y-139216582D01*
X86439908Y-139796000D01*
X64868092Y-139796000D01*
X64752839Y-139216582D01*
X64424625Y-138725375D01*
X64105522Y-138512157D01*
X64235358Y-138451183D01*
X64625645Y-138022924D01*
X64795476Y-137612890D01*
X64674155Y-137383000D01*
X63481000Y-137383000D01*
X63481000Y-137403000D01*
X63227000Y-137403000D01*
X63227000Y-137383000D01*
X62033845Y-137383000D01*
X61912524Y-137612890D01*
X62082355Y-138022924D01*
X62472642Y-138451183D01*
X62602478Y-138512157D01*
X62283375Y-138725375D01*
X61955161Y-139216582D01*
X61839908Y-139796000D01*
X52438007Y-139796000D01*
X50076589Y-139353650D01*
X50246962Y-138034617D01*
X50346694Y-137262890D01*
X55454524Y-137262890D01*
X55624355Y-137672924D01*
X56014642Y-138101183D01*
X56539108Y-138347486D01*
X56769000Y-138226819D01*
X56769000Y-137033000D01*
X57023000Y-137033000D01*
X57023000Y-138226819D01*
X57252892Y-138347486D01*
X57777358Y-138101183D01*
X58167645Y-137672924D01*
X58337476Y-137262890D01*
X58216155Y-137033000D01*
X57023000Y-137033000D01*
X56769000Y-137033000D01*
X55575845Y-137033000D01*
X55454524Y-137262890D01*
X50346694Y-137262890D01*
X50535891Y-135798885D01*
X50901431Y-132972130D01*
X51324119Y-129706017D01*
X51760048Y-126340890D01*
X55454524Y-126340890D01*
X55624355Y-126750924D01*
X56014642Y-127179183D01*
X56539108Y-127425486D01*
X56769000Y-127304819D01*
X56769000Y-126111000D01*
X57023000Y-126111000D01*
X57023000Y-127304819D01*
X57252892Y-127425486D01*
X57777358Y-127179183D01*
X58167645Y-126750924D01*
X58337476Y-126340890D01*
X58216155Y-126111000D01*
X57023000Y-126111000D01*
X56769000Y-126111000D01*
X55575845Y-126111000D01*
X55454524Y-126340890D01*
X51760048Y-126340890D01*
X51781525Y-126175107D01*
X52253605Y-122535599D01*
X52717897Y-118962298D01*
X53152877Y-115622792D01*
X53312371Y-114402890D01*
X55454524Y-114402890D01*
X55624355Y-114812924D01*
X56014642Y-115241183D01*
X56539108Y-115487486D01*
X56769000Y-115366819D01*
X56769000Y-114173000D01*
X57023000Y-114173000D01*
X57023000Y-115366819D01*
X57252892Y-115487486D01*
X57777358Y-115241183D01*
X58167645Y-114812924D01*
X58337476Y-114402890D01*
X58216155Y-114173000D01*
X57023000Y-114173000D01*
X56769000Y-114173000D01*
X55575845Y-114173000D01*
X55454524Y-114402890D01*
X53312371Y-114402890D01*
X53537554Y-112680561D01*
X53850491Y-110302533D01*
X54069829Y-108658795D01*
X54168387Y-107956855D01*
X54437743Y-106967875D01*
X55489918Y-106493773D01*
X56973289Y-106017166D01*
X60252757Y-105005247D01*
X60262780Y-105005910D01*
X60386917Y-104963851D01*
X60444389Y-104946117D01*
X60453003Y-104941460D01*
X60484364Y-104930834D01*
X59713530Y-105701669D01*
X59650071Y-105744071D01*
X59482096Y-105995464D01*
X59438000Y-106217149D01*
X59438000Y-106217153D01*
X59423112Y-106292000D01*
X59438000Y-106366847D01*
X59438001Y-107889197D01*
X58393440Y-108933758D01*
X58393440Y-108116000D01*
X58344157Y-107868235D01*
X58203809Y-107658191D01*
X57993765Y-107517843D01*
X57746000Y-107468560D01*
X56046000Y-107468560D01*
X55798235Y-107517843D01*
X55588191Y-107658191D01*
X55447843Y-107868235D01*
X55398560Y-108116000D01*
X55398560Y-109816000D01*
X55447843Y-110063765D01*
X55588191Y-110273809D01*
X55798235Y-110414157D01*
X55843619Y-110423184D01*
X55825375Y-110435375D01*
X55497161Y-110926582D01*
X55381908Y-111506000D01*
X55497161Y-112085418D01*
X55825375Y-112576625D01*
X56144478Y-112789843D01*
X56014642Y-112850817D01*
X55624355Y-113279076D01*
X55454524Y-113689110D01*
X55575845Y-113919000D01*
X56769000Y-113919000D01*
X56769000Y-113899000D01*
X57023000Y-113899000D01*
X57023000Y-113919000D01*
X58216155Y-113919000D01*
X58337476Y-113689110D01*
X58167645Y-113279076D01*
X57777358Y-112850817D01*
X57647522Y-112789843D01*
X57966625Y-112576625D01*
X58294839Y-112085418D01*
X58410092Y-111506000D01*
X58337209Y-111139592D01*
X59438000Y-110038802D01*
X59438001Y-119827197D01*
X58393440Y-120871759D01*
X58393440Y-120054000D01*
X58344157Y-119806235D01*
X58203809Y-119596191D01*
X57993765Y-119455843D01*
X57746000Y-119406560D01*
X56046000Y-119406560D01*
X55798235Y-119455843D01*
X55588191Y-119596191D01*
X55447843Y-119806235D01*
X55398560Y-120054000D01*
X55398560Y-121754000D01*
X55447843Y-122001765D01*
X55588191Y-122211809D01*
X55798235Y-122352157D01*
X55843619Y-122361184D01*
X55825375Y-122373375D01*
X55497161Y-122864582D01*
X55381908Y-123444000D01*
X55497161Y-124023418D01*
X55825375Y-124514625D01*
X56144478Y-124727843D01*
X56014642Y-124788817D01*
X55624355Y-125217076D01*
X55454524Y-125627110D01*
X55575845Y-125857000D01*
X56769000Y-125857000D01*
X56769000Y-125837000D01*
X57023000Y-125837000D01*
X57023000Y-125857000D01*
X58216155Y-125857000D01*
X58337476Y-125627110D01*
X58167645Y-125217076D01*
X57777358Y-124788817D01*
X57647522Y-124727843D01*
X57966625Y-124514625D01*
X58294839Y-124023418D01*
X58410092Y-123444000D01*
X58337209Y-123077592D01*
X59946001Y-121468801D01*
X59946001Y-130241197D01*
X58393440Y-131793758D01*
X58393440Y-130976000D01*
X58344157Y-130728235D01*
X58203809Y-130518191D01*
X57993765Y-130377843D01*
X57746000Y-130328560D01*
X56046000Y-130328560D01*
X55798235Y-130377843D01*
X55588191Y-130518191D01*
X55447843Y-130728235D01*
X55398560Y-130976000D01*
X55398560Y-132676000D01*
X55447843Y-132923765D01*
X55588191Y-133133809D01*
X55798235Y-133274157D01*
X55843619Y-133283184D01*
X55825375Y-133295375D01*
X55497161Y-133786582D01*
X55381908Y-134366000D01*
X55497161Y-134945418D01*
X55825375Y-135436625D01*
X56144478Y-135649843D01*
X56014642Y-135710817D01*
X55624355Y-136139076D01*
X55454524Y-136549110D01*
X55575845Y-136779000D01*
X56769000Y-136779000D01*
X56769000Y-136759000D01*
X57023000Y-136759000D01*
X57023000Y-136779000D01*
X58216155Y-136779000D01*
X58337476Y-136549110D01*
X58167645Y-136139076D01*
X57777358Y-135710817D01*
X57647522Y-135649843D01*
X57966625Y-135436625D01*
X58294839Y-134945418D01*
X58410092Y-134366000D01*
X58337209Y-133999592D01*
X61190473Y-131146329D01*
X61253929Y-131103929D01*
X61339409Y-130976000D01*
X61421904Y-130852538D01*
X61446629Y-130728235D01*
X61466000Y-130630852D01*
X61466000Y-130630848D01*
X61480888Y-130556000D01*
X61466000Y-130481152D01*
X61466000Y-122016000D01*
X61839908Y-122016000D01*
X61955161Y-122595418D01*
X62283375Y-123086625D01*
X62581761Y-123286000D01*
X62283375Y-123485375D01*
X61955161Y-123976582D01*
X61839908Y-124556000D01*
X61955161Y-125135418D01*
X62283375Y-125626625D01*
X62581761Y-125826000D01*
X62283375Y-126025375D01*
X61955161Y-126516582D01*
X61839908Y-127096000D01*
X61955161Y-127675418D01*
X62283375Y-128166625D01*
X62581761Y-128366000D01*
X62283375Y-128565375D01*
X61955161Y-129056582D01*
X61839908Y-129636000D01*
X61955161Y-130215418D01*
X62283375Y-130706625D01*
X62581761Y-130906000D01*
X62283375Y-131105375D01*
X61955161Y-131596582D01*
X61839908Y-132176000D01*
X61955161Y-132755418D01*
X62283375Y-133246625D01*
X62581761Y-133446000D01*
X62283375Y-133645375D01*
X61955161Y-134136582D01*
X61839908Y-134716000D01*
X61955161Y-135295418D01*
X62283375Y-135786625D01*
X62602478Y-135999843D01*
X62472642Y-136060817D01*
X62082355Y-136489076D01*
X61912524Y-136899110D01*
X62033845Y-137129000D01*
X63227000Y-137129000D01*
X63227000Y-137109000D01*
X63481000Y-137109000D01*
X63481000Y-137129000D01*
X64674155Y-137129000D01*
X64795476Y-136899110D01*
X64625645Y-136489076D01*
X64235358Y-136060817D01*
X64105522Y-135999843D01*
X64424625Y-135786625D01*
X64752839Y-135295418D01*
X64868092Y-134716000D01*
X64752839Y-134136582D01*
X64424625Y-133645375D01*
X64126239Y-133446000D01*
X64424625Y-133246625D01*
X64752839Y-132755418D01*
X64868092Y-132176000D01*
X64752839Y-131596582D01*
X64424625Y-131105375D01*
X64126239Y-130906000D01*
X64424625Y-130706625D01*
X64752839Y-130215418D01*
X64868092Y-129636000D01*
X64752839Y-129056582D01*
X64424625Y-128565375D01*
X64126239Y-128366000D01*
X64424625Y-128166625D01*
X64752839Y-127675418D01*
X64868092Y-127096000D01*
X64752839Y-126516582D01*
X64424625Y-126025375D01*
X64126239Y-125826000D01*
X64424625Y-125626625D01*
X64752839Y-125135418D01*
X64868092Y-124556000D01*
X64752839Y-123976582D01*
X64424625Y-123485375D01*
X64126239Y-123286000D01*
X64424625Y-123086625D01*
X64752839Y-122595418D01*
X64868092Y-122016000D01*
X64752839Y-121436582D01*
X64424625Y-120945375D01*
X64105522Y-120732157D01*
X64235358Y-120671183D01*
X64625645Y-120242924D01*
X64795476Y-119832890D01*
X64674155Y-119603000D01*
X63481000Y-119603000D01*
X63481000Y-119623000D01*
X63227000Y-119623000D01*
X63227000Y-119603000D01*
X62033845Y-119603000D01*
X61912524Y-119832890D01*
X62082355Y-120242924D01*
X62472642Y-120671183D01*
X62602478Y-120732157D01*
X62283375Y-120945375D01*
X61955161Y-121436582D01*
X61839908Y-122016000D01*
X61466000Y-122016000D01*
X61466000Y-112278801D01*
X61848020Y-111896781D01*
X61955161Y-112435418D01*
X62283375Y-112926625D01*
X62581761Y-113126000D01*
X62283375Y-113325375D01*
X61955161Y-113816582D01*
X61839908Y-114396000D01*
X61955161Y-114975418D01*
X62283375Y-115466625D01*
X62581761Y-115666000D01*
X62283375Y-115865375D01*
X61955161Y-116356582D01*
X61839908Y-116936000D01*
X61955161Y-117515418D01*
X62283375Y-118006625D01*
X62602478Y-118219843D01*
X62472642Y-118280817D01*
X62082355Y-118709076D01*
X61912524Y-119119110D01*
X62033845Y-119349000D01*
X63227000Y-119349000D01*
X63227000Y-119329000D01*
X63481000Y-119329000D01*
X63481000Y-119349000D01*
X64674155Y-119349000D01*
X64795476Y-119119110D01*
X64625645Y-118709076D01*
X64235358Y-118280817D01*
X64105522Y-118219843D01*
X64424625Y-118006625D01*
X64752839Y-117515418D01*
X64868092Y-116936000D01*
X64752839Y-116356582D01*
X64424625Y-115865375D01*
X64126239Y-115666000D01*
X64424625Y-115466625D01*
X64752839Y-114975418D01*
X64859980Y-114436781D01*
X84258671Y-133835473D01*
X84301072Y-133898930D01*
X84552464Y-134066905D01*
X84774149Y-134111001D01*
X84774154Y-134111001D01*
X84849001Y-134125889D01*
X84923848Y-134111001D01*
X86572254Y-134111001D01*
X86555161Y-134136582D01*
X86439908Y-134716000D01*
X86555161Y-135295418D01*
X86883375Y-135786625D01*
X87202478Y-135999843D01*
X87072642Y-136060817D01*
X86682355Y-136489076D01*
X86512524Y-136899110D01*
X86633845Y-137129000D01*
X87827000Y-137129000D01*
X87827000Y-137109000D01*
X88081000Y-137109000D01*
X88081000Y-137129000D01*
X89274155Y-137129000D01*
X89395476Y-136899110D01*
X89225645Y-136489076D01*
X88835358Y-136060817D01*
X88705522Y-135999843D01*
X89024625Y-135786625D01*
X89352839Y-135295418D01*
X89468092Y-134716000D01*
X89352839Y-134136582D01*
X89335746Y-134111001D01*
X90364200Y-134111001D01*
X91522791Y-135269593D01*
X91449908Y-135636000D01*
X91565161Y-136215418D01*
X91893375Y-136706625D01*
X92212478Y-136919843D01*
X92082642Y-136980817D01*
X91692355Y-137409076D01*
X91522524Y-137819110D01*
X91643845Y-138049000D01*
X92837000Y-138049000D01*
X92837000Y-138029000D01*
X93091000Y-138029000D01*
X93091000Y-138049000D01*
X94284155Y-138049000D01*
X94405476Y-137819110D01*
X94235645Y-137409076D01*
X93845358Y-136980817D01*
X93715522Y-136919843D01*
X94034625Y-136706625D01*
X94362839Y-136215418D01*
X94478092Y-135636000D01*
X94362839Y-135056582D01*
X94034625Y-134565375D01*
X94016381Y-134553184D01*
X94061765Y-134544157D01*
X94271809Y-134403809D01*
X94412157Y-134193765D01*
X94461440Y-133946000D01*
X94461440Y-132246000D01*
X94412157Y-131998235D01*
X94271809Y-131788191D01*
X94061765Y-131647843D01*
X93814000Y-131598560D01*
X92114000Y-131598560D01*
X91866235Y-131647843D01*
X91656191Y-131788191D01*
X91515843Y-131998235D01*
X91466560Y-132246000D01*
X91466560Y-133063759D01*
X91269332Y-132866531D01*
X91226930Y-132803072D01*
X90975538Y-132635097D01*
X90753853Y-132591001D01*
X90753848Y-132591001D01*
X90679001Y-132576113D01*
X90604154Y-132591001D01*
X89385543Y-132591001D01*
X89468092Y-132176000D01*
X89352839Y-131596582D01*
X89024625Y-131105375D01*
X88726239Y-130906000D01*
X89024625Y-130706625D01*
X89352839Y-130215418D01*
X89468092Y-129636000D01*
X89352839Y-129056582D01*
X89024625Y-128565375D01*
X88705522Y-128352157D01*
X88835358Y-128291183D01*
X89225645Y-127862924D01*
X89395476Y-127452890D01*
X89274155Y-127223000D01*
X88081000Y-127223000D01*
X88081000Y-127243000D01*
X87827000Y-127243000D01*
X87827000Y-127223000D01*
X86633845Y-127223000D01*
X86512524Y-127452890D01*
X86682355Y-127862924D01*
X87072642Y-128291183D01*
X87202478Y-128352157D01*
X86883375Y-128565375D01*
X86555161Y-129056582D01*
X86439908Y-129636000D01*
X86555161Y-130215418D01*
X86883375Y-130706625D01*
X87181761Y-130906000D01*
X86883375Y-131105375D01*
X86555161Y-131596582D01*
X86439908Y-132176000D01*
X86522457Y-132591001D01*
X85163803Y-132591001D01*
X64795209Y-112222408D01*
X64868092Y-111856000D01*
X64752839Y-111276582D01*
X64424625Y-110785375D01*
X64126239Y-110586000D01*
X64424625Y-110386625D01*
X64752839Y-109895418D01*
X64868092Y-109316000D01*
X86439908Y-109316000D01*
X86555161Y-109895418D01*
X86883375Y-110386625D01*
X87181761Y-110586000D01*
X86883375Y-110785375D01*
X86555161Y-111276582D01*
X86439908Y-111856000D01*
X86555161Y-112435418D01*
X86883375Y-112926625D01*
X87181761Y-113126000D01*
X86883375Y-113325375D01*
X86555161Y-113816582D01*
X86439908Y-114396000D01*
X86555161Y-114975418D01*
X86883375Y-115466625D01*
X87181761Y-115666000D01*
X86883375Y-115865375D01*
X86555161Y-116356582D01*
X86439908Y-116936000D01*
X86555161Y-117515418D01*
X86883375Y-118006625D01*
X87181761Y-118206000D01*
X86883375Y-118405375D01*
X86555161Y-118896582D01*
X86439908Y-119476000D01*
X86555161Y-120055418D01*
X86883375Y-120546625D01*
X87181761Y-120746000D01*
X86883375Y-120945375D01*
X86555161Y-121436582D01*
X86439908Y-122016000D01*
X86555161Y-122595418D01*
X86883375Y-123086625D01*
X87181761Y-123286000D01*
X86883375Y-123485375D01*
X86555161Y-123976582D01*
X86439908Y-124556000D01*
X86555161Y-125135418D01*
X86883375Y-125626625D01*
X87202478Y-125839843D01*
X87072642Y-125900817D01*
X86682355Y-126329076D01*
X86512524Y-126739110D01*
X86633845Y-126969000D01*
X87827000Y-126969000D01*
X87827000Y-126949000D01*
X88081000Y-126949000D01*
X88081000Y-126969000D01*
X89274155Y-126969000D01*
X89395476Y-126739110D01*
X89225645Y-126329076D01*
X88835358Y-125900817D01*
X88705522Y-125839843D01*
X89024625Y-125626625D01*
X89352839Y-125135418D01*
X89468092Y-124556000D01*
X89352839Y-123976582D01*
X89024625Y-123485375D01*
X88726239Y-123286000D01*
X89024625Y-123086625D01*
X89352839Y-122595418D01*
X89468092Y-122016000D01*
X89352839Y-121436582D01*
X89024625Y-120945375D01*
X88726239Y-120746000D01*
X89024625Y-120546625D01*
X89352839Y-120055418D01*
X89468092Y-119476000D01*
X89352839Y-118896582D01*
X89024625Y-118405375D01*
X88726239Y-118206000D01*
X89024625Y-118006625D01*
X89352839Y-117515418D01*
X89468092Y-116936000D01*
X89352839Y-116356582D01*
X89024625Y-115865375D01*
X88726239Y-115666000D01*
X89024625Y-115466625D01*
X89352839Y-114975418D01*
X89468092Y-114396000D01*
X89352839Y-113816582D01*
X89024625Y-113325375D01*
X88726239Y-113126000D01*
X89024625Y-112926625D01*
X89352839Y-112435418D01*
X89468092Y-111856000D01*
X89352839Y-111276582D01*
X89024625Y-110785375D01*
X88726239Y-110586000D01*
X89024625Y-110386625D01*
X89352839Y-109895418D01*
X89468092Y-109316000D01*
X89352839Y-108736582D01*
X89024625Y-108245375D01*
X88705522Y-108032157D01*
X88835358Y-107971183D01*
X89225645Y-107542924D01*
X89395476Y-107132890D01*
X89274155Y-106903000D01*
X88081000Y-106903000D01*
X88081000Y-106923000D01*
X87827000Y-106923000D01*
X87827000Y-106903000D01*
X86633845Y-106903000D01*
X86512524Y-107132890D01*
X86682355Y-107542924D01*
X87072642Y-107971183D01*
X87202478Y-108032157D01*
X86883375Y-108245375D01*
X86555161Y-108736582D01*
X86439908Y-109316000D01*
X64868092Y-109316000D01*
X64752839Y-108736582D01*
X64424625Y-108245375D01*
X64126239Y-108046000D01*
X64424625Y-107846625D01*
X64752839Y-107355418D01*
X64868092Y-106776000D01*
X64752839Y-106196582D01*
X64424625Y-105705375D01*
X64406381Y-105693184D01*
X64451765Y-105684157D01*
X64661809Y-105543809D01*
X64802157Y-105333765D01*
X64851440Y-105086000D01*
X64851440Y-103386000D01*
X86456560Y-103386000D01*
X86456560Y-105086000D01*
X86505843Y-105333765D01*
X86646191Y-105543809D01*
X86856235Y-105684157D01*
X86959708Y-105704739D01*
X86682355Y-106009076D01*
X86512524Y-106419110D01*
X86633845Y-106649000D01*
X87827000Y-106649000D01*
X87827000Y-106629000D01*
X88081000Y-106629000D01*
X88081000Y-106649000D01*
X89274155Y-106649000D01*
X89395476Y-106419110D01*
X89225645Y-106009076D01*
X88948292Y-105704739D01*
X89051765Y-105684157D01*
X89261809Y-105543809D01*
X89402157Y-105333765D01*
X89451440Y-105086000D01*
X89451440Y-103386000D01*
X89402157Y-103138235D01*
X89261809Y-102928191D01*
X89051765Y-102787843D01*
X88804000Y-102738560D01*
X87104000Y-102738560D01*
X86856235Y-102787843D01*
X86646191Y-102928191D01*
X86505843Y-103138235D01*
X86456560Y-103386000D01*
X64851440Y-103386000D01*
X64802157Y-103138235D01*
X64661809Y-102928191D01*
X64451765Y-102787843D01*
X64204000Y-102738560D01*
X62504000Y-102738560D01*
X62256235Y-102787843D01*
X62046191Y-102928191D01*
X61905843Y-103138235D01*
X61856560Y-103386000D01*
X61856560Y-103587517D01*
X61706071Y-103688071D01*
X61663671Y-103751527D01*
X60815613Y-104599586D01*
X60830455Y-104549803D01*
X60834786Y-104541034D01*
X60850368Y-104483014D01*
X60887837Y-104357342D01*
X60886804Y-104347346D01*
X61287879Y-102853961D01*
X61897665Y-101043529D01*
X62696357Y-99134400D01*
X63690881Y-97238683D01*
X64885473Y-95467669D01*
X66280705Y-93929735D01*
X67875127Y-92725152D01*
X69675033Y-91940654D01*
X71666025Y-91663915D01*
X72815418Y-91969837D01*
G04 #@! TD*
M02*
