G04 #@! TF.GenerationSoftware,KiCad,Pcbnew,(5.0.0-3-g5ebb6b6)*
G04 #@! TF.CreationDate,2018-08-30T21:54:11-04:00*
G04 #@! TF.ProjectId,PCB,5043422E6B696361645F706362000000,rev?*
G04 #@! TF.SameCoordinates,Original*
G04 #@! TF.FileFunction,Legend,Bot*
G04 #@! TF.FilePolarity,Positive*
%FSLAX46Y46*%
G04 Gerber Fmt 4.6, Leading zero omitted, Abs format (unit mm)*
G04 Created by KiCad (PCBNEW (5.0.0-3-g5ebb6b6)) date Thursday, August 30, 2018 at 09:54:11 PM*
%MOMM*%
%LPD*%
G01*
G04 APERTURE LIST*
%ADD10C,0.120000*%
%ADD11C,0.150000*%
G04 APERTURE END LIST*
D10*
G04 #@! TO.C,U1*
X89284000Y-102906000D02*
X87954000Y-102906000D01*
X89284000Y-104236000D02*
X89284000Y-102906000D01*
X89284000Y-105506000D02*
X86624000Y-105506000D01*
X86624000Y-105506000D02*
X86624000Y-141126000D01*
X89284000Y-105506000D02*
X89284000Y-141126000D01*
X89284000Y-141126000D02*
X86624000Y-141126000D01*
X64684000Y-104236000D02*
X64684000Y-102906000D01*
X64684000Y-105506000D02*
X62024000Y-105506000D01*
X62024000Y-105506000D02*
X62024000Y-141126000D01*
X64684000Y-105506000D02*
X64684000Y-141126000D01*
X64684000Y-102906000D02*
X63354000Y-102906000D01*
X64684000Y-141126000D02*
X62024000Y-141126000D01*
D11*
X79754000Y-140736000D02*
X72754000Y-140736000D01*
X72754000Y-140736000D02*
X72754000Y-137636000D01*
X72754000Y-137636000D02*
X79854000Y-137636000D01*
X79854000Y-137636000D02*
X79854000Y-140736000D01*
X80354000Y-103936000D02*
X80354000Y-112936000D01*
X80354000Y-112936000D02*
X80354000Y-116836000D01*
X80354000Y-116836000D02*
X71354000Y-116836000D01*
X71354000Y-116836000D02*
X71354000Y-103836000D01*
X71354000Y-103836000D02*
X80354000Y-103836000D01*
X72354000Y-104836000D02*
X74454000Y-104836000D01*
X74454000Y-104836000D02*
X74454000Y-106936000D01*
X74454000Y-106936000D02*
X75354000Y-106936000D01*
X75354000Y-106936000D02*
X75354000Y-104836000D01*
X75354000Y-104836000D02*
X76354000Y-104836000D01*
X76354000Y-104836000D02*
X76354000Y-106936000D01*
X76354000Y-106936000D02*
X77354000Y-106936000D01*
X77354000Y-106936000D02*
X77354000Y-104836000D01*
X77354000Y-104836000D02*
X78354000Y-104836000D01*
X78354000Y-104836000D02*
X78354000Y-107536000D01*
X78354000Y-107536000D02*
X79354000Y-107536000D01*
X79354000Y-107536000D02*
X79354000Y-114436000D01*
X79354000Y-114436000D02*
X79354000Y-115936000D01*
X79354000Y-115936000D02*
X72254000Y-115936000D01*
X72254000Y-115936000D02*
X72254000Y-107636000D01*
X72254000Y-107636000D02*
X72254000Y-107536000D01*
X72254000Y-107536000D02*
X78354000Y-107536000D01*
D10*
G04 #@! TO.C,J1*
X58226000Y-107636000D02*
X56896000Y-107636000D01*
X58226000Y-108966000D02*
X58226000Y-107636000D01*
X58226000Y-110236000D02*
X55566000Y-110236000D01*
X55566000Y-110236000D02*
X55566000Y-115376000D01*
X58226000Y-110236000D02*
X58226000Y-115376000D01*
X58226000Y-115376000D02*
X55566000Y-115376000D01*
G04 #@! TO.C,J2*
X58226000Y-119574000D02*
X56896000Y-119574000D01*
X58226000Y-120904000D02*
X58226000Y-119574000D01*
X58226000Y-122174000D02*
X55566000Y-122174000D01*
X55566000Y-122174000D02*
X55566000Y-127314000D01*
X58226000Y-122174000D02*
X58226000Y-127314000D01*
X58226000Y-127314000D02*
X55566000Y-127314000D01*
G04 #@! TO.C,J3*
X58226000Y-138236000D02*
X55566000Y-138236000D01*
X58226000Y-133096000D02*
X58226000Y-138236000D01*
X55566000Y-133096000D02*
X55566000Y-138236000D01*
X58226000Y-133096000D02*
X55566000Y-133096000D01*
X58226000Y-131826000D02*
X58226000Y-130496000D01*
X58226000Y-130496000D02*
X56896000Y-130496000D01*
G04 #@! TO.C,J4*
X94294000Y-139506000D02*
X91634000Y-139506000D01*
X94294000Y-134366000D02*
X94294000Y-139506000D01*
X91634000Y-134366000D02*
X91634000Y-139506000D01*
X94294000Y-134366000D02*
X91634000Y-134366000D01*
X94294000Y-133096000D02*
X94294000Y-131766000D01*
X94294000Y-131766000D02*
X92964000Y-131766000D01*
G04 #@! TO.C,U1*
D11*
X88715904Y-101358380D02*
X88715904Y-102167904D01*
X88668285Y-102263142D01*
X88620666Y-102310761D01*
X88525428Y-102358380D01*
X88334952Y-102358380D01*
X88239714Y-102310761D01*
X88192095Y-102263142D01*
X88144476Y-102167904D01*
X88144476Y-101358380D01*
X87144476Y-102358380D02*
X87715904Y-102358380D01*
X87430190Y-102358380D02*
X87430190Y-101358380D01*
X87525428Y-101501238D01*
X87620666Y-101596476D01*
X87715904Y-101644095D01*
X77715904Y-138688380D02*
X77715904Y-139497904D01*
X77668285Y-139593142D01*
X77620666Y-139640761D01*
X77525428Y-139688380D01*
X77334952Y-139688380D01*
X77239714Y-139640761D01*
X77192095Y-139593142D01*
X77144476Y-139497904D01*
X77144476Y-138688380D01*
X76715904Y-139640761D02*
X76573047Y-139688380D01*
X76334952Y-139688380D01*
X76239714Y-139640761D01*
X76192095Y-139593142D01*
X76144476Y-139497904D01*
X76144476Y-139402666D01*
X76192095Y-139307428D01*
X76239714Y-139259809D01*
X76334952Y-139212190D01*
X76525428Y-139164571D01*
X76620666Y-139116952D01*
X76668285Y-139069333D01*
X76715904Y-138974095D01*
X76715904Y-138878857D01*
X76668285Y-138783619D01*
X76620666Y-138736000D01*
X76525428Y-138688380D01*
X76287333Y-138688380D01*
X76144476Y-138736000D01*
X75382571Y-139164571D02*
X75239714Y-139212190D01*
X75192095Y-139259809D01*
X75144476Y-139355047D01*
X75144476Y-139497904D01*
X75192095Y-139593142D01*
X75239714Y-139640761D01*
X75334952Y-139688380D01*
X75715904Y-139688380D01*
X75715904Y-138688380D01*
X75382571Y-138688380D01*
X75287333Y-138736000D01*
X75239714Y-138783619D01*
X75192095Y-138878857D01*
X75192095Y-138974095D01*
X75239714Y-139069333D01*
X75287333Y-139116952D01*
X75382571Y-139164571D01*
X75715904Y-139164571D01*
X75582571Y-108740761D02*
X75582571Y-109074095D01*
X76106380Y-109216952D02*
X76106380Y-108740761D01*
X75106380Y-108740761D01*
X75106380Y-109216952D01*
X76058761Y-109597904D02*
X76106380Y-109740761D01*
X76106380Y-109978857D01*
X76058761Y-110074095D01*
X76011142Y-110121714D01*
X75915904Y-110169333D01*
X75820666Y-110169333D01*
X75725428Y-110121714D01*
X75677809Y-110074095D01*
X75630190Y-109978857D01*
X75582571Y-109788380D01*
X75534952Y-109693142D01*
X75487333Y-109645523D01*
X75392095Y-109597904D01*
X75296857Y-109597904D01*
X75201619Y-109645523D01*
X75154000Y-109693142D01*
X75106380Y-109788380D01*
X75106380Y-110026476D01*
X75154000Y-110169333D01*
X76106380Y-110597904D02*
X75106380Y-110597904D01*
X75106380Y-110978857D01*
X75154000Y-111074095D01*
X75201619Y-111121714D01*
X75296857Y-111169333D01*
X75439714Y-111169333D01*
X75534952Y-111121714D01*
X75582571Y-111074095D01*
X75630190Y-110978857D01*
X75630190Y-110597904D01*
X75534952Y-111740761D02*
X75487333Y-111645523D01*
X75439714Y-111597904D01*
X75344476Y-111550285D01*
X75296857Y-111550285D01*
X75201619Y-111597904D01*
X75154000Y-111645523D01*
X75106380Y-111740761D01*
X75106380Y-111931238D01*
X75154000Y-112026476D01*
X75201619Y-112074095D01*
X75296857Y-112121714D01*
X75344476Y-112121714D01*
X75439714Y-112074095D01*
X75487333Y-112026476D01*
X75534952Y-111931238D01*
X75534952Y-111740761D01*
X75582571Y-111645523D01*
X75630190Y-111597904D01*
X75725428Y-111550285D01*
X75915904Y-111550285D01*
X76011142Y-111597904D01*
X76058761Y-111645523D01*
X76106380Y-111740761D01*
X76106380Y-111931238D01*
X76058761Y-112026476D01*
X76011142Y-112074095D01*
X75915904Y-112121714D01*
X75725428Y-112121714D01*
X75630190Y-112074095D01*
X75582571Y-112026476D01*
X75534952Y-111931238D01*
X75201619Y-112502666D02*
X75154000Y-112550285D01*
X75106380Y-112645523D01*
X75106380Y-112883619D01*
X75154000Y-112978857D01*
X75201619Y-113026476D01*
X75296857Y-113074095D01*
X75392095Y-113074095D01*
X75534952Y-113026476D01*
X76106380Y-112455047D01*
X76106380Y-113074095D01*
X75106380Y-113931238D02*
X75106380Y-113740761D01*
X75154000Y-113645523D01*
X75201619Y-113597904D01*
X75344476Y-113502666D01*
X75534952Y-113455047D01*
X75915904Y-113455047D01*
X76011142Y-113502666D01*
X76058761Y-113550285D01*
X76106380Y-113645523D01*
X76106380Y-113836000D01*
X76058761Y-113931238D01*
X76011142Y-113978857D01*
X75915904Y-114026476D01*
X75677809Y-114026476D01*
X75582571Y-113978857D01*
X75534952Y-113931238D01*
X75487333Y-113836000D01*
X75487333Y-113645523D01*
X75534952Y-113550285D01*
X75582571Y-113502666D01*
X75677809Y-113455047D01*
X75106380Y-114883619D02*
X75106380Y-114693142D01*
X75154000Y-114597904D01*
X75201619Y-114550285D01*
X75344476Y-114455047D01*
X75534952Y-114407428D01*
X75915904Y-114407428D01*
X76011142Y-114455047D01*
X76058761Y-114502666D01*
X76106380Y-114597904D01*
X76106380Y-114788380D01*
X76058761Y-114883619D01*
X76011142Y-114931238D01*
X75915904Y-114978857D01*
X75677809Y-114978857D01*
X75582571Y-114931238D01*
X75534952Y-114883619D01*
X75487333Y-114788380D01*
X75487333Y-114597904D01*
X75534952Y-114502666D01*
X75582571Y-114455047D01*
X75677809Y-114407428D01*
G04 #@! TO.C,J1*
X57229333Y-106088380D02*
X57229333Y-106802666D01*
X57276952Y-106945523D01*
X57372190Y-107040761D01*
X57515047Y-107088380D01*
X57610285Y-107088380D01*
X56229333Y-107088380D02*
X56800761Y-107088380D01*
X56515047Y-107088380D02*
X56515047Y-106088380D01*
X56610285Y-106231238D01*
X56705523Y-106326476D01*
X56800761Y-106374095D01*
G04 #@! TO.C,J2*
X57229333Y-118026380D02*
X57229333Y-118740666D01*
X57276952Y-118883523D01*
X57372190Y-118978761D01*
X57515047Y-119026380D01*
X57610285Y-119026380D01*
X56800761Y-118121619D02*
X56753142Y-118074000D01*
X56657904Y-118026380D01*
X56419809Y-118026380D01*
X56324571Y-118074000D01*
X56276952Y-118121619D01*
X56229333Y-118216857D01*
X56229333Y-118312095D01*
X56276952Y-118454952D01*
X56848380Y-119026380D01*
X56229333Y-119026380D01*
G04 #@! TO.C,J3*
X57229333Y-128948380D02*
X57229333Y-129662666D01*
X57276952Y-129805523D01*
X57372190Y-129900761D01*
X57515047Y-129948380D01*
X57610285Y-129948380D01*
X56848380Y-128948380D02*
X56229333Y-128948380D01*
X56562666Y-129329333D01*
X56419809Y-129329333D01*
X56324571Y-129376952D01*
X56276952Y-129424571D01*
X56229333Y-129519809D01*
X56229333Y-129757904D01*
X56276952Y-129853142D01*
X56324571Y-129900761D01*
X56419809Y-129948380D01*
X56705523Y-129948380D01*
X56800761Y-129900761D01*
X56848380Y-129853142D01*
G04 #@! TO.C,J4*
X93297333Y-130218380D02*
X93297333Y-130932666D01*
X93344952Y-131075523D01*
X93440190Y-131170761D01*
X93583047Y-131218380D01*
X93678285Y-131218380D01*
X92392571Y-130551714D02*
X92392571Y-131218380D01*
X92630666Y-130170761D02*
X92868761Y-130885047D01*
X92249714Y-130885047D01*
G04 #@! TD*
M02*
