G04 #@! TF.GenerationSoftware,KiCad,Pcbnew,(5.0.0-3-g5ebb6b6)*
G04 #@! TF.CreationDate,2018-08-30T21:54:11-04:00*
G04 #@! TF.ProjectId,PCB,5043422E6B696361645F706362000000,rev?*
G04 #@! TF.SameCoordinates,Original*
G04 #@! TF.FileFunction,Profile,NP*
%FSLAX46Y46*%
G04 Gerber Fmt 4.6, Leading zero omitted, Abs format (unit mm)*
G04 Created by KiCad (PCBNEW (5.0.0-3-g5ebb6b6)) date Thursday, August 30, 2018 at 09:54:11 PM*
%MOMM*%
%LPD*%
G01*
G04 APERTURE LIST*
G04 #@! TA.AperFunction,NonConductor*
%ADD10C,0.146328*%
G04 #@! TD*
G04 APERTURE END LIST*
D10*
G04 #@! TO.C,svg2mod*
X91607150Y-102108883D02*
X91532611Y-101602942D01*
X91802676Y-103432827D02*
X91607150Y-102108883D01*
X92101832Y-105457400D02*
X91802676Y-103432827D01*
X92487260Y-108065227D02*
X92101832Y-105457400D01*
X92941602Y-111138936D02*
X92487260Y-108065227D01*
X93447500Y-114561152D02*
X92941602Y-111138936D01*
X93987598Y-118214503D02*
X93447500Y-114561152D01*
X94544537Y-121981613D02*
X93987598Y-118214503D01*
X95100960Y-125745110D02*
X94544537Y-121981613D01*
X95639509Y-129387620D02*
X95100960Y-125745110D01*
X96142826Y-132791769D02*
X95639509Y-129387620D01*
X96593554Y-135840183D02*
X96142826Y-132791769D01*
X96974336Y-138415490D02*
X96593554Y-135840183D01*
X97267813Y-140400314D02*
X96974336Y-138415490D01*
X97456628Y-141677282D02*
X97267813Y-140400314D01*
X97523424Y-142129022D02*
X97456628Y-141677282D01*
X80564140Y-145785179D02*
X97523424Y-142129022D01*
X49288576Y-139926518D02*
X80564140Y-145785179D01*
X49356165Y-139403029D02*
X49288576Y-139926518D01*
X49544656Y-137943722D02*
X49356165Y-139403029D01*
X49832636Y-135715333D02*
X49544656Y-137943722D01*
X50198690Y-132884599D02*
X49832636Y-135715333D01*
X50621407Y-129618256D02*
X50198690Y-132884599D01*
X51079371Y-126083041D02*
X50621407Y-129618256D01*
X51551171Y-122445691D02*
X51079371Y-126083041D01*
X52015391Y-118872942D02*
X51551171Y-122445691D01*
X52450618Y-115531531D02*
X52015391Y-118872942D01*
X52835440Y-112588195D02*
X52450618Y-115531531D01*
X53148442Y-110209671D02*
X52835440Y-112588195D01*
X53368212Y-108562695D02*
X53148442Y-110209671D01*
X53473334Y-107814004D02*
X53368212Y-108562695D01*
X53842254Y-106459464D02*
X53473334Y-107814004D01*
X55235338Y-105831750D02*
X53842254Y-106459464D01*
X56760572Y-105341693D02*
X55235338Y-105831750D01*
X60168948Y-104289997D02*
X56760572Y-105341693D01*
X60609691Y-102648905D02*
X60168948Y-104289997D01*
X61234610Y-100793544D02*
X60609691Y-102648905D01*
X62054944Y-98832681D02*
X61234610Y-100793544D01*
X63081934Y-96875080D02*
X62054944Y-98832681D01*
X64326817Y-95029509D02*
X63081934Y-96875080D01*
X65800834Y-93404731D02*
X64326817Y-95029509D01*
X67515222Y-92109513D02*
X65800834Y-93404731D01*
X69481222Y-91252621D02*
X67515222Y-92109513D01*
X71710072Y-90942821D02*
X69481222Y-91252621D01*
X73158218Y-91328259D02*
X71710072Y-90942821D01*
X74573327Y-92572674D02*
X73158218Y-91328259D01*
X74837628Y-92572674D02*
X74573327Y-92572674D01*
X76878386Y-93022811D02*
X74837628Y-92572674D01*
X78477267Y-94224552D02*
X76878386Y-93022811D01*
X79687956Y-95954895D02*
X78477267Y-94224552D01*
X80564140Y-97990834D02*
X79687956Y-95954895D01*
X82193993Y-97506284D02*
X80564140Y-97990834D01*
X83383345Y-97638434D02*
X82193993Y-97506284D01*
X85145348Y-99361894D02*
X83383345Y-97638434D01*
X86643052Y-100854090D02*
X85145348Y-99361894D01*
X88762962Y-101008266D02*
X86643052Y-100854090D01*
X91048061Y-101162441D02*
X88762962Y-101008266D01*
X91532611Y-101602942D02*
X91048061Y-101162441D01*
G04 #@! TD*
M02*
