G04 #@! TF.GenerationSoftware,KiCad,Pcbnew,(5.0.0-3-g5ebb6b6)*
G04 #@! TF.CreationDate,2018-08-30T21:54:11-04:00*
G04 #@! TF.ProjectId,PCB,5043422E6B696361645F706362000000,rev?*
G04 #@! TF.SameCoordinates,Original*
G04 #@! TF.FileFunction,Copper,L1,Top,Signal*
G04 #@! TF.FilePolarity,Positive*
%FSLAX46Y46*%
G04 Gerber Fmt 4.6, Leading zero omitted, Abs format (unit mm)*
G04 Created by KiCad (PCBNEW (5.0.0-3-g5ebb6b6)) date Thursday, August 30, 2018 at 09:54:11 PM*
%MOMM*%
%LPD*%
G01*
G04 APERTURE LIST*
G04 #@! TA.AperFunction,ComponentPad*
%ADD10O,1.700000X1.700000*%
G04 #@! TD*
G04 #@! TA.AperFunction,ComponentPad*
%ADD11R,1.700000X1.700000*%
G04 #@! TD*
G04 #@! TA.AperFunction,Conductor*
%ADD12C,0.254000*%
G04 #@! TD*
G04 APERTURE END LIST*
D10*
G04 #@! TO.P,U1,15*
G04 #@! TO.N,VCC*
X87954000Y-139796000D03*
G04 #@! TO.P,U1,14*
G04 #@! TO.N,GND*
X87954000Y-137256000D03*
G04 #@! TO.P,U1,13*
G04 #@! TO.N,Net-(U1-Pad13)*
X87954000Y-134716000D03*
G04 #@! TO.P,U1,12*
G04 #@! TO.N,Net-(U1-Pad12)*
X87954000Y-132176000D03*
G04 #@! TO.P,U1,11*
G04 #@! TO.N,Net-(U1-Pad11)*
X87954000Y-129636000D03*
G04 #@! TO.P,U1,10*
G04 #@! TO.N,GND*
X87954000Y-127096000D03*
G04 #@! TO.P,U1,9*
G04 #@! TO.N,Net-(U1-Pad9)*
X87954000Y-124556000D03*
G04 #@! TO.P,U1,8*
G04 #@! TO.N,Net-(U1-Pad8)*
X87954000Y-122016000D03*
G04 #@! TO.P,U1,7*
G04 #@! TO.N,Net-(U1-Pad7)*
X87954000Y-119476000D03*
G04 #@! TO.P,U1,6*
G04 #@! TO.N,Net-(U1-Pad6)*
X87954000Y-116936000D03*
G04 #@! TO.P,U1,5*
G04 #@! TO.N,Net-(U1-Pad5)*
X87954000Y-114396000D03*
G04 #@! TO.P,U1,4*
G04 #@! TO.N,Net-(U1-Pad4)*
X87954000Y-111856000D03*
G04 #@! TO.P,U1,3*
G04 #@! TO.N,Net-(U1-Pad3)*
X87954000Y-109316000D03*
G04 #@! TO.P,U1,2*
G04 #@! TO.N,GND*
X87954000Y-106776000D03*
D11*
G04 #@! TO.P,U1,1*
G04 #@! TO.N,Net-(U1-Pad1)*
X87954000Y-104236000D03*
D10*
G04 #@! TO.P,U1,29*
G04 #@! TO.N,GND*
X63354000Y-137256000D03*
G04 #@! TO.P,U1,28*
G04 #@! TO.N,Net-(U1-Pad28)*
X63354000Y-134716000D03*
G04 #@! TO.P,U1,27*
G04 #@! TO.N,Net-(U1-Pad27)*
X63354000Y-132176000D03*
G04 #@! TO.P,U1,26*
G04 #@! TO.N,Net-(U1-Pad26)*
X63354000Y-129636000D03*
G04 #@! TO.P,U1,25*
G04 #@! TO.N,Net-(U1-Pad25)*
X63354000Y-127096000D03*
G04 #@! TO.P,U1,18*
G04 #@! TO.N,/FLOW3*
X63354000Y-109316000D03*
G04 #@! TO.P,U1,17*
G04 #@! TO.N,/FLOW2*
X63354000Y-106776000D03*
D11*
G04 #@! TO.P,U1,16*
G04 #@! TO.N,/FLOW1*
X63354000Y-104236000D03*
D10*
G04 #@! TO.P,U1,20*
G04 #@! TO.N,Net-(U1-Pad20)*
X63354000Y-114396000D03*
G04 #@! TO.P,U1,19*
G04 #@! TO.N,/FLOW4*
X63354000Y-111856000D03*
G04 #@! TO.P,U1,30*
G04 #@! TO.N,Net-(U1-Pad30)*
X63354000Y-139796000D03*
G04 #@! TO.P,U1,24*
G04 #@! TO.N,Net-(U1-Pad24)*
X63354000Y-124556000D03*
G04 #@! TO.P,U1,23*
G04 #@! TO.N,Net-(U1-Pad23)*
X63354000Y-122016000D03*
G04 #@! TO.P,U1,22*
G04 #@! TO.N,GND*
X63354000Y-119476000D03*
G04 #@! TO.P,U1,21*
G04 #@! TO.N,Net-(U1-Pad21)*
X63354000Y-116936000D03*
G04 #@! TD*
G04 #@! TO.P,J1,3*
G04 #@! TO.N,GND*
X56896000Y-114046000D03*
G04 #@! TO.P,J1,2*
G04 #@! TO.N,/FLOW1*
X56896000Y-111506000D03*
D11*
G04 #@! TO.P,J1,1*
G04 #@! TO.N,VCC*
X56896000Y-108966000D03*
G04 #@! TD*
D10*
G04 #@! TO.P,J2,3*
G04 #@! TO.N,GND*
X56896000Y-125984000D03*
G04 #@! TO.P,J2,2*
G04 #@! TO.N,/FLOW2*
X56896000Y-123444000D03*
D11*
G04 #@! TO.P,J2,1*
G04 #@! TO.N,VCC*
X56896000Y-120904000D03*
G04 #@! TD*
G04 #@! TO.P,J3,1*
G04 #@! TO.N,VCC*
X56896000Y-131826000D03*
D10*
G04 #@! TO.P,J3,2*
G04 #@! TO.N,/FLOW3*
X56896000Y-134366000D03*
G04 #@! TO.P,J3,3*
G04 #@! TO.N,GND*
X56896000Y-136906000D03*
G04 #@! TD*
D11*
G04 #@! TO.P,J4,1*
G04 #@! TO.N,VCC*
X92964000Y-133096000D03*
D10*
G04 #@! TO.P,J4,2*
G04 #@! TO.N,/FLOW4*
X92964000Y-135636000D03*
G04 #@! TO.P,J4,3*
G04 #@! TO.N,GND*
X92964000Y-138176000D03*
G04 #@! TD*
D12*
G04 #@! TO.N,VCC*
G36*
X72815418Y-91969837D02*
X74036038Y-93043224D01*
X74062770Y-93083231D01*
X74140894Y-93135432D01*
X74158054Y-93150522D01*
X74198765Y-93174100D01*
X74297015Y-93239749D01*
X74320016Y-93244324D01*
X74340309Y-93256077D01*
X74457434Y-93271658D01*
X74503583Y-93280838D01*
X74526437Y-93280838D01*
X74619573Y-93293228D01*
X74666065Y-93280838D01*
X74760457Y-93280838D01*
X76575764Y-93681246D01*
X77961664Y-94722909D01*
X79066144Y-96301457D01*
X79869375Y-98167883D01*
X79872042Y-98196592D01*
X79924698Y-98296434D01*
X79941226Y-98334839D01*
X79957176Y-98358016D01*
X80003465Y-98445785D01*
X80036376Y-98473101D01*
X80060626Y-98508339D01*
X80143892Y-98562340D01*
X80220246Y-98625714D01*
X80261105Y-98638356D01*
X80296994Y-98661632D01*
X80394584Y-98679658D01*
X80489382Y-98708990D01*
X80531970Y-98705034D01*
X80574032Y-98712803D01*
X80671094Y-98692110D01*
X80699093Y-98689509D01*
X80739143Y-98677602D01*
X80849565Y-98654061D01*
X80873323Y-98637711D01*
X82258330Y-98225954D01*
X83062613Y-98315319D01*
X84647878Y-99865907D01*
X86074891Y-101287674D01*
X86096807Y-101326268D01*
X86173834Y-101386253D01*
X86192634Y-101404984D01*
X86228755Y-101429023D01*
X86319081Y-101499365D01*
X86345315Y-101506596D01*
X86367970Y-101521673D01*
X86480307Y-101543803D01*
X86522125Y-101555329D01*
X86548585Y-101557253D01*
X86644382Y-101576125D01*
X86687900Y-101567385D01*
X88643901Y-101709641D01*
X88645705Y-101710128D01*
X88713393Y-101714695D01*
X88781154Y-101719623D01*
X88783011Y-101719392D01*
X90754245Y-101852391D01*
X90868912Y-101956635D01*
X90896402Y-102143224D01*
X90896396Y-102143349D01*
X90906590Y-102212375D01*
X90916715Y-102281099D01*
X90916757Y-102281216D01*
X91091925Y-103467318D01*
X91091924Y-103467348D01*
X91102998Y-103542292D01*
X91112301Y-103605285D01*
X91112309Y-103605309D01*
X91391082Y-105491931D01*
X91391081Y-105491944D01*
X91400339Y-105554582D01*
X91411470Y-105629911D01*
X91411474Y-105629921D01*
X91776510Y-108099777D01*
X91776510Y-108099785D01*
X91787251Y-108172449D01*
X91796904Y-108237761D01*
X91796906Y-108237766D01*
X92230852Y-111173495D01*
X92230852Y-111173502D01*
X92757149Y-114733707D01*
X92757150Y-114733711D01*
X93297248Y-118387063D01*
X93297250Y-118387067D01*
X93854188Y-122154177D01*
X93854189Y-122154180D01*
X94390211Y-125779691D01*
X94390211Y-125779692D01*
X94928760Y-129422201D01*
X94928760Y-129422204D01*
X95432077Y-132826355D01*
X95882806Y-135874771D01*
X96283990Y-138588066D01*
X96283991Y-138588070D01*
X96557065Y-140434903D01*
X96557065Y-140434904D01*
X96725868Y-141576530D01*
X80554334Y-145062860D01*
X50076589Y-139353650D01*
X50246962Y-138034617D01*
X50535891Y-135798885D01*
X50721183Y-134366000D01*
X55381908Y-134366000D01*
X55497161Y-134945418D01*
X55825375Y-135436625D01*
X56123761Y-135636000D01*
X55825375Y-135835375D01*
X55497161Y-136326582D01*
X55381908Y-136906000D01*
X55497161Y-137485418D01*
X55825375Y-137976625D01*
X56316582Y-138304839D01*
X56749744Y-138391000D01*
X57042256Y-138391000D01*
X57475418Y-138304839D01*
X57966625Y-137976625D01*
X58294839Y-137485418D01*
X58410092Y-136906000D01*
X58294839Y-136326582D01*
X57966625Y-135835375D01*
X57668239Y-135636000D01*
X57966625Y-135436625D01*
X58294839Y-134945418D01*
X58410092Y-134366000D01*
X58294839Y-133786582D01*
X57966625Y-133295375D01*
X57944967Y-133280904D01*
X58105698Y-133214327D01*
X58284327Y-133035699D01*
X58381000Y-132802310D01*
X58381000Y-132111750D01*
X58222250Y-131953000D01*
X57023000Y-131953000D01*
X57023000Y-131973000D01*
X56769000Y-131973000D01*
X56769000Y-131953000D01*
X55569750Y-131953000D01*
X55411000Y-132111750D01*
X55411000Y-132802310D01*
X55507673Y-133035699D01*
X55686302Y-133214327D01*
X55847033Y-133280904D01*
X55825375Y-133295375D01*
X55497161Y-133786582D01*
X55381908Y-134366000D01*
X50721183Y-134366000D01*
X50901836Y-132969000D01*
X51176109Y-130849690D01*
X55411000Y-130849690D01*
X55411000Y-131540250D01*
X55569750Y-131699000D01*
X56769000Y-131699000D01*
X56769000Y-130499750D01*
X57023000Y-130499750D01*
X57023000Y-131699000D01*
X58222250Y-131699000D01*
X58381000Y-131540250D01*
X58381000Y-130849690D01*
X58284327Y-130616301D01*
X58105698Y-130437673D01*
X57872309Y-130341000D01*
X57181750Y-130341000D01*
X57023000Y-130499750D01*
X56769000Y-130499750D01*
X56610250Y-130341000D01*
X55919691Y-130341000D01*
X55686302Y-130437673D01*
X55507673Y-130616301D01*
X55411000Y-130849690D01*
X51176109Y-130849690D01*
X51324119Y-129706017D01*
X51781525Y-126175107D01*
X52135776Y-123444000D01*
X55381908Y-123444000D01*
X55497161Y-124023418D01*
X55825375Y-124514625D01*
X56123761Y-124714000D01*
X55825375Y-124913375D01*
X55497161Y-125404582D01*
X55381908Y-125984000D01*
X55497161Y-126563418D01*
X55825375Y-127054625D01*
X56316582Y-127382839D01*
X56749744Y-127469000D01*
X57042256Y-127469000D01*
X57475418Y-127382839D01*
X57966625Y-127054625D01*
X58294839Y-126563418D01*
X58410092Y-125984000D01*
X58294839Y-125404582D01*
X57966625Y-124913375D01*
X57668239Y-124714000D01*
X57966625Y-124514625D01*
X58294839Y-124023418D01*
X58410092Y-123444000D01*
X58294839Y-122864582D01*
X57966625Y-122373375D01*
X57944967Y-122358904D01*
X58105698Y-122292327D01*
X58284327Y-122113699D01*
X58381000Y-121880310D01*
X58381000Y-121189750D01*
X58222250Y-121031000D01*
X57023000Y-121031000D01*
X57023000Y-121051000D01*
X56769000Y-121051000D01*
X56769000Y-121031000D01*
X55569750Y-121031000D01*
X55411000Y-121189750D01*
X55411000Y-121880310D01*
X55507673Y-122113699D01*
X55686302Y-122292327D01*
X55847033Y-122358904D01*
X55825375Y-122373375D01*
X55497161Y-122864582D01*
X55381908Y-123444000D01*
X52135776Y-123444000D01*
X52253605Y-122535599D01*
X52592460Y-119927690D01*
X55411000Y-119927690D01*
X55411000Y-120618250D01*
X55569750Y-120777000D01*
X56769000Y-120777000D01*
X56769000Y-119577750D01*
X57023000Y-119577750D01*
X57023000Y-120777000D01*
X58222250Y-120777000D01*
X58381000Y-120618250D01*
X58381000Y-119927690D01*
X58284327Y-119694301D01*
X58105698Y-119515673D01*
X57872309Y-119419000D01*
X57181750Y-119419000D01*
X57023000Y-119577750D01*
X56769000Y-119577750D01*
X56610250Y-119419000D01*
X55919691Y-119419000D01*
X55686302Y-119515673D01*
X55507673Y-119694301D01*
X55411000Y-119927690D01*
X52592460Y-119927690D01*
X52717897Y-118962298D01*
X53152877Y-115622792D01*
X53537554Y-112680561D01*
X53692120Y-111506000D01*
X55381908Y-111506000D01*
X55497161Y-112085418D01*
X55825375Y-112576625D01*
X56123761Y-112776000D01*
X55825375Y-112975375D01*
X55497161Y-113466582D01*
X55381908Y-114046000D01*
X55497161Y-114625418D01*
X55825375Y-115116625D01*
X56316582Y-115444839D01*
X56749744Y-115531000D01*
X57042256Y-115531000D01*
X57475418Y-115444839D01*
X57966625Y-115116625D01*
X58294839Y-114625418D01*
X58410092Y-114046000D01*
X58294839Y-113466582D01*
X57966625Y-112975375D01*
X57668239Y-112776000D01*
X57966625Y-112576625D01*
X58294839Y-112085418D01*
X58410092Y-111506000D01*
X58294839Y-110926582D01*
X57966625Y-110435375D01*
X57944967Y-110420904D01*
X58105698Y-110354327D01*
X58284327Y-110175699D01*
X58381000Y-109942310D01*
X58381000Y-109251750D01*
X58222250Y-109093000D01*
X57023000Y-109093000D01*
X57023000Y-109113000D01*
X56769000Y-109113000D01*
X56769000Y-109093000D01*
X55569750Y-109093000D01*
X55411000Y-109251750D01*
X55411000Y-109942310D01*
X55507673Y-110175699D01*
X55686302Y-110354327D01*
X55847033Y-110420904D01*
X55825375Y-110435375D01*
X55497161Y-110926582D01*
X55381908Y-111506000D01*
X53692120Y-111506000D01*
X53850491Y-110302533D01*
X54069829Y-108658795D01*
X54163776Y-107989690D01*
X55411000Y-107989690D01*
X55411000Y-108680250D01*
X55569750Y-108839000D01*
X56769000Y-108839000D01*
X56769000Y-107639750D01*
X57023000Y-107639750D01*
X57023000Y-108839000D01*
X58222250Y-108839000D01*
X58381000Y-108680250D01*
X58381000Y-107989690D01*
X58284327Y-107756301D01*
X58105698Y-107577673D01*
X57872309Y-107481000D01*
X57181750Y-107481000D01*
X57023000Y-107639750D01*
X56769000Y-107639750D01*
X56610250Y-107481000D01*
X55919691Y-107481000D01*
X55686302Y-107577673D01*
X55507673Y-107756301D01*
X55411000Y-107989690D01*
X54163776Y-107989690D01*
X54168387Y-107956855D01*
X54437743Y-106967875D01*
X54863571Y-106776000D01*
X61839908Y-106776000D01*
X61955161Y-107355418D01*
X62283375Y-107846625D01*
X62581761Y-108046000D01*
X62283375Y-108245375D01*
X61955161Y-108736582D01*
X61839908Y-109316000D01*
X61955161Y-109895418D01*
X62283375Y-110386625D01*
X62581761Y-110586000D01*
X62283375Y-110785375D01*
X61955161Y-111276582D01*
X61839908Y-111856000D01*
X61955161Y-112435418D01*
X62283375Y-112926625D01*
X62581761Y-113126000D01*
X62283375Y-113325375D01*
X61955161Y-113816582D01*
X61839908Y-114396000D01*
X61955161Y-114975418D01*
X62283375Y-115466625D01*
X62581761Y-115666000D01*
X62283375Y-115865375D01*
X61955161Y-116356582D01*
X61839908Y-116936000D01*
X61955161Y-117515418D01*
X62283375Y-118006625D01*
X62581761Y-118206000D01*
X62283375Y-118405375D01*
X61955161Y-118896582D01*
X61839908Y-119476000D01*
X61955161Y-120055418D01*
X62283375Y-120546625D01*
X62581761Y-120746000D01*
X62283375Y-120945375D01*
X61955161Y-121436582D01*
X61839908Y-122016000D01*
X61955161Y-122595418D01*
X62283375Y-123086625D01*
X62581761Y-123286000D01*
X62283375Y-123485375D01*
X61955161Y-123976582D01*
X61839908Y-124556000D01*
X61955161Y-125135418D01*
X62283375Y-125626625D01*
X62581761Y-125826000D01*
X62283375Y-126025375D01*
X61955161Y-126516582D01*
X61839908Y-127096000D01*
X61955161Y-127675418D01*
X62283375Y-128166625D01*
X62581761Y-128366000D01*
X62283375Y-128565375D01*
X61955161Y-129056582D01*
X61839908Y-129636000D01*
X61955161Y-130215418D01*
X62283375Y-130706625D01*
X62581761Y-130906000D01*
X62283375Y-131105375D01*
X61955161Y-131596582D01*
X61839908Y-132176000D01*
X61955161Y-132755418D01*
X62283375Y-133246625D01*
X62581761Y-133446000D01*
X62283375Y-133645375D01*
X61955161Y-134136582D01*
X61839908Y-134716000D01*
X61955161Y-135295418D01*
X62283375Y-135786625D01*
X62581761Y-135986000D01*
X62283375Y-136185375D01*
X61955161Y-136676582D01*
X61839908Y-137256000D01*
X61955161Y-137835418D01*
X62283375Y-138326625D01*
X62581761Y-138526000D01*
X62283375Y-138725375D01*
X61955161Y-139216582D01*
X61839908Y-139796000D01*
X61955161Y-140375418D01*
X62283375Y-140866625D01*
X62774582Y-141194839D01*
X63207744Y-141281000D01*
X63500256Y-141281000D01*
X63933418Y-141194839D01*
X64424625Y-140866625D01*
X64752839Y-140375418D01*
X64797102Y-140152890D01*
X86512524Y-140152890D01*
X86682355Y-140562924D01*
X87072642Y-140991183D01*
X87597108Y-141237486D01*
X87827000Y-141116819D01*
X87827000Y-139923000D01*
X88081000Y-139923000D01*
X88081000Y-141116819D01*
X88310892Y-141237486D01*
X88835358Y-140991183D01*
X89225645Y-140562924D01*
X89395476Y-140152890D01*
X89274155Y-139923000D01*
X88081000Y-139923000D01*
X87827000Y-139923000D01*
X86633845Y-139923000D01*
X86512524Y-140152890D01*
X64797102Y-140152890D01*
X64868092Y-139796000D01*
X64752839Y-139216582D01*
X64424625Y-138725375D01*
X64126239Y-138526000D01*
X64424625Y-138326625D01*
X64752839Y-137835418D01*
X64868092Y-137256000D01*
X64752839Y-136676582D01*
X64424625Y-136185375D01*
X64126239Y-135986000D01*
X64424625Y-135786625D01*
X64752839Y-135295418D01*
X64868092Y-134716000D01*
X64752839Y-134136582D01*
X64424625Y-133645375D01*
X64126239Y-133446000D01*
X64424625Y-133246625D01*
X64752839Y-132755418D01*
X64868092Y-132176000D01*
X64752839Y-131596582D01*
X64424625Y-131105375D01*
X64126239Y-130906000D01*
X64424625Y-130706625D01*
X64752839Y-130215418D01*
X64868092Y-129636000D01*
X64752839Y-129056582D01*
X64424625Y-128565375D01*
X64126239Y-128366000D01*
X64424625Y-128166625D01*
X64752839Y-127675418D01*
X64868092Y-127096000D01*
X64752839Y-126516582D01*
X64424625Y-126025375D01*
X64126239Y-125826000D01*
X64424625Y-125626625D01*
X64752839Y-125135418D01*
X64868092Y-124556000D01*
X64752839Y-123976582D01*
X64424625Y-123485375D01*
X64126239Y-123286000D01*
X64424625Y-123086625D01*
X64752839Y-122595418D01*
X64868092Y-122016000D01*
X64752839Y-121436582D01*
X64424625Y-120945375D01*
X64126239Y-120746000D01*
X64424625Y-120546625D01*
X64752839Y-120055418D01*
X64868092Y-119476000D01*
X64752839Y-118896582D01*
X64424625Y-118405375D01*
X64126239Y-118206000D01*
X64424625Y-118006625D01*
X64752839Y-117515418D01*
X64868092Y-116936000D01*
X64752839Y-116356582D01*
X64424625Y-115865375D01*
X64126239Y-115666000D01*
X64424625Y-115466625D01*
X64752839Y-114975418D01*
X64868092Y-114396000D01*
X64752839Y-113816582D01*
X64424625Y-113325375D01*
X64126239Y-113126000D01*
X64424625Y-112926625D01*
X64752839Y-112435418D01*
X64868092Y-111856000D01*
X64752839Y-111276582D01*
X64424625Y-110785375D01*
X64126239Y-110586000D01*
X64424625Y-110386625D01*
X64752839Y-109895418D01*
X64868092Y-109316000D01*
X64752839Y-108736582D01*
X64424625Y-108245375D01*
X64126239Y-108046000D01*
X64424625Y-107846625D01*
X64752839Y-107355418D01*
X64868092Y-106776000D01*
X86439908Y-106776000D01*
X86555161Y-107355418D01*
X86883375Y-107846625D01*
X87181761Y-108046000D01*
X86883375Y-108245375D01*
X86555161Y-108736582D01*
X86439908Y-109316000D01*
X86555161Y-109895418D01*
X86883375Y-110386625D01*
X87181761Y-110586000D01*
X86883375Y-110785375D01*
X86555161Y-111276582D01*
X86439908Y-111856000D01*
X86555161Y-112435418D01*
X86883375Y-112926625D01*
X87181761Y-113126000D01*
X86883375Y-113325375D01*
X86555161Y-113816582D01*
X86439908Y-114396000D01*
X86555161Y-114975418D01*
X86883375Y-115466625D01*
X87181761Y-115666000D01*
X86883375Y-115865375D01*
X86555161Y-116356582D01*
X86439908Y-116936000D01*
X86555161Y-117515418D01*
X86883375Y-118006625D01*
X87181761Y-118206000D01*
X86883375Y-118405375D01*
X86555161Y-118896582D01*
X86439908Y-119476000D01*
X86555161Y-120055418D01*
X86883375Y-120546625D01*
X87181761Y-120746000D01*
X86883375Y-120945375D01*
X86555161Y-121436582D01*
X86439908Y-122016000D01*
X86555161Y-122595418D01*
X86883375Y-123086625D01*
X87181761Y-123286000D01*
X86883375Y-123485375D01*
X86555161Y-123976582D01*
X86439908Y-124556000D01*
X86555161Y-125135418D01*
X86883375Y-125626625D01*
X87181761Y-125826000D01*
X86883375Y-126025375D01*
X86555161Y-126516582D01*
X86439908Y-127096000D01*
X86555161Y-127675418D01*
X86883375Y-128166625D01*
X87181761Y-128366000D01*
X86883375Y-128565375D01*
X86555161Y-129056582D01*
X86439908Y-129636000D01*
X86555161Y-130215418D01*
X86883375Y-130706625D01*
X87181761Y-130906000D01*
X86883375Y-131105375D01*
X86555161Y-131596582D01*
X86439908Y-132176000D01*
X86555161Y-132755418D01*
X86883375Y-133246625D01*
X87181761Y-133446000D01*
X86883375Y-133645375D01*
X86555161Y-134136582D01*
X86439908Y-134716000D01*
X86555161Y-135295418D01*
X86883375Y-135786625D01*
X87181761Y-135986000D01*
X86883375Y-136185375D01*
X86555161Y-136676582D01*
X86439908Y-137256000D01*
X86555161Y-137835418D01*
X86883375Y-138326625D01*
X87202478Y-138539843D01*
X87072642Y-138600817D01*
X86682355Y-139029076D01*
X86512524Y-139439110D01*
X86633845Y-139669000D01*
X87827000Y-139669000D01*
X87827000Y-139649000D01*
X88081000Y-139649000D01*
X88081000Y-139669000D01*
X89274155Y-139669000D01*
X89395476Y-139439110D01*
X89225645Y-139029076D01*
X88835358Y-138600817D01*
X88705522Y-138539843D01*
X89024625Y-138326625D01*
X89352839Y-137835418D01*
X89468092Y-137256000D01*
X89352839Y-136676582D01*
X89024625Y-136185375D01*
X88726239Y-135986000D01*
X89024625Y-135786625D01*
X89125269Y-135636000D01*
X91449908Y-135636000D01*
X91565161Y-136215418D01*
X91893375Y-136706625D01*
X92191761Y-136906000D01*
X91893375Y-137105375D01*
X91565161Y-137596582D01*
X91449908Y-138176000D01*
X91565161Y-138755418D01*
X91893375Y-139246625D01*
X92384582Y-139574839D01*
X92817744Y-139661000D01*
X93110256Y-139661000D01*
X93543418Y-139574839D01*
X94034625Y-139246625D01*
X94362839Y-138755418D01*
X94478092Y-138176000D01*
X94362839Y-137596582D01*
X94034625Y-137105375D01*
X93736239Y-136906000D01*
X94034625Y-136706625D01*
X94362839Y-136215418D01*
X94478092Y-135636000D01*
X94362839Y-135056582D01*
X94034625Y-134565375D01*
X94012967Y-134550904D01*
X94173698Y-134484327D01*
X94352327Y-134305699D01*
X94449000Y-134072310D01*
X94449000Y-133381750D01*
X94290250Y-133223000D01*
X93091000Y-133223000D01*
X93091000Y-133243000D01*
X92837000Y-133243000D01*
X92837000Y-133223000D01*
X91637750Y-133223000D01*
X91479000Y-133381750D01*
X91479000Y-134072310D01*
X91575673Y-134305699D01*
X91754302Y-134484327D01*
X91915033Y-134550904D01*
X91893375Y-134565375D01*
X91565161Y-135056582D01*
X91449908Y-135636000D01*
X89125269Y-135636000D01*
X89352839Y-135295418D01*
X89468092Y-134716000D01*
X89352839Y-134136582D01*
X89024625Y-133645375D01*
X88726239Y-133446000D01*
X89024625Y-133246625D01*
X89352839Y-132755418D01*
X89468092Y-132176000D01*
X89456892Y-132119690D01*
X91479000Y-132119690D01*
X91479000Y-132810250D01*
X91637750Y-132969000D01*
X92837000Y-132969000D01*
X92837000Y-131769750D01*
X93091000Y-131769750D01*
X93091000Y-132969000D01*
X94290250Y-132969000D01*
X94449000Y-132810250D01*
X94449000Y-132119690D01*
X94352327Y-131886301D01*
X94173698Y-131707673D01*
X93940309Y-131611000D01*
X93249750Y-131611000D01*
X93091000Y-131769750D01*
X92837000Y-131769750D01*
X92678250Y-131611000D01*
X91987691Y-131611000D01*
X91754302Y-131707673D01*
X91575673Y-131886301D01*
X91479000Y-132119690D01*
X89456892Y-132119690D01*
X89352839Y-131596582D01*
X89024625Y-131105375D01*
X88726239Y-130906000D01*
X89024625Y-130706625D01*
X89352839Y-130215418D01*
X89468092Y-129636000D01*
X89352839Y-129056582D01*
X89024625Y-128565375D01*
X88726239Y-128366000D01*
X89024625Y-128166625D01*
X89352839Y-127675418D01*
X89468092Y-127096000D01*
X89352839Y-126516582D01*
X89024625Y-126025375D01*
X88726239Y-125826000D01*
X89024625Y-125626625D01*
X89352839Y-125135418D01*
X89468092Y-124556000D01*
X89352839Y-123976582D01*
X89024625Y-123485375D01*
X88726239Y-123286000D01*
X89024625Y-123086625D01*
X89352839Y-122595418D01*
X89468092Y-122016000D01*
X89352839Y-121436582D01*
X89024625Y-120945375D01*
X88726239Y-120746000D01*
X89024625Y-120546625D01*
X89352839Y-120055418D01*
X89468092Y-119476000D01*
X89352839Y-118896582D01*
X89024625Y-118405375D01*
X88726239Y-118206000D01*
X89024625Y-118006625D01*
X89352839Y-117515418D01*
X89468092Y-116936000D01*
X89352839Y-116356582D01*
X89024625Y-115865375D01*
X88726239Y-115666000D01*
X89024625Y-115466625D01*
X89352839Y-114975418D01*
X89468092Y-114396000D01*
X89352839Y-113816582D01*
X89024625Y-113325375D01*
X88726239Y-113126000D01*
X89024625Y-112926625D01*
X89352839Y-112435418D01*
X89468092Y-111856000D01*
X89352839Y-111276582D01*
X89024625Y-110785375D01*
X88726239Y-110586000D01*
X89024625Y-110386625D01*
X89352839Y-109895418D01*
X89468092Y-109316000D01*
X89352839Y-108736582D01*
X89024625Y-108245375D01*
X88726239Y-108046000D01*
X89024625Y-107846625D01*
X89352839Y-107355418D01*
X89468092Y-106776000D01*
X89352839Y-106196582D01*
X89024625Y-105705375D01*
X89006381Y-105693184D01*
X89051765Y-105684157D01*
X89261809Y-105543809D01*
X89402157Y-105333765D01*
X89451440Y-105086000D01*
X89451440Y-103386000D01*
X89402157Y-103138235D01*
X89261809Y-102928191D01*
X89051765Y-102787843D01*
X88804000Y-102738560D01*
X87104000Y-102738560D01*
X86856235Y-102787843D01*
X86646191Y-102928191D01*
X86505843Y-103138235D01*
X86456560Y-103386000D01*
X86456560Y-105086000D01*
X86505843Y-105333765D01*
X86646191Y-105543809D01*
X86856235Y-105684157D01*
X86901619Y-105693184D01*
X86883375Y-105705375D01*
X86555161Y-106196582D01*
X86439908Y-106776000D01*
X64868092Y-106776000D01*
X64752839Y-106196582D01*
X64424625Y-105705375D01*
X64406381Y-105693184D01*
X64451765Y-105684157D01*
X64661809Y-105543809D01*
X64802157Y-105333765D01*
X64851440Y-105086000D01*
X64851440Y-103386000D01*
X64802157Y-103138235D01*
X64661809Y-102928191D01*
X64451765Y-102787843D01*
X64204000Y-102738560D01*
X62504000Y-102738560D01*
X62256235Y-102787843D01*
X62046191Y-102928191D01*
X61905843Y-103138235D01*
X61856560Y-103386000D01*
X61856560Y-105086000D01*
X61905843Y-105333765D01*
X62046191Y-105543809D01*
X62256235Y-105684157D01*
X62301619Y-105693184D01*
X62283375Y-105705375D01*
X61955161Y-106196582D01*
X61839908Y-106776000D01*
X54863571Y-106776000D01*
X55489918Y-106493773D01*
X56973289Y-106017166D01*
X60252757Y-105005247D01*
X60262780Y-105005910D01*
X60386917Y-104963851D01*
X60444389Y-104946117D01*
X60453003Y-104941460D01*
X60529605Y-104915506D01*
X60575718Y-104875113D01*
X60629660Y-104845949D01*
X60680683Y-104783169D01*
X60741524Y-104729875D01*
X60768672Y-104674905D01*
X60807343Y-104627323D01*
X60830455Y-104549803D01*
X60834786Y-104541034D01*
X60850368Y-104483014D01*
X60887837Y-104357342D01*
X60886804Y-104347346D01*
X61287879Y-102853961D01*
X61897665Y-101043529D01*
X62696357Y-99134400D01*
X63690881Y-97238683D01*
X64885473Y-95467669D01*
X66280705Y-93929735D01*
X67875127Y-92725152D01*
X69675033Y-91940654D01*
X71666025Y-91663915D01*
X72815418Y-91969837D01*
X72815418Y-91969837D01*
G37*
X72815418Y-91969837D02*
X74036038Y-93043224D01*
X74062770Y-93083231D01*
X74140894Y-93135432D01*
X74158054Y-93150522D01*
X74198765Y-93174100D01*
X74297015Y-93239749D01*
X74320016Y-93244324D01*
X74340309Y-93256077D01*
X74457434Y-93271658D01*
X74503583Y-93280838D01*
X74526437Y-93280838D01*
X74619573Y-93293228D01*
X74666065Y-93280838D01*
X74760457Y-93280838D01*
X76575764Y-93681246D01*
X77961664Y-94722909D01*
X79066144Y-96301457D01*
X79869375Y-98167883D01*
X79872042Y-98196592D01*
X79924698Y-98296434D01*
X79941226Y-98334839D01*
X79957176Y-98358016D01*
X80003465Y-98445785D01*
X80036376Y-98473101D01*
X80060626Y-98508339D01*
X80143892Y-98562340D01*
X80220246Y-98625714D01*
X80261105Y-98638356D01*
X80296994Y-98661632D01*
X80394584Y-98679658D01*
X80489382Y-98708990D01*
X80531970Y-98705034D01*
X80574032Y-98712803D01*
X80671094Y-98692110D01*
X80699093Y-98689509D01*
X80739143Y-98677602D01*
X80849565Y-98654061D01*
X80873323Y-98637711D01*
X82258330Y-98225954D01*
X83062613Y-98315319D01*
X84647878Y-99865907D01*
X86074891Y-101287674D01*
X86096807Y-101326268D01*
X86173834Y-101386253D01*
X86192634Y-101404984D01*
X86228755Y-101429023D01*
X86319081Y-101499365D01*
X86345315Y-101506596D01*
X86367970Y-101521673D01*
X86480307Y-101543803D01*
X86522125Y-101555329D01*
X86548585Y-101557253D01*
X86644382Y-101576125D01*
X86687900Y-101567385D01*
X88643901Y-101709641D01*
X88645705Y-101710128D01*
X88713393Y-101714695D01*
X88781154Y-101719623D01*
X88783011Y-101719392D01*
X90754245Y-101852391D01*
X90868912Y-101956635D01*
X90896402Y-102143224D01*
X90896396Y-102143349D01*
X90906590Y-102212375D01*
X90916715Y-102281099D01*
X90916757Y-102281216D01*
X91091925Y-103467318D01*
X91091924Y-103467348D01*
X91102998Y-103542292D01*
X91112301Y-103605285D01*
X91112309Y-103605309D01*
X91391082Y-105491931D01*
X91391081Y-105491944D01*
X91400339Y-105554582D01*
X91411470Y-105629911D01*
X91411474Y-105629921D01*
X91776510Y-108099777D01*
X91776510Y-108099785D01*
X91787251Y-108172449D01*
X91796904Y-108237761D01*
X91796906Y-108237766D01*
X92230852Y-111173495D01*
X92230852Y-111173502D01*
X92757149Y-114733707D01*
X92757150Y-114733711D01*
X93297248Y-118387063D01*
X93297250Y-118387067D01*
X93854188Y-122154177D01*
X93854189Y-122154180D01*
X94390211Y-125779691D01*
X94390211Y-125779692D01*
X94928760Y-129422201D01*
X94928760Y-129422204D01*
X95432077Y-132826355D01*
X95882806Y-135874771D01*
X96283990Y-138588066D01*
X96283991Y-138588070D01*
X96557065Y-140434903D01*
X96557065Y-140434904D01*
X96725868Y-141576530D01*
X80554334Y-145062860D01*
X50076589Y-139353650D01*
X50246962Y-138034617D01*
X50535891Y-135798885D01*
X50721183Y-134366000D01*
X55381908Y-134366000D01*
X55497161Y-134945418D01*
X55825375Y-135436625D01*
X56123761Y-135636000D01*
X55825375Y-135835375D01*
X55497161Y-136326582D01*
X55381908Y-136906000D01*
X55497161Y-137485418D01*
X55825375Y-137976625D01*
X56316582Y-138304839D01*
X56749744Y-138391000D01*
X57042256Y-138391000D01*
X57475418Y-138304839D01*
X57966625Y-137976625D01*
X58294839Y-137485418D01*
X58410092Y-136906000D01*
X58294839Y-136326582D01*
X57966625Y-135835375D01*
X57668239Y-135636000D01*
X57966625Y-135436625D01*
X58294839Y-134945418D01*
X58410092Y-134366000D01*
X58294839Y-133786582D01*
X57966625Y-133295375D01*
X57944967Y-133280904D01*
X58105698Y-133214327D01*
X58284327Y-133035699D01*
X58381000Y-132802310D01*
X58381000Y-132111750D01*
X58222250Y-131953000D01*
X57023000Y-131953000D01*
X57023000Y-131973000D01*
X56769000Y-131973000D01*
X56769000Y-131953000D01*
X55569750Y-131953000D01*
X55411000Y-132111750D01*
X55411000Y-132802310D01*
X55507673Y-133035699D01*
X55686302Y-133214327D01*
X55847033Y-133280904D01*
X55825375Y-133295375D01*
X55497161Y-133786582D01*
X55381908Y-134366000D01*
X50721183Y-134366000D01*
X50901836Y-132969000D01*
X51176109Y-130849690D01*
X55411000Y-130849690D01*
X55411000Y-131540250D01*
X55569750Y-131699000D01*
X56769000Y-131699000D01*
X56769000Y-130499750D01*
X57023000Y-130499750D01*
X57023000Y-131699000D01*
X58222250Y-131699000D01*
X58381000Y-131540250D01*
X58381000Y-130849690D01*
X58284327Y-130616301D01*
X58105698Y-130437673D01*
X57872309Y-130341000D01*
X57181750Y-130341000D01*
X57023000Y-130499750D01*
X56769000Y-130499750D01*
X56610250Y-130341000D01*
X55919691Y-130341000D01*
X55686302Y-130437673D01*
X55507673Y-130616301D01*
X55411000Y-130849690D01*
X51176109Y-130849690D01*
X51324119Y-129706017D01*
X51781525Y-126175107D01*
X52135776Y-123444000D01*
X55381908Y-123444000D01*
X55497161Y-124023418D01*
X55825375Y-124514625D01*
X56123761Y-124714000D01*
X55825375Y-124913375D01*
X55497161Y-125404582D01*
X55381908Y-125984000D01*
X55497161Y-126563418D01*
X55825375Y-127054625D01*
X56316582Y-127382839D01*
X56749744Y-127469000D01*
X57042256Y-127469000D01*
X57475418Y-127382839D01*
X57966625Y-127054625D01*
X58294839Y-126563418D01*
X58410092Y-125984000D01*
X58294839Y-125404582D01*
X57966625Y-124913375D01*
X57668239Y-124714000D01*
X57966625Y-124514625D01*
X58294839Y-124023418D01*
X58410092Y-123444000D01*
X58294839Y-122864582D01*
X57966625Y-122373375D01*
X57944967Y-122358904D01*
X58105698Y-122292327D01*
X58284327Y-122113699D01*
X58381000Y-121880310D01*
X58381000Y-121189750D01*
X58222250Y-121031000D01*
X57023000Y-121031000D01*
X57023000Y-121051000D01*
X56769000Y-121051000D01*
X56769000Y-121031000D01*
X55569750Y-121031000D01*
X55411000Y-121189750D01*
X55411000Y-121880310D01*
X55507673Y-122113699D01*
X55686302Y-122292327D01*
X55847033Y-122358904D01*
X55825375Y-122373375D01*
X55497161Y-122864582D01*
X55381908Y-123444000D01*
X52135776Y-123444000D01*
X52253605Y-122535599D01*
X52592460Y-119927690D01*
X55411000Y-119927690D01*
X55411000Y-120618250D01*
X55569750Y-120777000D01*
X56769000Y-120777000D01*
X56769000Y-119577750D01*
X57023000Y-119577750D01*
X57023000Y-120777000D01*
X58222250Y-120777000D01*
X58381000Y-120618250D01*
X58381000Y-119927690D01*
X58284327Y-119694301D01*
X58105698Y-119515673D01*
X57872309Y-119419000D01*
X57181750Y-119419000D01*
X57023000Y-119577750D01*
X56769000Y-119577750D01*
X56610250Y-119419000D01*
X55919691Y-119419000D01*
X55686302Y-119515673D01*
X55507673Y-119694301D01*
X55411000Y-119927690D01*
X52592460Y-119927690D01*
X52717897Y-118962298D01*
X53152877Y-115622792D01*
X53537554Y-112680561D01*
X53692120Y-111506000D01*
X55381908Y-111506000D01*
X55497161Y-112085418D01*
X55825375Y-112576625D01*
X56123761Y-112776000D01*
X55825375Y-112975375D01*
X55497161Y-113466582D01*
X55381908Y-114046000D01*
X55497161Y-114625418D01*
X55825375Y-115116625D01*
X56316582Y-115444839D01*
X56749744Y-115531000D01*
X57042256Y-115531000D01*
X57475418Y-115444839D01*
X57966625Y-115116625D01*
X58294839Y-114625418D01*
X58410092Y-114046000D01*
X58294839Y-113466582D01*
X57966625Y-112975375D01*
X57668239Y-112776000D01*
X57966625Y-112576625D01*
X58294839Y-112085418D01*
X58410092Y-111506000D01*
X58294839Y-110926582D01*
X57966625Y-110435375D01*
X57944967Y-110420904D01*
X58105698Y-110354327D01*
X58284327Y-110175699D01*
X58381000Y-109942310D01*
X58381000Y-109251750D01*
X58222250Y-109093000D01*
X57023000Y-109093000D01*
X57023000Y-109113000D01*
X56769000Y-109113000D01*
X56769000Y-109093000D01*
X55569750Y-109093000D01*
X55411000Y-109251750D01*
X55411000Y-109942310D01*
X55507673Y-110175699D01*
X55686302Y-110354327D01*
X55847033Y-110420904D01*
X55825375Y-110435375D01*
X55497161Y-110926582D01*
X55381908Y-111506000D01*
X53692120Y-111506000D01*
X53850491Y-110302533D01*
X54069829Y-108658795D01*
X54163776Y-107989690D01*
X55411000Y-107989690D01*
X55411000Y-108680250D01*
X55569750Y-108839000D01*
X56769000Y-108839000D01*
X56769000Y-107639750D01*
X57023000Y-107639750D01*
X57023000Y-108839000D01*
X58222250Y-108839000D01*
X58381000Y-108680250D01*
X58381000Y-107989690D01*
X58284327Y-107756301D01*
X58105698Y-107577673D01*
X57872309Y-107481000D01*
X57181750Y-107481000D01*
X57023000Y-107639750D01*
X56769000Y-107639750D01*
X56610250Y-107481000D01*
X55919691Y-107481000D01*
X55686302Y-107577673D01*
X55507673Y-107756301D01*
X55411000Y-107989690D01*
X54163776Y-107989690D01*
X54168387Y-107956855D01*
X54437743Y-106967875D01*
X54863571Y-106776000D01*
X61839908Y-106776000D01*
X61955161Y-107355418D01*
X62283375Y-107846625D01*
X62581761Y-108046000D01*
X62283375Y-108245375D01*
X61955161Y-108736582D01*
X61839908Y-109316000D01*
X61955161Y-109895418D01*
X62283375Y-110386625D01*
X62581761Y-110586000D01*
X62283375Y-110785375D01*
X61955161Y-111276582D01*
X61839908Y-111856000D01*
X61955161Y-112435418D01*
X62283375Y-112926625D01*
X62581761Y-113126000D01*
X62283375Y-113325375D01*
X61955161Y-113816582D01*
X61839908Y-114396000D01*
X61955161Y-114975418D01*
X62283375Y-115466625D01*
X62581761Y-115666000D01*
X62283375Y-115865375D01*
X61955161Y-116356582D01*
X61839908Y-116936000D01*
X61955161Y-117515418D01*
X62283375Y-118006625D01*
X62581761Y-118206000D01*
X62283375Y-118405375D01*
X61955161Y-118896582D01*
X61839908Y-119476000D01*
X61955161Y-120055418D01*
X62283375Y-120546625D01*
X62581761Y-120746000D01*
X62283375Y-120945375D01*
X61955161Y-121436582D01*
X61839908Y-122016000D01*
X61955161Y-122595418D01*
X62283375Y-123086625D01*
X62581761Y-123286000D01*
X62283375Y-123485375D01*
X61955161Y-123976582D01*
X61839908Y-124556000D01*
X61955161Y-125135418D01*
X62283375Y-125626625D01*
X62581761Y-125826000D01*
X62283375Y-126025375D01*
X61955161Y-126516582D01*
X61839908Y-127096000D01*
X61955161Y-127675418D01*
X62283375Y-128166625D01*
X62581761Y-128366000D01*
X62283375Y-128565375D01*
X61955161Y-129056582D01*
X61839908Y-129636000D01*
X61955161Y-130215418D01*
X62283375Y-130706625D01*
X62581761Y-130906000D01*
X62283375Y-131105375D01*
X61955161Y-131596582D01*
X61839908Y-132176000D01*
X61955161Y-132755418D01*
X62283375Y-133246625D01*
X62581761Y-133446000D01*
X62283375Y-133645375D01*
X61955161Y-134136582D01*
X61839908Y-134716000D01*
X61955161Y-135295418D01*
X62283375Y-135786625D01*
X62581761Y-135986000D01*
X62283375Y-136185375D01*
X61955161Y-136676582D01*
X61839908Y-137256000D01*
X61955161Y-137835418D01*
X62283375Y-138326625D01*
X62581761Y-138526000D01*
X62283375Y-138725375D01*
X61955161Y-139216582D01*
X61839908Y-139796000D01*
X61955161Y-140375418D01*
X62283375Y-140866625D01*
X62774582Y-141194839D01*
X63207744Y-141281000D01*
X63500256Y-141281000D01*
X63933418Y-141194839D01*
X64424625Y-140866625D01*
X64752839Y-140375418D01*
X64797102Y-140152890D01*
X86512524Y-140152890D01*
X86682355Y-140562924D01*
X87072642Y-140991183D01*
X87597108Y-141237486D01*
X87827000Y-141116819D01*
X87827000Y-139923000D01*
X88081000Y-139923000D01*
X88081000Y-141116819D01*
X88310892Y-141237486D01*
X88835358Y-140991183D01*
X89225645Y-140562924D01*
X89395476Y-140152890D01*
X89274155Y-139923000D01*
X88081000Y-139923000D01*
X87827000Y-139923000D01*
X86633845Y-139923000D01*
X86512524Y-140152890D01*
X64797102Y-140152890D01*
X64868092Y-139796000D01*
X64752839Y-139216582D01*
X64424625Y-138725375D01*
X64126239Y-138526000D01*
X64424625Y-138326625D01*
X64752839Y-137835418D01*
X64868092Y-137256000D01*
X64752839Y-136676582D01*
X64424625Y-136185375D01*
X64126239Y-135986000D01*
X64424625Y-135786625D01*
X64752839Y-135295418D01*
X64868092Y-134716000D01*
X64752839Y-134136582D01*
X64424625Y-133645375D01*
X64126239Y-133446000D01*
X64424625Y-133246625D01*
X64752839Y-132755418D01*
X64868092Y-132176000D01*
X64752839Y-131596582D01*
X64424625Y-131105375D01*
X64126239Y-130906000D01*
X64424625Y-130706625D01*
X64752839Y-130215418D01*
X64868092Y-129636000D01*
X64752839Y-129056582D01*
X64424625Y-128565375D01*
X64126239Y-128366000D01*
X64424625Y-128166625D01*
X64752839Y-127675418D01*
X64868092Y-127096000D01*
X64752839Y-126516582D01*
X64424625Y-126025375D01*
X64126239Y-125826000D01*
X64424625Y-125626625D01*
X64752839Y-125135418D01*
X64868092Y-124556000D01*
X64752839Y-123976582D01*
X64424625Y-123485375D01*
X64126239Y-123286000D01*
X64424625Y-123086625D01*
X64752839Y-122595418D01*
X64868092Y-122016000D01*
X64752839Y-121436582D01*
X64424625Y-120945375D01*
X64126239Y-120746000D01*
X64424625Y-120546625D01*
X64752839Y-120055418D01*
X64868092Y-119476000D01*
X64752839Y-118896582D01*
X64424625Y-118405375D01*
X64126239Y-118206000D01*
X64424625Y-118006625D01*
X64752839Y-117515418D01*
X64868092Y-116936000D01*
X64752839Y-116356582D01*
X64424625Y-115865375D01*
X64126239Y-115666000D01*
X64424625Y-115466625D01*
X64752839Y-114975418D01*
X64868092Y-114396000D01*
X64752839Y-113816582D01*
X64424625Y-113325375D01*
X64126239Y-113126000D01*
X64424625Y-112926625D01*
X64752839Y-112435418D01*
X64868092Y-111856000D01*
X64752839Y-111276582D01*
X64424625Y-110785375D01*
X64126239Y-110586000D01*
X64424625Y-110386625D01*
X64752839Y-109895418D01*
X64868092Y-109316000D01*
X64752839Y-108736582D01*
X64424625Y-108245375D01*
X64126239Y-108046000D01*
X64424625Y-107846625D01*
X64752839Y-107355418D01*
X64868092Y-106776000D01*
X86439908Y-106776000D01*
X86555161Y-107355418D01*
X86883375Y-107846625D01*
X87181761Y-108046000D01*
X86883375Y-108245375D01*
X86555161Y-108736582D01*
X86439908Y-109316000D01*
X86555161Y-109895418D01*
X86883375Y-110386625D01*
X87181761Y-110586000D01*
X86883375Y-110785375D01*
X86555161Y-111276582D01*
X86439908Y-111856000D01*
X86555161Y-112435418D01*
X86883375Y-112926625D01*
X87181761Y-113126000D01*
X86883375Y-113325375D01*
X86555161Y-113816582D01*
X86439908Y-114396000D01*
X86555161Y-114975418D01*
X86883375Y-115466625D01*
X87181761Y-115666000D01*
X86883375Y-115865375D01*
X86555161Y-116356582D01*
X86439908Y-116936000D01*
X86555161Y-117515418D01*
X86883375Y-118006625D01*
X87181761Y-118206000D01*
X86883375Y-118405375D01*
X86555161Y-118896582D01*
X86439908Y-119476000D01*
X86555161Y-120055418D01*
X86883375Y-120546625D01*
X87181761Y-120746000D01*
X86883375Y-120945375D01*
X86555161Y-121436582D01*
X86439908Y-122016000D01*
X86555161Y-122595418D01*
X86883375Y-123086625D01*
X87181761Y-123286000D01*
X86883375Y-123485375D01*
X86555161Y-123976582D01*
X86439908Y-124556000D01*
X86555161Y-125135418D01*
X86883375Y-125626625D01*
X87181761Y-125826000D01*
X86883375Y-126025375D01*
X86555161Y-126516582D01*
X86439908Y-127096000D01*
X86555161Y-127675418D01*
X86883375Y-128166625D01*
X87181761Y-128366000D01*
X86883375Y-128565375D01*
X86555161Y-129056582D01*
X86439908Y-129636000D01*
X86555161Y-130215418D01*
X86883375Y-130706625D01*
X87181761Y-130906000D01*
X86883375Y-131105375D01*
X86555161Y-131596582D01*
X86439908Y-132176000D01*
X86555161Y-132755418D01*
X86883375Y-133246625D01*
X87181761Y-133446000D01*
X86883375Y-133645375D01*
X86555161Y-134136582D01*
X86439908Y-134716000D01*
X86555161Y-135295418D01*
X86883375Y-135786625D01*
X87181761Y-135986000D01*
X86883375Y-136185375D01*
X86555161Y-136676582D01*
X86439908Y-137256000D01*
X86555161Y-137835418D01*
X86883375Y-138326625D01*
X87202478Y-138539843D01*
X87072642Y-138600817D01*
X86682355Y-139029076D01*
X86512524Y-139439110D01*
X86633845Y-139669000D01*
X87827000Y-139669000D01*
X87827000Y-139649000D01*
X88081000Y-139649000D01*
X88081000Y-139669000D01*
X89274155Y-139669000D01*
X89395476Y-139439110D01*
X89225645Y-139029076D01*
X88835358Y-138600817D01*
X88705522Y-138539843D01*
X89024625Y-138326625D01*
X89352839Y-137835418D01*
X89468092Y-137256000D01*
X89352839Y-136676582D01*
X89024625Y-136185375D01*
X88726239Y-135986000D01*
X89024625Y-135786625D01*
X89125269Y-135636000D01*
X91449908Y-135636000D01*
X91565161Y-136215418D01*
X91893375Y-136706625D01*
X92191761Y-136906000D01*
X91893375Y-137105375D01*
X91565161Y-137596582D01*
X91449908Y-138176000D01*
X91565161Y-138755418D01*
X91893375Y-139246625D01*
X92384582Y-139574839D01*
X92817744Y-139661000D01*
X93110256Y-139661000D01*
X93543418Y-139574839D01*
X94034625Y-139246625D01*
X94362839Y-138755418D01*
X94478092Y-138176000D01*
X94362839Y-137596582D01*
X94034625Y-137105375D01*
X93736239Y-136906000D01*
X94034625Y-136706625D01*
X94362839Y-136215418D01*
X94478092Y-135636000D01*
X94362839Y-135056582D01*
X94034625Y-134565375D01*
X94012967Y-134550904D01*
X94173698Y-134484327D01*
X94352327Y-134305699D01*
X94449000Y-134072310D01*
X94449000Y-133381750D01*
X94290250Y-133223000D01*
X93091000Y-133223000D01*
X93091000Y-133243000D01*
X92837000Y-133243000D01*
X92837000Y-133223000D01*
X91637750Y-133223000D01*
X91479000Y-133381750D01*
X91479000Y-134072310D01*
X91575673Y-134305699D01*
X91754302Y-134484327D01*
X91915033Y-134550904D01*
X91893375Y-134565375D01*
X91565161Y-135056582D01*
X91449908Y-135636000D01*
X89125269Y-135636000D01*
X89352839Y-135295418D01*
X89468092Y-134716000D01*
X89352839Y-134136582D01*
X89024625Y-133645375D01*
X88726239Y-133446000D01*
X89024625Y-133246625D01*
X89352839Y-132755418D01*
X89468092Y-132176000D01*
X89456892Y-132119690D01*
X91479000Y-132119690D01*
X91479000Y-132810250D01*
X91637750Y-132969000D01*
X92837000Y-132969000D01*
X92837000Y-131769750D01*
X93091000Y-131769750D01*
X93091000Y-132969000D01*
X94290250Y-132969000D01*
X94449000Y-132810250D01*
X94449000Y-132119690D01*
X94352327Y-131886301D01*
X94173698Y-131707673D01*
X93940309Y-131611000D01*
X93249750Y-131611000D01*
X93091000Y-131769750D01*
X92837000Y-131769750D01*
X92678250Y-131611000D01*
X91987691Y-131611000D01*
X91754302Y-131707673D01*
X91575673Y-131886301D01*
X91479000Y-132119690D01*
X89456892Y-132119690D01*
X89352839Y-131596582D01*
X89024625Y-131105375D01*
X88726239Y-130906000D01*
X89024625Y-130706625D01*
X89352839Y-130215418D01*
X89468092Y-129636000D01*
X89352839Y-129056582D01*
X89024625Y-128565375D01*
X88726239Y-128366000D01*
X89024625Y-128166625D01*
X89352839Y-127675418D01*
X89468092Y-127096000D01*
X89352839Y-126516582D01*
X89024625Y-126025375D01*
X88726239Y-125826000D01*
X89024625Y-125626625D01*
X89352839Y-125135418D01*
X89468092Y-124556000D01*
X89352839Y-123976582D01*
X89024625Y-123485375D01*
X88726239Y-123286000D01*
X89024625Y-123086625D01*
X89352839Y-122595418D01*
X89468092Y-122016000D01*
X89352839Y-121436582D01*
X89024625Y-120945375D01*
X88726239Y-120746000D01*
X89024625Y-120546625D01*
X89352839Y-120055418D01*
X89468092Y-119476000D01*
X89352839Y-118896582D01*
X89024625Y-118405375D01*
X88726239Y-118206000D01*
X89024625Y-118006625D01*
X89352839Y-117515418D01*
X89468092Y-116936000D01*
X89352839Y-116356582D01*
X89024625Y-115865375D01*
X88726239Y-115666000D01*
X89024625Y-115466625D01*
X89352839Y-114975418D01*
X89468092Y-114396000D01*
X89352839Y-113816582D01*
X89024625Y-113325375D01*
X88726239Y-113126000D01*
X89024625Y-112926625D01*
X89352839Y-112435418D01*
X89468092Y-111856000D01*
X89352839Y-111276582D01*
X89024625Y-110785375D01*
X88726239Y-110586000D01*
X89024625Y-110386625D01*
X89352839Y-109895418D01*
X89468092Y-109316000D01*
X89352839Y-108736582D01*
X89024625Y-108245375D01*
X88726239Y-108046000D01*
X89024625Y-107846625D01*
X89352839Y-107355418D01*
X89468092Y-106776000D01*
X89352839Y-106196582D01*
X89024625Y-105705375D01*
X89006381Y-105693184D01*
X89051765Y-105684157D01*
X89261809Y-105543809D01*
X89402157Y-105333765D01*
X89451440Y-105086000D01*
X89451440Y-103386000D01*
X89402157Y-103138235D01*
X89261809Y-102928191D01*
X89051765Y-102787843D01*
X88804000Y-102738560D01*
X87104000Y-102738560D01*
X86856235Y-102787843D01*
X86646191Y-102928191D01*
X86505843Y-103138235D01*
X86456560Y-103386000D01*
X86456560Y-105086000D01*
X86505843Y-105333765D01*
X86646191Y-105543809D01*
X86856235Y-105684157D01*
X86901619Y-105693184D01*
X86883375Y-105705375D01*
X86555161Y-106196582D01*
X86439908Y-106776000D01*
X64868092Y-106776000D01*
X64752839Y-106196582D01*
X64424625Y-105705375D01*
X64406381Y-105693184D01*
X64451765Y-105684157D01*
X64661809Y-105543809D01*
X64802157Y-105333765D01*
X64851440Y-105086000D01*
X64851440Y-103386000D01*
X64802157Y-103138235D01*
X64661809Y-102928191D01*
X64451765Y-102787843D01*
X64204000Y-102738560D01*
X62504000Y-102738560D01*
X62256235Y-102787843D01*
X62046191Y-102928191D01*
X61905843Y-103138235D01*
X61856560Y-103386000D01*
X61856560Y-105086000D01*
X61905843Y-105333765D01*
X62046191Y-105543809D01*
X62256235Y-105684157D01*
X62301619Y-105693184D01*
X62283375Y-105705375D01*
X61955161Y-106196582D01*
X61839908Y-106776000D01*
X54863571Y-106776000D01*
X55489918Y-106493773D01*
X56973289Y-106017166D01*
X60252757Y-105005247D01*
X60262780Y-105005910D01*
X60386917Y-104963851D01*
X60444389Y-104946117D01*
X60453003Y-104941460D01*
X60529605Y-104915506D01*
X60575718Y-104875113D01*
X60629660Y-104845949D01*
X60680683Y-104783169D01*
X60741524Y-104729875D01*
X60768672Y-104674905D01*
X60807343Y-104627323D01*
X60830455Y-104549803D01*
X60834786Y-104541034D01*
X60850368Y-104483014D01*
X60887837Y-104357342D01*
X60886804Y-104347346D01*
X61287879Y-102853961D01*
X61897665Y-101043529D01*
X62696357Y-99134400D01*
X63690881Y-97238683D01*
X64885473Y-95467669D01*
X66280705Y-93929735D01*
X67875127Y-92725152D01*
X69675033Y-91940654D01*
X71666025Y-91663915D01*
X72815418Y-91969837D01*
G04 #@! TD*
M02*
