G04 #@! TF.GenerationSoftware,KiCad,Pcbnew,(5.0.0-3-g5ebb6b6)*
G04 #@! TF.CreationDate,2018-08-30T21:54:11-04:00*
G04 #@! TF.ProjectId,PCB,5043422E6B696361645F706362000000,rev?*
G04 #@! TF.SameCoordinates,Original*
G04 #@! TF.FileFunction,Legend,Top*
G04 #@! TF.FilePolarity,Positive*
%FSLAX46Y46*%
G04 Gerber Fmt 4.6, Leading zero omitted, Abs format (unit mm)*
G04 Created by KiCad (PCBNEW (5.0.0-3-g5ebb6b6)) date Thursday, August 30, 2018 at 09:54:11 PM*
%MOMM*%
%LPD*%
G01*
G04 APERTURE LIST*
%ADD10C,0.100000*%
G04 APERTURE END LIST*
D10*
G04 #@! TO.C,svg2mod*
G36*
X76155854Y-98092482D02*
X75943016Y-96070744D01*
X75594313Y-94621896D01*
X75805684Y-94581313D01*
X77350737Y-95658039D01*
X78580432Y-97961799D01*
X78760775Y-98495669D01*
X78281486Y-98664579D01*
X77013469Y-99064837D01*
X76224741Y-99317088D01*
X76155854Y-98092482D01*
X76155854Y-98092482D01*
G37*
G36*
X69011196Y-101065291D02*
X69988842Y-98600518D01*
X71374047Y-96562558D01*
X73038347Y-95140413D01*
X73750005Y-95328339D01*
X74115527Y-97005760D01*
X74251086Y-98981392D01*
X74258359Y-99875094D01*
X71644052Y-100678985D01*
X69777680Y-101247263D01*
X68961601Y-101484680D01*
X69011198Y-101065291D01*
X69011196Y-101065291D01*
X69011196Y-101065291D01*
G37*
G36*
X62436211Y-103476264D02*
X62910584Y-101998227D01*
X63745470Y-99885216D01*
X65025361Y-97428492D01*
X66450855Y-95476206D01*
X67995517Y-94052719D01*
X69632910Y-93182394D01*
X71336598Y-92889595D01*
X72137205Y-93009154D01*
X72397977Y-93127437D01*
X72050061Y-93314285D01*
X70596421Y-94342252D01*
X69313537Y-95755341D01*
X68226064Y-97513686D01*
X67358657Y-99577423D01*
X66735972Y-101906685D01*
X66669040Y-102239742D01*
X65856791Y-102501287D01*
X63853102Y-103118763D01*
X62475038Y-103519835D01*
X62436212Y-103476266D01*
X62436211Y-103476264D01*
X62436211Y-103476264D01*
G37*
G36*
X74793578Y-110545109D02*
X72723223Y-116756172D01*
X71522859Y-116271621D01*
X68670615Y-115787070D01*
X66311488Y-116343406D01*
X65391331Y-117477288D01*
X65234708Y-118386025D01*
X65644644Y-119510265D01*
X66701846Y-120551286D01*
X68147408Y-121636228D01*
X69722424Y-122892233D01*
X71167986Y-124446444D01*
X72225188Y-126426001D01*
X72635123Y-128958046D01*
X72369599Y-131414450D01*
X71612182Y-133514783D01*
X70421606Y-135218665D01*
X68856605Y-136485716D01*
X66975910Y-137275559D01*
X64838257Y-137547813D01*
X61304614Y-137024718D01*
X58770358Y-135873910D01*
X57243747Y-134723101D01*
X56733041Y-134200006D01*
X58186694Y-129442597D01*
X59005699Y-130070719D01*
X60979796Y-131237230D01*
X63384605Y-131865352D01*
X65064014Y-131138525D01*
X65587109Y-129750948D01*
X65136819Y-128150869D01*
X64011095Y-126876271D01*
X62547653Y-125665302D01*
X61084211Y-124256107D01*
X59958486Y-122386833D01*
X59508197Y-119795628D01*
X59679837Y-117895107D01*
X60195791Y-116063759D01*
X61057607Y-114358367D01*
X62266834Y-112835714D01*
X63825019Y-111552583D01*
X65733713Y-110565758D01*
X67994464Y-109932022D01*
X70608819Y-109708158D01*
X73741882Y-110126634D01*
X74793578Y-110545109D01*
X74793578Y-110545109D01*
G37*
G04 #@! TD*
M02*
