M48
;DRILL file {KiCad (5.0.0-3-g5ebb6b6)} date Thursday, August 30, 2018 at 09:54:04 PM
;FORMAT={-:-/ absolute / inch / decimal}
FMAT,2
INCH,TZ
T1C0.0394
%
G90
G05
M72
T1
X2.24Y-5.19
X2.24Y-5.29
X2.24Y-5.39
X2.24Y-4.29
X2.24Y-4.39
X2.24Y-4.49
X2.4943Y-4.1038
X2.4943Y-4.2038
X2.4943Y-4.3038
X2.4943Y-4.4038
X2.4943Y-4.5038
X2.4943Y-4.6038
X2.4943Y-4.7038
X2.4943Y-4.8038
X2.4943Y-4.9038
X2.4943Y-5.0038
X2.4943Y-5.1038
X2.4943Y-5.2038
X2.4943Y-5.3038
X2.4943Y-5.4038
X2.4943Y-5.5038
X3.4628Y-4.1038
X3.4628Y-4.2038
X3.4628Y-4.3038
X3.4628Y-4.4038
X3.4628Y-4.5038
X3.4628Y-4.6038
X3.4628Y-4.7038
X3.4628Y-4.8038
X3.4628Y-4.9038
X3.4628Y-5.0038
X3.4628Y-5.1038
X3.4628Y-5.2038
X3.4628Y-5.3038
X3.4628Y-5.4038
X3.4628Y-5.5038
X2.24Y-4.76
X2.24Y-4.86
X2.24Y-4.96
X3.66Y-5.24
X3.66Y-5.34
X3.66Y-5.44
T0
M30
