<?xml version="1.0" standalone="no"?>
 <!DOCTYPE svg PUBLIC "-//W3C//DTD SVG 1.1//EN" 
 "http://www.w3.org/Graphics/SVG/1.1/DTD/svg11.dtd"> 
<svg xmlns="http://www.w3.org/2000/svg" version="1.1" 
    width="29.7002cm" height="21.0007cm" viewBox="0 0 116930 82680 ">
<title>SVG Picture created as PCB-F.Mask.svg date 2018/09/05 19:24:52 </title>
  <desc>Picture generated by PCBNEW </desc>
<g style="fill:#000000; fill-opacity:1;stroke:#000000; stroke-opacity:1;
stroke-linecap:round; stroke-linejoin:round; "
 transform="translate(0 0) scale(1 1)">
</g>
<g style="fill:#000000; fill-opacity:0.0; 
stroke:#000000; stroke-width:-0.000393701; stroke-opacity:1; 
stroke-linecap:round; stroke-linejoin:round;">
</g>
<g style="fill:#000000; fill-opacity:1.0; 
stroke:#000000; stroke-width:0; stroke-opacity:1; 
stroke-linecap:round; stroke-linejoin:round;">
<polyline style="fill-rule:evenodd;"
points="37839,38180
37218,38140
36180,38066
35632,38026
35248,37642
34501,36901
33999,36414
33778,36304
32586,60540
41084,58708
41063,58561
41001,58143
40903,57483
40774,56611
40618,55557
40440,54351
40244,53024
40034,51606
39815,50126
39591,48615
39368,47103
39148,45620
38938,44197
38740,42863
38561,41648
38403,40583
38272,39698
38172,39023
38107,38588
38082,38423
37839,38180
" /> 
</g>
<g style="fill:#000000; fill-opacity:1.0; 
stroke:#000000; stroke-width:669.291; stroke-opacity:1; 
stroke-linecap:round; stroke-linejoin:round;">
</g>
<g style="fill:#000000; fill-opacity:0.0; 
stroke:#000000; stroke-width:669.291; stroke-opacity:1; 
stroke-linecap:round; stroke-linejoin:round;">
<path d="M25054 46037
L25054 46037
" />
<path d="M25054 47037
L25054 47037
" />
<path d="M25054 48037
L25054 48037
" />
<path d="M25054 49037
L25054 49037
" />
<path d="M25054 55037
L25054 55037
" />
<path d="M25054 44037
L25054 44037
" />
<path d="M25054 45037
L25054 45037
" />
</g>
<g style="fill:#000000; fill-opacity:0.0; 
stroke:#000000; stroke-width:0; stroke-opacity:1; 
stroke-linecap:round; stroke-linejoin:round;">
</g>
<g style="fill:#000000; fill-opacity:1.0; 
stroke:#000000; stroke-width:0; stroke-opacity:1; 
stroke-linecap:round; stroke-linejoin:round;">
<polyline style="fill-rule:evenodd;"
points="25388,40703
25388,41372
24719,41372
24719,40703
25388,40703
" /> 
</g>
<g style="fill:#000000; fill-opacity:1.0; 
stroke:#000000; stroke-width:669.291; stroke-opacity:1; 
stroke-linecap:round; stroke-linejoin:round;">
</g>
<g style="fill:#000000; fill-opacity:0.0; 
stroke:#000000; stroke-width:669.291; stroke-opacity:1; 
stroke-linecap:round; stroke-linejoin:round;">
<path d="M25054 42037
L25054 42037
" />
<path d="M25054 43037
L25054 43037
" />
<path d="M25054 50037
L25054 50037
" />
<path d="M25054 51037
L25054 51037
" />
<path d="M25054 52037
L25054 52037
" />
<path d="M25054 53037
L25054 53037
" />
<path d="M25054 54037
L25054 54037
" />
</g>
<g style="fill:#000000; fill-opacity:0.0; 
stroke:#000000; stroke-width:0; stroke-opacity:1; 
stroke-linecap:round; stroke-linejoin:round;">
</g>
<g style="fill:#000000; fill-opacity:1.0; 
stroke:#000000; stroke-width:0; stroke-opacity:1; 
stroke-linecap:round; stroke-linejoin:round;">
<polyline style="fill-rule:evenodd;"
points="34680,40703
34680,41372
34011,41372
34011,40703
34680,40703
" /> 
</g>
<g style="fill:#000000; fill-opacity:1.0; 
stroke:#000000; stroke-width:669.291; stroke-opacity:1; 
stroke-linecap:round; stroke-linejoin:round;">
</g>
<g style="fill:#000000; fill-opacity:0.0; 
stroke:#000000; stroke-width:669.291; stroke-opacity:1; 
stroke-linecap:round; stroke-linejoin:round;">
<path d="M34345 42037
L34345 42037
" />
<path d="M34345 43037
L34345 43037
" />
<path d="M34345 44037
L34345 44037
" />
<path d="M34345 45037
L34345 45037
" />
<path d="M34345 46037
L34345 46037
" />
<path d="M34345 47037
L34345 47037
" />
<path d="M34345 48037
L34345 48037
" />
<path d="M34345 49037
L34345 49037
" />
<path d="M34345 50037
L34345 50037
" />
<path d="M34345 51037
L34345 51037
" />
<path d="M34345 52037
L34345 52037
" />
<path d="M34345 53037
L34345 53037
" />
<path d="M34345 54037
L34345 54037
" />
<path d="M34345 55037
L34345 55037
" />
<path d="M22400 44900
L22400 44900
" />
<path d="M22400 43900
L22400 43900
" />
</g>
<g style="fill:#000000; fill-opacity:0.0; 
stroke:#000000; stroke-width:0; stroke-opacity:1; 
stroke-linecap:round; stroke-linejoin:round;">
</g>
<g style="fill:#000000; fill-opacity:1.0; 
stroke:#000000; stroke-width:0; stroke-opacity:1; 
stroke-linecap:round; stroke-linejoin:round;">
<polyline style="fill-rule:evenodd;"
points="22734,42565
22734,43234
22065,43234
22065,42565
22734,42565
" /> 
</g>
<g style="fill:#000000; fill-opacity:1.0; 
stroke:#000000; stroke-width:669.291; stroke-opacity:1; 
stroke-linecap:round; stroke-linejoin:round;">
</g>
<g style="fill:#000000; fill-opacity:0.0; 
stroke:#000000; stroke-width:669.291; stroke-opacity:1; 
stroke-linecap:round; stroke-linejoin:round;">
<path d="M22400 49600
L22400 49600
" />
<path d="M22400 48600
L22400 48600
" />
</g>
<g style="fill:#000000; fill-opacity:0.0; 
stroke:#000000; stroke-width:0; stroke-opacity:1; 
stroke-linecap:round; stroke-linejoin:round;">
</g>
<g style="fill:#000000; fill-opacity:1.0; 
stroke:#000000; stroke-width:0; stroke-opacity:1; 
stroke-linecap:round; stroke-linejoin:round;">
<polyline style="fill-rule:evenodd;"
points="22734,47265
22734,47934
22065,47934
22065,47265
22734,47265
" /> 
<polyline style="fill-rule:evenodd;"
points="22734,51565
22734,52234
22065,52234
22065,51565
22734,51565
" /> 
</g>
<g style="fill:#000000; fill-opacity:1.0; 
stroke:#000000; stroke-width:669.291; stroke-opacity:1; 
stroke-linecap:round; stroke-linejoin:round;">
</g>
<g style="fill:#000000; fill-opacity:0.0; 
stroke:#000000; stroke-width:669.291; stroke-opacity:1; 
stroke-linecap:round; stroke-linejoin:round;">
<path d="M22400 52900
L22400 52900
" />
<path d="M22400 53900
L22400 53900
" />
</g>
<g style="fill:#000000; fill-opacity:0.0; 
stroke:#000000; stroke-width:0; stroke-opacity:1; 
stroke-linecap:round; stroke-linejoin:round;">
</g>
<g style="fill:#000000; fill-opacity:1.0; 
stroke:#000000; stroke-width:0; stroke-opacity:1; 
stroke-linecap:round; stroke-linejoin:round;">
<polyline style="fill-rule:evenodd;"
points="36934,52065
36934,52734
36265,52734
36265,52065
36934,52065
" /> 
</g>
<g style="fill:#000000; fill-opacity:1.0; 
stroke:#000000; stroke-width:669.291; stroke-opacity:1; 
stroke-linecap:round; stroke-linejoin:round;">
</g>
<g style="fill:#000000; fill-opacity:0.0; 
stroke:#000000; stroke-width:669.291; stroke-opacity:1; 
stroke-linecap:round; stroke-linejoin:round;">
<path d="M36600 53400
L36600 53400
" />
<path d="M36600 54400
L36600 54400
" />
</g> 
</svg>
