<?xml version="1.0" standalone="no"?>
 <!DOCTYPE svg PUBLIC "-//W3C//DTD SVG 1.1//EN" 
 "http://www.w3.org/Graphics/SVG/1.1/DTD/svg11.dtd"> 
<svg xmlns="http://www.w3.org/2000/svg" version="1.1" 
    width="29.7002cm" height="21.0007cm" viewBox="0 0 116930 82680 ">
<title>SVG Picture created as PCB-F.Cu.svg date 2018/09/05 19:24:52 </title>
  <desc>Picture generated by PCBNEW </desc>
<g style="fill:#000000; fill-opacity:1;stroke:#000000; stroke-opacity:1;
stroke-linecap:round; stroke-linejoin:round; "
 transform="translate(0 0) scale(1 1)">
</g>
<g style="fill:#000000; fill-opacity:0.0; 
stroke:#000000; stroke-width:-0.000393701; stroke-opacity:1; 
stroke-linecap:round; stroke-linejoin:round;">
</g>
<g style="fill:#000000; fill-opacity:0.0; 
stroke:#000000; stroke-width:669.291; stroke-opacity:1; 
stroke-linecap:round; stroke-linejoin:round;">
<path d="M25054 46037
L25054 46037
" />
<path d="M25054 47037
L25054 47037
" />
<path d="M25054 48037
L25054 48037
" />
<path d="M25054 49037
L25054 49037
" />
<path d="M25054 55037
L25054 55037
" />
<path d="M25054 44037
L25054 44037
" />
<path d="M25054 45037
L25054 45037
" />
</g>
<g style="fill:#000000; fill-opacity:0.0; 
stroke:#000000; stroke-width:0; stroke-opacity:1; 
stroke-linecap:round; stroke-linejoin:round;">
</g>
<g style="fill:#000000; fill-opacity:1.0; 
stroke:#000000; stroke-width:0; stroke-opacity:1; 
stroke-linecap:round; stroke-linejoin:round;">
<polyline style="fill-rule:evenodd;"
points="25388,40703
25388,41372
24719,41372
24719,40703
25388,40703
" /> 
</g>
<g style="fill:#000000; fill-opacity:1.0; 
stroke:#000000; stroke-width:669.291; stroke-opacity:1; 
stroke-linecap:round; stroke-linejoin:round;">
</g>
<g style="fill:#000000; fill-opacity:0.0; 
stroke:#000000; stroke-width:669.291; stroke-opacity:1; 
stroke-linecap:round; stroke-linejoin:round;">
<path d="M25054 42037
L25054 42037
" />
<path d="M25054 43037
L25054 43037
" />
<path d="M25054 50037
L25054 50037
" />
<path d="M25054 51037
L25054 51037
" />
<path d="M25054 52037
L25054 52037
" />
<path d="M25054 53037
L25054 53037
" />
<path d="M25054 54037
L25054 54037
" />
</g>
<g style="fill:#000000; fill-opacity:0.0; 
stroke:#000000; stroke-width:0; stroke-opacity:1; 
stroke-linecap:round; stroke-linejoin:round;">
</g>
<g style="fill:#000000; fill-opacity:1.0; 
stroke:#000000; stroke-width:0; stroke-opacity:1; 
stroke-linecap:round; stroke-linejoin:round;">
<polyline style="fill-rule:evenodd;"
points="34680,40703
34680,41372
34011,41372
34011,40703
34680,40703
" /> 
</g>
<g style="fill:#000000; fill-opacity:1.0; 
stroke:#000000; stroke-width:669.291; stroke-opacity:1; 
stroke-linecap:round; stroke-linejoin:round;">
</g>
<g style="fill:#000000; fill-opacity:0.0; 
stroke:#000000; stroke-width:669.291; stroke-opacity:1; 
stroke-linecap:round; stroke-linejoin:round;">
<path d="M34345 42037
L34345 42037
" />
<path d="M34345 43037
L34345 43037
" />
<path d="M34345 44037
L34345 44037
" />
<path d="M34345 45037
L34345 45037
" />
<path d="M34345 46037
L34345 46037
" />
<path d="M34345 47037
L34345 47037
" />
<path d="M34345 48037
L34345 48037
" />
<path d="M34345 49037
L34345 49037
" />
<path d="M34345 50037
L34345 50037
" />
<path d="M34345 51037
L34345 51037
" />
<path d="M34345 52037
L34345 52037
" />
<path d="M34345 53037
L34345 53037
" />
<path d="M34345 54037
L34345 54037
" />
<path d="M34345 55037
L34345 55037
" />
<path d="M22400 44900
L22400 44900
" />
<path d="M22400 43900
L22400 43900
" />
</g>
<g style="fill:#000000; fill-opacity:0.0; 
stroke:#000000; stroke-width:0; stroke-opacity:1; 
stroke-linecap:round; stroke-linejoin:round;">
</g>
<g style="fill:#000000; fill-opacity:1.0; 
stroke:#000000; stroke-width:0; stroke-opacity:1; 
stroke-linecap:round; stroke-linejoin:round;">
<polyline style="fill-rule:evenodd;"
points="22734,42565
22734,43234
22065,43234
22065,42565
22734,42565
" /> 
</g>
<g style="fill:#000000; fill-opacity:1.0; 
stroke:#000000; stroke-width:669.291; stroke-opacity:1; 
stroke-linecap:round; stroke-linejoin:round;">
</g>
<g style="fill:#000000; fill-opacity:0.0; 
stroke:#000000; stroke-width:669.291; stroke-opacity:1; 
stroke-linecap:round; stroke-linejoin:round;">
<path d="M22400 49600
L22400 49600
" />
<path d="M22400 48600
L22400 48600
" />
</g>
<g style="fill:#000000; fill-opacity:0.0; 
stroke:#000000; stroke-width:0; stroke-opacity:1; 
stroke-linecap:round; stroke-linejoin:round;">
</g>
<g style="fill:#000000; fill-opacity:1.0; 
stroke:#000000; stroke-width:0; stroke-opacity:1; 
stroke-linecap:round; stroke-linejoin:round;">
<polyline style="fill-rule:evenodd;"
points="22734,47265
22734,47934
22065,47934
22065,47265
22734,47265
" /> 
<polyline style="fill-rule:evenodd;"
points="22734,51565
22734,52234
22065,52234
22065,51565
22734,51565
" /> 
</g>
<g style="fill:#000000; fill-opacity:1.0; 
stroke:#000000; stroke-width:669.291; stroke-opacity:1; 
stroke-linecap:round; stroke-linejoin:round;">
</g>
<g style="fill:#000000; fill-opacity:0.0; 
stroke:#000000; stroke-width:669.291; stroke-opacity:1; 
stroke-linecap:round; stroke-linejoin:round;">
<path d="M22400 52900
L22400 52900
" />
<path d="M22400 53900
L22400 53900
" />
</g>
<g style="fill:#000000; fill-opacity:0.0; 
stroke:#000000; stroke-width:0; stroke-opacity:1; 
stroke-linecap:round; stroke-linejoin:round;">
</g>
<g style="fill:#000000; fill-opacity:1.0; 
stroke:#000000; stroke-width:0; stroke-opacity:1; 
stroke-linecap:round; stroke-linejoin:round;">
<polyline style="fill-rule:evenodd;"
points="36934,52065
36934,52734
36265,52734
36265,52065
36934,52065
" /> 
</g>
<g style="fill:#000000; fill-opacity:1.0; 
stroke:#000000; stroke-width:669.291; stroke-opacity:1; 
stroke-linecap:round; stroke-linejoin:round;">
</g>
<g style="fill:#000000; fill-opacity:0.0; 
stroke:#000000; stroke-width:669.291; stroke-opacity:1; 
stroke-linecap:round; stroke-linejoin:round;">
<path d="M36600 53400
L36600 53400
" />
<path d="M36600 54400
L36600 54400
" />
</g>
<g style="fill:#000000; fill-opacity:1.0; 
stroke:#000000; stroke-width:100; stroke-opacity:1; 
stroke-linecap:round; stroke-linejoin:round;">
<polyline style="fill-rule:evenodd;"
points="28643,33688
29220,34195
29238,34222
29291,34258
29303,34268
29330,34284
29397,34329
29413,34332
29426,34340
29506,34350
29537,34357
29553,34357
29616,34365
29647,34357
29675,34357
30386,34481
30942,34805
31419,35315
31817,35982
32115,36707
32117,36731
32151,36795
32160,36817
32173,36837
32206,36900
32225,36916
32239,36936
32298,36976
32353,37022
32377,37029
32397,37043
32467,37057
32536,37078
32560,37076
32585,37081
32655,37067
32678,37065
32701,37058
32772,37044
32792,37031
33447,36836
33783,36874
34165,37244
34909,37983
35247,38320
35262,38346
35314,38387
35326,38399
35351,38416
35412,38463
35430,38468
35445,38478
35522,38494
35550,38501
35568,38503
35633,38516
35662,38510
36098,38541
36098,38542
36145,38545
36192,38548
36192,38548
37138,38616
37140,38617
37186,38619
37231,38623
37233,38622
37633,38648
37639,38686
37639,38686
37690,39030
37690,39031
37697,39078
37703,39124
37703,39124
37790,39708
37790,39708
37795,39747
37804,39802
37804,39802
37921,40596
37921,40596
37927,40640
37935,40689
37935,40689
38079,41662
38079,41662
38089,41733
38092,41756
38092,41756
38258,42879
38258,42879
38266,42929
38272,42972
38272,42972
38456,44214
38456,44214
38462,44259
38470,44308
38470,44308
38680,45733
38680,45733
38886,47123
38886,47123
39109,48636
39109,48636
39115,48671
39123,48729
39123,48729
39333,50147
39333,50147
39566,51721
39566,51721
39775,53140
39775,53140
39972,54467
40150,55673
40150,55673
40292,56634
40292,56634
40421,57506
40519,58167
40519,58167
40543,58333
32580,60050
17449,57215
17477,57003
17578,56222
17707,55222
17731,55037
24260,55037
24321,55341
24493,55598
24750,55770
24977,55816
25130,55816
25358,55770
25615,55598
25787,55341
25847,55037
33552,55037
33612,55341
33784,55598
34041,55770
34269,55816
34422,55816
34649,55770
34906,55598
35078,55341
35139,55037
35078,54734
34949,54540
36032,54540
36099,54701
36253,54870
36459,54967
36550,54920
36550,54450
36650,54450
36650,54920
36740,54967
36946,54870
37100,54701
37167,54540
37119,54450
36650,54450
36550,54450
36080,54450
36032,54540
34949,54540
34906,54476
34791,54399
34846,54339
34913,54178
34865,54087
34395,54087
34395,54095
34295,54095
34295,54087
33825,54087
33778,54178
33845,54339
33899,54399
33784,54476
33612,54734
33552,55037
25847,55037
25787,54734
25615,54476
25500,54399
25554,54339
25621,54178
25574,54087
25104,54087
25104,54095
25004,54095
25004,54087
24534,54087
24486,54178
24553,54339
24608,54399
24493,54476
24321,54734
24260,55037
17731,55037
17860,54040
21832,54040
21899,54201
22053,54370
22259,54467
22350,54420
22350,53950
22450,53950
22450,54420
22540,54467
22746,54370
22900,54201
22967,54040
22919,53950
22450,53950
22350,53950
21880,53950
21832,54040
17860,54040
18007,52900
21606,52900
21666,53203
21838,53461
21953,53538
21899,53598
21832,53759
21880,53850
22350,53850
22350,53842
22450,53842
22450,53850
22919,53850
22967,53759
22900,53598
22846,53538
22961,53461
23133,53203
23193,52900
23133,52596
23079,52516
23152,52407
23187,52234
23187,51565
23152,51392
23054,51245
22907,51147
22734,51112
22065,51112
21892,51147
21745,51245
21647,51392
21612,51565
21612,52234
21647,52407
21720,52516
21666,52596
21606,52900
18007,52900
18032,52713
18216,51293
18407,49816
18417,49740
21832,49740
21899,49901
22053,50070
22259,50167
22350,50120
22350,49650
22450,49650
22450,50120
22540,50167
22746,50070
22900,49901
22967,49740
22919,49650
22450,49650
22350,49650
21880,49650
21832,49740
18417,49740
18565,48600
21606,48600
21666,48903
21838,49161
21953,49238
21899,49298
21832,49459
21880,49550
22350,49550
22350,49542
22450,49542
22450,49550
22919,49550
22967,49459
22900,49298
22846,49238
22961,49161
23133,48903
23193,48600
23133,48296
23079,48216
23152,48107
23166,48037
24260,48037
24321,48341
24452,48537
24321,48734
24260,49037
24321,49341
24452,49537
24321,49734
24260,50037
24321,50341
24452,50537
24321,50734
24260,51037
24321,51341
24452,51537
24321,51734
24260,52037
24321,52341
24452,52537
24321,52734
24260,53037
24321,53341
24493,53598
24608,53675
24553,53735
24486,53897
24534,53987
25004,53987
25004,53979
25104,53979
25104,53987
25574,53987
25621,53897
25554,53735
25500,53675
25615,53598
25787,53341
25847,53037
25787,52734
25656,52537
25787,52341
25847,52037
25787,51734
25656,51537
25787,51341
25847,51037
33552,51037
33612,51341
33743,51537
33612,51734
33552,52037
33612,52341
33743,52537
33612,52734
33552,53037
33612,53341
33784,53598
33899,53675
33845,53735
33778,53897
33825,53987
34295,53987
34295,53979
34395,53979
34395,53987
34865,53987
34913,53897
34846,53735
34791,53675
34906,53598
35039,53400
35806,53400
35866,53703
36038,53961
36153,54038
36099,54098
36032,54259
36080,54350
36550,54350
36550,54342
36650,54342
36650,54350
37119,54350
37167,54259
37100,54098
37046,54038
37161,53961
37333,53703
37393,53400
37333,53096
37279,53016
37352,52907
37387,52734
37387,52065
37352,51892
37254,51745
37107,51647
36934,51612
36265,51612
36092,51647
35945,51745
35847,51892
35812,52065
35812,52734
35847,52907
35920,53016
35866,53096
35806,53400
35039,53400
35078,53341
35139,53037
35078,52734
34947,52537
35078,52341
35139,52037
35078,51734
34947,51537
35078,51341
35139,51037
35078,50734
34906,50476
34791,50399
34846,50339
34913,50178
34865,50087
34395,50087
34395,50095
34295,50095
34295,50087
33825,50087
33778,50178
33845,50339
33899,50399
33784,50476
33612,50734
33552,51037
25847,51037
25787,50734
25656,50537
25787,50341
25847,50037
25787,49734
25656,49537
25787,49341
25847,49037
25787,48734
25656,48537
25787,48341
25847,48037
25787,47734
25615,47476
25500,47399
25554,47339
25621,47178
25574,47087
25104,47087
25104,47095
25004,47095
25004,47087
24534,47087
24486,47178
24553,47339
24608,47399
24493,47476
24321,47734
24260,48037
23166,48037
23187,47934
23187,47265
23152,47092
23054,46945
22907,46847
22734,46812
22065,46812
21892,46847
21745,46945
21647,47092
21612,47265
21612,47934
21647,48107
21720,48216
21666,48296
21606,48600
18565,48600
18599,48339
18786,46899
18963,45542
19028,45040
21832,45040
21899,45201
22053,45370
22259,45467
22350,45420
22350,44950
22450,44950
22450,45420
22540,45467
22746,45370
22900,45201
22967,45040
22919,44950
22450,44950
22350,44950
21880,44950
21832,45040
19028,45040
19123,44314
19177,43900
21606,43900
21666,44203
21838,44461
21953,44538
21899,44598
21832,44759
21880,44850
22350,44850
22350,44842
22450,44842
22450,44850
22919,44850
22967,44759
22900,44598
22846,44538
22961,44461
23133,44203
23193,43900
23133,43596
23079,43516
23152,43407
23187,43234
23187,42565
23152,42392
23054,42245
22907,42147
22734,42112
22065,42112
21892,42147
21745,42245
21647,42392
21612,42565
21612,43234
21647,43407
21720,43516
21666,43596
21606,43900
19177,43900
19262,43257
19372,42420
19424,42037
24260,42037
24321,42341
24452,42537
24321,42734
24260,43037
24321,43341
24452,43537
24321,43734
24260,44037
24321,44341
24452,44537
24321,44734
24260,45037
24321,45341
24452,45537
24321,45734
24260,46037
24321,46341
24493,46598
24608,46675
24553,46735
24486,46897
24534,46987
25004,46987
25004,46979
25104,46979
25104,46987
25574,46987
25621,46897
25554,46735
25500,46675
25615,46598
25787,46341
25847,46037
25787,45734
25656,45537
25787,45341
25847,45037
25787,44734
25656,44537
25787,44341
25847,44037
25787,43734
25656,43537
25787,43341
25847,43037
33552,43037
33612,43341
33743,43537
33612,43734
33552,44037
33612,44341
33743,44537
33612,44734
33552,45037
33612,45341
33743,45537
33612,45734
33552,46037
33612,46341
33743,46537
33612,46734
33552,47037
33612,47341
33743,47537
33612,47734
33552,48037
33612,48341
33743,48537
33612,48734
33552,49037
33612,49341
33784,49598
33899,49675
33845,49735
33778,49897
33825,49987
34295,49987
34295,49979
34395,49979
34395,49987
34865,49987
34913,49897
34846,49735
34791,49675
34906,49598
35078,49341
35139,49037
35078,48734
34947,48537
35078,48341
35139,48037
35078,47734
34947,47537
35078,47341
35139,47037
35078,46734
34947,46537
35078,46341
35139,46037
35078,45734
34947,45537
35078,45341
35139,45037
35078,44734
34947,44537
35078,44341
35139,44037
35078,43734
34947,43537
35078,43341
35139,43037
35078,42734
34906,42476
34791,42399
34846,42339
34913,42178
34865,42087
34395,42087
34395,42095
34295,42095
34295,42087
33825,42087
33778,42178
33845,42339
33899,42399
33784,42476
33612,42734
33552,43037
25847,43037
25787,42734
25656,42537
25787,42341
25847,42037
25787,41734
25734,41654
25806,41545
25841,41372
25841,40703
33558,40703
33558,41372
33593,41545
33691,41692
33825,41782
33778,41897
33825,41987
34295,41987
34295,41979
34395,41979
34395,41987
34865,41987
34913,41897
34865,41782
35000,41692
35098,41545
35132,41372
35132,40703
35098,40530
35000,40383
34853,40285
34680,40250
34011,40250
33837,40285
33691,40383
33593,40530
33558,40703
25841,40703
25806,40530
25708,40383
25562,40285
25388,40250
24719,40250
24546,40285
24399,40383
24301,40530
24267,40703
24267,41372
24301,41545
24374,41654
24321,41734
24260,42037
19424,42037
19450,41847
19483,41610
19601,41179
20069,40968
20427,40851
21284,40583
22425,40232
22433,40233
22516,40204
22553,40193
22561,40189
22614,40170
22644,40144
22679,40125
22715,40081
22757,40044
22774,40008
22800,39977
22816,39922
22819,39915
22829,39877
22854,39793
22854,39785
23002,39218
23230,38500
23519,37736
23872,36958
24289,36195
24772,35479
25319,34839
25928,34304
26598,33896
27335,33636
28114,33547
28643,33688
" /> 
</g>
<g style="fill:#FFFFFF; fill-opacity:1.0; 
stroke:#FFFFFF; stroke-width:100; stroke-opacity:1; 
stroke-linecap:round; stroke-linejoin:round;">
</g>
<g style="fill:#FFFFFF; fill-opacity:1.0; 
stroke:#FFFFFF; stroke-width:0; stroke-opacity:1; 
stroke-linecap:round; stroke-linejoin:round;">
<circle cx="25054.3" cy="46037.8" r="196.85" /> 
</g>
<g style="fill:#FFFFFF; fill-opacity:1.0; 
stroke:#FFFFFF; stroke-width:39.3701; stroke-opacity:1; 
stroke-linecap:round; stroke-linejoin:round;">
</g>
<g style="fill:#FFFFFF; fill-opacity:1.0; 
stroke:#FFFFFF; stroke-width:0; stroke-opacity:1; 
stroke-linecap:round; stroke-linejoin:round;">
<circle cx="25054.3" cy="47037.8" r="196.85" /> 
</g>
<g style="fill:#FFFFFF; fill-opacity:1.0; 
stroke:#FFFFFF; stroke-width:39.3701; stroke-opacity:1; 
stroke-linecap:round; stroke-linejoin:round;">
</g>
<g style="fill:#FFFFFF; fill-opacity:1.0; 
stroke:#FFFFFF; stroke-width:0; stroke-opacity:1; 
stroke-linecap:round; stroke-linejoin:round;">
<circle cx="25054.3" cy="48037.8" r="196.85" /> 
</g>
<g style="fill:#FFFFFF; fill-opacity:1.0; 
stroke:#FFFFFF; stroke-width:39.3701; stroke-opacity:1; 
stroke-linecap:round; stroke-linejoin:round;">
</g>
<g style="fill:#FFFFFF; fill-opacity:1.0; 
stroke:#FFFFFF; stroke-width:0; stroke-opacity:1; 
stroke-linecap:round; stroke-linejoin:round;">
<circle cx="25054.3" cy="49037.8" r="196.85" /> 
</g>
<g style="fill:#FFFFFF; fill-opacity:1.0; 
stroke:#FFFFFF; stroke-width:39.3701; stroke-opacity:1; 
stroke-linecap:round; stroke-linejoin:round;">
</g>
<g style="fill:#FFFFFF; fill-opacity:1.0; 
stroke:#FFFFFF; stroke-width:0; stroke-opacity:1; 
stroke-linecap:round; stroke-linejoin:round;">
<circle cx="25054.3" cy="55037.8" r="196.85" /> 
</g>
<g style="fill:#FFFFFF; fill-opacity:1.0; 
stroke:#FFFFFF; stroke-width:39.3701; stroke-opacity:1; 
stroke-linecap:round; stroke-linejoin:round;">
</g>
<g style="fill:#FFFFFF; fill-opacity:1.0; 
stroke:#FFFFFF; stroke-width:0; stroke-opacity:1; 
stroke-linecap:round; stroke-linejoin:round;">
<circle cx="25054.3" cy="44037.8" r="196.85" /> 
</g>
<g style="fill:#FFFFFF; fill-opacity:1.0; 
stroke:#FFFFFF; stroke-width:39.3701; stroke-opacity:1; 
stroke-linecap:round; stroke-linejoin:round;">
</g>
<g style="fill:#FFFFFF; fill-opacity:1.0; 
stroke:#FFFFFF; stroke-width:0; stroke-opacity:1; 
stroke-linecap:round; stroke-linejoin:round;">
<circle cx="25054.3" cy="45037.8" r="196.85" /> 
</g>
<g style="fill:#FFFFFF; fill-opacity:1.0; 
stroke:#FFFFFF; stroke-width:39.3701; stroke-opacity:1; 
stroke-linecap:round; stroke-linejoin:round;">
</g>
<g style="fill:#FFFFFF; fill-opacity:1.0; 
stroke:#FFFFFF; stroke-width:0; stroke-opacity:1; 
stroke-linecap:round; stroke-linejoin:round;">
<circle cx="25054.3" cy="41037.8" r="196.85" /> 
</g>
<g style="fill:#FFFFFF; fill-opacity:1.0; 
stroke:#FFFFFF; stroke-width:39.3701; stroke-opacity:1; 
stroke-linecap:round; stroke-linejoin:round;">
</g>
<g style="fill:#FFFFFF; fill-opacity:1.0; 
stroke:#FFFFFF; stroke-width:0; stroke-opacity:1; 
stroke-linecap:round; stroke-linejoin:round;">
<circle cx="25054.3" cy="42037.8" r="196.85" /> 
</g>
<g style="fill:#FFFFFF; fill-opacity:1.0; 
stroke:#FFFFFF; stroke-width:39.3701; stroke-opacity:1; 
stroke-linecap:round; stroke-linejoin:round;">
</g>
<g style="fill:#FFFFFF; fill-opacity:1.0; 
stroke:#FFFFFF; stroke-width:0; stroke-opacity:1; 
stroke-linecap:round; stroke-linejoin:round;">
<circle cx="25054.3" cy="43037.8" r="196.85" /> 
</g>
<g style="fill:#FFFFFF; fill-opacity:1.0; 
stroke:#FFFFFF; stroke-width:39.3701; stroke-opacity:1; 
stroke-linecap:round; stroke-linejoin:round;">
</g>
<g style="fill:#FFFFFF; fill-opacity:1.0; 
stroke:#FFFFFF; stroke-width:0; stroke-opacity:1; 
stroke-linecap:round; stroke-linejoin:round;">
<circle cx="25054.3" cy="50037.8" r="196.85" /> 
</g>
<g style="fill:#FFFFFF; fill-opacity:1.0; 
stroke:#FFFFFF; stroke-width:39.3701; stroke-opacity:1; 
stroke-linecap:round; stroke-linejoin:round;">
</g>
<g style="fill:#FFFFFF; fill-opacity:1.0; 
stroke:#FFFFFF; stroke-width:0; stroke-opacity:1; 
stroke-linecap:round; stroke-linejoin:round;">
<circle cx="25054.3" cy="51037.8" r="196.85" /> 
</g>
<g style="fill:#FFFFFF; fill-opacity:1.0; 
stroke:#FFFFFF; stroke-width:39.3701; stroke-opacity:1; 
stroke-linecap:round; stroke-linejoin:round;">
</g>
<g style="fill:#FFFFFF; fill-opacity:1.0; 
stroke:#FFFFFF; stroke-width:0; stroke-opacity:1; 
stroke-linecap:round; stroke-linejoin:round;">
<circle cx="25054.3" cy="52037.8" r="196.85" /> 
</g>
<g style="fill:#FFFFFF; fill-opacity:1.0; 
stroke:#FFFFFF; stroke-width:39.3701; stroke-opacity:1; 
stroke-linecap:round; stroke-linejoin:round;">
</g>
<g style="fill:#FFFFFF; fill-opacity:1.0; 
stroke:#FFFFFF; stroke-width:0; stroke-opacity:1; 
stroke-linecap:round; stroke-linejoin:round;">
<circle cx="25054.3" cy="53037.8" r="196.85" /> 
</g>
<g style="fill:#FFFFFF; fill-opacity:1.0; 
stroke:#FFFFFF; stroke-width:39.3701; stroke-opacity:1; 
stroke-linecap:round; stroke-linejoin:round;">
</g>
<g style="fill:#FFFFFF; fill-opacity:1.0; 
stroke:#FFFFFF; stroke-width:0; stroke-opacity:1; 
stroke-linecap:round; stroke-linejoin:round;">
<circle cx="25054.3" cy="54037.8" r="196.85" /> 
</g>
<g style="fill:#FFFFFF; fill-opacity:1.0; 
stroke:#FFFFFF; stroke-width:39.3701; stroke-opacity:1; 
stroke-linecap:round; stroke-linejoin:round;">
</g>
<g style="fill:#FFFFFF; fill-opacity:1.0; 
stroke:#FFFFFF; stroke-width:0; stroke-opacity:1; 
stroke-linecap:round; stroke-linejoin:round;">
<circle cx="34345.7" cy="41037.8" r="196.85" /> 
</g>
<g style="fill:#FFFFFF; fill-opacity:1.0; 
stroke:#FFFFFF; stroke-width:39.3701; stroke-opacity:1; 
stroke-linecap:round; stroke-linejoin:round;">
</g>
<g style="fill:#FFFFFF; fill-opacity:1.0; 
stroke:#FFFFFF; stroke-width:0; stroke-opacity:1; 
stroke-linecap:round; stroke-linejoin:round;">
<circle cx="34345.7" cy="42037.8" r="196.85" /> 
</g>
<g style="fill:#FFFFFF; fill-opacity:1.0; 
stroke:#FFFFFF; stroke-width:39.3701; stroke-opacity:1; 
stroke-linecap:round; stroke-linejoin:round;">
</g>
<g style="fill:#FFFFFF; fill-opacity:1.0; 
stroke:#FFFFFF; stroke-width:0; stroke-opacity:1; 
stroke-linecap:round; stroke-linejoin:round;">
<circle cx="34345.7" cy="43037.8" r="196.85" /> 
</g>
<g style="fill:#FFFFFF; fill-opacity:1.0; 
stroke:#FFFFFF; stroke-width:39.3701; stroke-opacity:1; 
stroke-linecap:round; stroke-linejoin:round;">
</g>
<g style="fill:#FFFFFF; fill-opacity:1.0; 
stroke:#FFFFFF; stroke-width:0; stroke-opacity:1; 
stroke-linecap:round; stroke-linejoin:round;">
<circle cx="34345.7" cy="44037.8" r="196.85" /> 
</g>
<g style="fill:#FFFFFF; fill-opacity:1.0; 
stroke:#FFFFFF; stroke-width:39.3701; stroke-opacity:1; 
stroke-linecap:round; stroke-linejoin:round;">
</g>
<g style="fill:#FFFFFF; fill-opacity:1.0; 
stroke:#FFFFFF; stroke-width:0; stroke-opacity:1; 
stroke-linecap:round; stroke-linejoin:round;">
<circle cx="34345.7" cy="45037.8" r="196.85" /> 
</g>
<g style="fill:#FFFFFF; fill-opacity:1.0; 
stroke:#FFFFFF; stroke-width:39.3701; stroke-opacity:1; 
stroke-linecap:round; stroke-linejoin:round;">
</g>
<g style="fill:#FFFFFF; fill-opacity:1.0; 
stroke:#FFFFFF; stroke-width:0; stroke-opacity:1; 
stroke-linecap:round; stroke-linejoin:round;">
<circle cx="34345.7" cy="46037.8" r="196.85" /> 
</g>
<g style="fill:#FFFFFF; fill-opacity:1.0; 
stroke:#FFFFFF; stroke-width:39.3701; stroke-opacity:1; 
stroke-linecap:round; stroke-linejoin:round;">
</g>
<g style="fill:#FFFFFF; fill-opacity:1.0; 
stroke:#FFFFFF; stroke-width:0; stroke-opacity:1; 
stroke-linecap:round; stroke-linejoin:round;">
<circle cx="34345.7" cy="47037.8" r="196.85" /> 
</g>
<g style="fill:#FFFFFF; fill-opacity:1.0; 
stroke:#FFFFFF; stroke-width:39.3701; stroke-opacity:1; 
stroke-linecap:round; stroke-linejoin:round;">
</g>
<g style="fill:#FFFFFF; fill-opacity:1.0; 
stroke:#FFFFFF; stroke-width:0; stroke-opacity:1; 
stroke-linecap:round; stroke-linejoin:round;">
<circle cx="34345.7" cy="48037.8" r="196.85" /> 
</g>
<g style="fill:#FFFFFF; fill-opacity:1.0; 
stroke:#FFFFFF; stroke-width:39.3701; stroke-opacity:1; 
stroke-linecap:round; stroke-linejoin:round;">
</g>
<g style="fill:#FFFFFF; fill-opacity:1.0; 
stroke:#FFFFFF; stroke-width:0; stroke-opacity:1; 
stroke-linecap:round; stroke-linejoin:round;">
<circle cx="34345.7" cy="49037.8" r="196.85" /> 
</g>
<g style="fill:#FFFFFF; fill-opacity:1.0; 
stroke:#FFFFFF; stroke-width:39.3701; stroke-opacity:1; 
stroke-linecap:round; stroke-linejoin:round;">
</g>
<g style="fill:#FFFFFF; fill-opacity:1.0; 
stroke:#FFFFFF; stroke-width:0; stroke-opacity:1; 
stroke-linecap:round; stroke-linejoin:round;">
<circle cx="34345.7" cy="50037.8" r="196.85" /> 
</g>
<g style="fill:#FFFFFF; fill-opacity:1.0; 
stroke:#FFFFFF; stroke-width:39.3701; stroke-opacity:1; 
stroke-linecap:round; stroke-linejoin:round;">
</g>
<g style="fill:#FFFFFF; fill-opacity:1.0; 
stroke:#FFFFFF; stroke-width:0; stroke-opacity:1; 
stroke-linecap:round; stroke-linejoin:round;">
<circle cx="34345.7" cy="51037.8" r="196.85" /> 
</g>
<g style="fill:#FFFFFF; fill-opacity:1.0; 
stroke:#FFFFFF; stroke-width:39.3701; stroke-opacity:1; 
stroke-linecap:round; stroke-linejoin:round;">
</g>
<g style="fill:#FFFFFF; fill-opacity:1.0; 
stroke:#FFFFFF; stroke-width:0; stroke-opacity:1; 
stroke-linecap:round; stroke-linejoin:round;">
<circle cx="34345.7" cy="52037.8" r="196.85" /> 
</g>
<g style="fill:#FFFFFF; fill-opacity:1.0; 
stroke:#FFFFFF; stroke-width:39.3701; stroke-opacity:1; 
stroke-linecap:round; stroke-linejoin:round;">
</g>
<g style="fill:#FFFFFF; fill-opacity:1.0; 
stroke:#FFFFFF; stroke-width:0; stroke-opacity:1; 
stroke-linecap:round; stroke-linejoin:round;">
<circle cx="34345.7" cy="53037.8" r="196.85" /> 
</g>
<g style="fill:#FFFFFF; fill-opacity:1.0; 
stroke:#FFFFFF; stroke-width:39.3701; stroke-opacity:1; 
stroke-linecap:round; stroke-linejoin:round;">
</g>
<g style="fill:#FFFFFF; fill-opacity:1.0; 
stroke:#FFFFFF; stroke-width:0; stroke-opacity:1; 
stroke-linecap:round; stroke-linejoin:round;">
<circle cx="34345.7" cy="54037.8" r="196.85" /> 
</g>
<g style="fill:#FFFFFF; fill-opacity:1.0; 
stroke:#FFFFFF; stroke-width:39.3701; stroke-opacity:1; 
stroke-linecap:round; stroke-linejoin:round;">
</g>
<g style="fill:#FFFFFF; fill-opacity:1.0; 
stroke:#FFFFFF; stroke-width:0; stroke-opacity:1; 
stroke-linecap:round; stroke-linejoin:round;">
<circle cx="34345.7" cy="55037.8" r="196.85" /> 
</g>
<g style="fill:#FFFFFF; fill-opacity:1.0; 
stroke:#FFFFFF; stroke-width:39.3701; stroke-opacity:1; 
stroke-linecap:round; stroke-linejoin:round;">
</g>
<g style="fill:#FFFFFF; fill-opacity:1.0; 
stroke:#FFFFFF; stroke-width:0; stroke-opacity:1; 
stroke-linecap:round; stroke-linejoin:round;">
<circle cx="22400" cy="44900" r="196.85" /> 
</g>
<g style="fill:#FFFFFF; fill-opacity:1.0; 
stroke:#FFFFFF; stroke-width:39.3701; stroke-opacity:1; 
stroke-linecap:round; stroke-linejoin:round;">
</g>
<g style="fill:#FFFFFF; fill-opacity:1.0; 
stroke:#FFFFFF; stroke-width:0; stroke-opacity:1; 
stroke-linecap:round; stroke-linejoin:round;">
<circle cx="22400" cy="43900" r="196.85" /> 
</g>
<g style="fill:#FFFFFF; fill-opacity:1.0; 
stroke:#FFFFFF; stroke-width:39.3701; stroke-opacity:1; 
stroke-linecap:round; stroke-linejoin:round;">
</g>
<g style="fill:#FFFFFF; fill-opacity:1.0; 
stroke:#FFFFFF; stroke-width:0; stroke-opacity:1; 
stroke-linecap:round; stroke-linejoin:round;">
<circle cx="22400" cy="42900" r="196.85" /> 
</g>
<g style="fill:#FFFFFF; fill-opacity:1.0; 
stroke:#FFFFFF; stroke-width:39.3701; stroke-opacity:1; 
stroke-linecap:round; stroke-linejoin:round;">
</g>
<g style="fill:#FFFFFF; fill-opacity:1.0; 
stroke:#FFFFFF; stroke-width:0; stroke-opacity:1; 
stroke-linecap:round; stroke-linejoin:round;">
<circle cx="22400" cy="49600" r="196.85" /> 
</g>
<g style="fill:#FFFFFF; fill-opacity:1.0; 
stroke:#FFFFFF; stroke-width:39.3701; stroke-opacity:1; 
stroke-linecap:round; stroke-linejoin:round;">
</g>
<g style="fill:#FFFFFF; fill-opacity:1.0; 
stroke:#FFFFFF; stroke-width:0; stroke-opacity:1; 
stroke-linecap:round; stroke-linejoin:round;">
<circle cx="22400" cy="48600" r="196.85" /> 
</g>
<g style="fill:#FFFFFF; fill-opacity:1.0; 
stroke:#FFFFFF; stroke-width:39.3701; stroke-opacity:1; 
stroke-linecap:round; stroke-linejoin:round;">
</g>
<g style="fill:#FFFFFF; fill-opacity:1.0; 
stroke:#FFFFFF; stroke-width:0; stroke-opacity:1; 
stroke-linecap:round; stroke-linejoin:round;">
<circle cx="22400" cy="47600" r="196.85" /> 
</g>
<g style="fill:#FFFFFF; fill-opacity:1.0; 
stroke:#FFFFFF; stroke-width:39.3701; stroke-opacity:1; 
stroke-linecap:round; stroke-linejoin:round;">
</g>
<g style="fill:#FFFFFF; fill-opacity:1.0; 
stroke:#FFFFFF; stroke-width:0; stroke-opacity:1; 
stroke-linecap:round; stroke-linejoin:round;">
<circle cx="22400" cy="51900" r="196.85" /> 
</g>
<g style="fill:#FFFFFF; fill-opacity:1.0; 
stroke:#FFFFFF; stroke-width:39.3701; stroke-opacity:1; 
stroke-linecap:round; stroke-linejoin:round;">
</g>
<g style="fill:#FFFFFF; fill-opacity:1.0; 
stroke:#FFFFFF; stroke-width:0; stroke-opacity:1; 
stroke-linecap:round; stroke-linejoin:round;">
<circle cx="22400" cy="52900" r="196.85" /> 
</g>
<g style="fill:#FFFFFF; fill-opacity:1.0; 
stroke:#FFFFFF; stroke-width:39.3701; stroke-opacity:1; 
stroke-linecap:round; stroke-linejoin:round;">
</g>
<g style="fill:#FFFFFF; fill-opacity:1.0; 
stroke:#FFFFFF; stroke-width:0; stroke-opacity:1; 
stroke-linecap:round; stroke-linejoin:round;">
<circle cx="22400" cy="53900" r="196.85" /> 
</g>
<g style="fill:#FFFFFF; fill-opacity:1.0; 
stroke:#FFFFFF; stroke-width:39.3701; stroke-opacity:1; 
stroke-linecap:round; stroke-linejoin:round;">
</g>
<g style="fill:#FFFFFF; fill-opacity:1.0; 
stroke:#FFFFFF; stroke-width:0; stroke-opacity:1; 
stroke-linecap:round; stroke-linejoin:round;">
<circle cx="36600" cy="52400" r="196.85" /> 
</g>
<g style="fill:#FFFFFF; fill-opacity:1.0; 
stroke:#FFFFFF; stroke-width:39.3701; stroke-opacity:1; 
stroke-linecap:round; stroke-linejoin:round;">
</g>
<g style="fill:#FFFFFF; fill-opacity:1.0; 
stroke:#FFFFFF; stroke-width:0; stroke-opacity:1; 
stroke-linecap:round; stroke-linejoin:round;">
<circle cx="36600" cy="53400" r="196.85" /> 
</g>
<g style="fill:#FFFFFF; fill-opacity:1.0; 
stroke:#FFFFFF; stroke-width:39.3701; stroke-opacity:1; 
stroke-linecap:round; stroke-linejoin:round;">
</g>
<g style="fill:#FFFFFF; fill-opacity:1.0; 
stroke:#FFFFFF; stroke-width:0; stroke-opacity:1; 
stroke-linecap:round; stroke-linejoin:round;">
<circle cx="36600" cy="54400" r="196.85" /> 
</g>
<g style="fill:#FFFFFF; fill-opacity:1.0; 
stroke:#FFFFFF; stroke-width:39.3701; stroke-opacity:1; 
stroke-linecap:round; stroke-linejoin:round;">
</g>
<g style="fill:#000000; fill-opacity:1.0; 
stroke:#000000; stroke-width:39.3701; stroke-opacity:1; 
stroke-linecap:round; stroke-linejoin:round;">
</g> 
</svg>
