<?xml version="1.0" standalone="no"?>
 <!DOCTYPE svg PUBLIC "-//W3C//DTD SVG 1.1//EN" 
 "http://www.w3.org/Graphics/SVG/1.1/DTD/svg11.dtd"> 
<svg xmlns="http://www.w3.org/2000/svg" version="1.1" 
    width="29.7002cm" height="21.0007cm" viewBox="0 0 116930 82680 ">
<title>SVG Picture created as PCB-F.SilkS.svg date 2018/09/05 19:24:52 </title>
  <desc>Picture generated by PCBNEW </desc>
<g style="fill:#000000; fill-opacity:1;stroke:#000000; stroke-opacity:1;
stroke-linecap:round; stroke-linejoin:round; "
 transform="translate(0 0) scale(1 1)">
</g>
<g style="fill:#000000; fill-opacity:0.0; 
stroke:#000000; stroke-width:-0.000393701; stroke-opacity:1; 
stroke-linecap:round; stroke-linejoin:round;">
</g>
<g style="fill:#000000; fill-opacity:1.0; 
stroke:#000000; stroke-width:0; stroke-opacity:1; 
stroke-linecap:round; stroke-linejoin:round;">
<polyline style="fill-rule:evenodd;"
points="30377,36642
30271,35629
30096,34903
30202,34883
30730,35167
31205,35746
31592,36576
31683,36844
31442,36929
30807,37129
30412,37256
30377,36642
" /> 
<polyline style="fill-rule:evenodd;"
points="26797,38132
27143,37189
27613,36353
28179,35665
28815,35163
29172,35257
29355,36097
29423,37087
29427,37535
28117,37938
27181,38223
26773,38342
26797,38132
26797,38132
" /> 
<polyline style="fill-rule:evenodd;"
points="23503,39340
23741,38599
24159,37540
24688,36497
25269,35628
25895,34941
26557,34441
27249,34137
27963,34035
28364,34095
28494,34154
28320,34248
27707,34663
27153,35215
26663,35891
26246,36681
25908,37572
25657,38553
25624,38720
25217,38851
24213,39161
23522,39361
23503,39340
23503,39340
" /> 
<polyline style="fill-rule:evenodd;"
points="29695,42882
28657,45994
28376,45868
27644,45634
26627,45508
25445,45787
24984,46355
24905,46811
25032,47255
25373,47665
25866,48071
26451,48504
27067,48992
27652,49567
28145,50258
28486,51095
28613,52108
28515,53173
28233,54110
27784,54905
27189,55545
26466,56018
25632,56311
24706,56412
23250,56238
22114,55822
21299,55325
20809,54909
20645,54735
21374,52351
21784,52665
22773,53250
23978,53565
24820,53200
25082,52505
24951,51883
24606,51372
24118,50915
23559,50458
22999,49945
22512,49321
22167,48530
22036,47517
22091,46753
22256,46008
22532,45296
22919,44632
23418,44029
24029,43504
24751,43070
25587,42742
26536,42535
27598,42462
28760,42571
29460,42773
29695,42882
" /> 
</g> 
</svg>
