<?xml version="1.0" standalone="no"?>
 <!DOCTYPE svg PUBLIC "-//W3C//DTD SVG 1.1//EN" 
 "http://www.w3.org/Graphics/SVG/1.1/DTD/svg11.dtd"> 
<svg xmlns="http://www.w3.org/2000/svg" version="1.1" 
    width="29.7002cm" height="21.0007cm" viewBox="0 0 116930 82680 ">
<title>SVG Picture created as PCB-B.SilkS.svg date 2018/09/05 19:24:52 </title>
  <desc>Picture generated by PCBNEW </desc>
<g style="fill:#000000; fill-opacity:1;stroke:#000000; stroke-opacity:1;
stroke-linecap:round; stroke-linejoin:round; "
 transform="translate(0 0) scale(1 1)">
</g>
<g style="fill:#000000; fill-opacity:0.0; 
stroke:#000000; stroke-width:-0.000393701; stroke-opacity:1; 
stroke-linecap:round; stroke-linejoin:round;">
</g>
<g style="fill:#000000; fill-opacity:0.0; 
stroke:#000000; stroke-width:98.4252; stroke-opacity:1; 
stroke-linecap:round; stroke-linejoin:round;">
<path d="M36024 52134
L35893 52528
L35762 52134
" />
<path d="M35406 52490
L35425 52509
L35481 52528
L35518 52528
L35574 52509
L35612 52471
L35631 52434
L35649 52359
L35649 52303
L35631 52228
L35612 52190
L35574 52153
L35518 52134
L35481 52134
L35425 52153
L35406 52171
" />
<path d="M35012 52490
L35031 52509
L35087 52528
L35125 52528
L35181 52509
L35218 52471
L35237 52434
L35256 52359
L35256 52303
L35237 52228
L35218 52190
L35181 52153
L35125 52134
L35087 52134
L35031 52153
L35012 52171
" />
<path d="M35799 54253
L35837 54234
L35893 54234
L35949 54253
L35987 54290
L36006 54328
L36024 54403
L36024 54459
L36006 54534
L35987 54571
L35949 54609
L35893 54628
L35856 54628
L35799 54609
L35781 54590
L35781 54459
L35856 54459
" />
<path d="M35612 54628
L35612 54234
L35387 54628
L35387 54234
" />
<path d="M35200 54628
L35200 54234
L35106 54234
L35050 54253
L35012 54290
L34993 54328
L34975 54403
L34975 54459
L34993 54534
L35012 54571
L35050 54609
L35106 54628
L35200 54628
" />
<path d="M35828 53421
L35959 53421
" />
<path d="M35959 53628
L35959 53234
L35771 53234
" />
<path d="M35434 53628
L35621 53628
L35621 53234
" />
<path d="M35340 53234
L35246 53628
L35171 53346
L35096 53628
L35003 53234
" />
<path d="M24078 52921
L24209 52921
" />
<path d="M24209 53128
L24209 52734
L24021 52734
" />
<path d="M23684 53128
L23871 53128
L23871 52734
" />
<path d="M23590 52734
L23496 53128
L23421 52846
L23346 53128
L23253 52734
" />
<path d="M24049 53753
L24087 53734
L24143 53734
L24199 53753
L24237 53790
L24256 53828
L24274 53903
L24274 53959
L24256 54034
L24237 54071
L24199 54109
L24143 54128
L24106 54128
L24049 54109
L24031 54090
L24031 53959
L24106 53959
" />
<path d="M23862 54128
L23862 53734
L23637 54128
L23637 53734
" />
<path d="M23450 54128
L23450 53734
L23356 53734
L23300 53753
L23262 53790
L23243 53828
L23225 53903
L23225 53959
L23243 54034
L23262 54071
L23300 54109
L23356 54128
L23450 54128
" />
<path d="M24274 51634
L24143 52028
L24012 51634
" />
<path d="M23656 51990
L23675 52009
L23731 52028
L23768 52028
L23824 52009
L23862 51971
L23881 51934
L23899 51859
L23899 51803
L23881 51728
L23862 51690
L23824 51653
L23768 51634
L23731 51634
L23675 51653
L23656 51671
" />
<path d="M23262 51990
L23281 52009
L23337 52028
L23375 52028
L23431 52009
L23468 51971
L23487 51934
L23506 51859
L23506 51803
L23487 51728
L23468 51690
L23431 51653
L23375 51634
L23337 51634
L23281 51653
L23262 51671
" />
<path d="M24128 48621
L24259 48621
" />
<path d="M24259 48828
L24259 48434
L24071 48434
" />
<path d="M23734 48828
L23921 48828
L23921 48434
" />
<path d="M23640 48434
L23546 48828
L23471 48546
L23396 48828
L23303 48434
" />
<path d="M24099 49453
L24137 49434
L24193 49434
L24249 49453
L24287 49490
L24306 49528
L24324 49603
L24324 49659
L24306 49734
L24287 49771
L24249 49809
L24193 49828
L24156 49828
L24099 49809
L24081 49790
L24081 49659
L24156 49659
" />
<path d="M23912 49828
L23912 49434
L23687 49828
L23687 49434
" />
<path d="M23500 49828
L23500 49434
L23406 49434
L23350 49453
L23312 49490
L23293 49528
L23275 49603
L23275 49659
L23293 49734
L23312 49771
L23350 49809
L23406 49828
L23500 49828
" />
<path d="M24324 47334
L24193 47728
L24062 47334
" />
<path d="M23706 47690
L23725 47709
L23781 47728
L23818 47728
L23874 47709
L23912 47671
L23931 47634
L23949 47559
L23949 47503
L23931 47428
L23912 47390
L23874 47353
L23818 47334
L23781 47334
L23725 47353
L23706 47371
" />
<path d="M23312 47690
L23331 47709
L23387 47728
L23425 47728
L23481 47709
L23518 47671
L23537 47634
L23556 47559
L23556 47503
L23537 47428
L23518 47390
L23481 47353
L23425 47334
L23387 47334
L23331 47353
L23312 47371
" />
<path d="M23999 44803
L24037 44784
L24093 44784
L24149 44803
L24187 44840
L24206 44878
L24224 44953
L24224 45009
L24206 45084
L24187 45121
L24149 45159
L24093 45178
L24056 45178
L23999 45159
L23981 45140
L23981 45009
L24056 45009
" />
<path d="M23812 45178
L23812 44784
L23587 45178
L23587 44784
" />
<path d="M23400 45178
L23400 44784
L23306 44784
L23250 44803
L23212 44840
L23193 44878
L23175 44953
L23175 45009
L23193 45084
L23212 45121
L23250 45159
L23306 45178
L23400 45178
" />
<path d="M24028 43971
L24159 43971
" />
<path d="M24159 44178
L24159 43784
L23971 43784
" />
<path d="M23634 44178
L23821 44178
L23821 43784
" />
<path d="M23540 43784
L23446 44178
L23371 43896
L23296 44178
L23203 43784
" />
<path d="M24224 42684
L24093 43078
L23962 42684
" />
<path d="M23606 43040
L23625 43059
L23681 43078
L23718 43078
L23774 43059
L23812 43021
L23831 42984
L23849 42909
L23849 42853
L23831 42778
L23812 42740
L23774 42703
L23718 42684
L23681 42684
L23625 42703
L23606 42721
" />
<path d="M23212 43040
L23231 43059
L23287 43078
L23325 43078
L23381 43059
L23418 43021
L23437 42984
L23456 42909
L23456 42853
L23437 42778
L23418 42740
L23381 42703
L23325 42684
L23287 42684
L23231 42703
L23212 42721
" />
</g>
<g style="fill:#000000; fill-opacity:0.0; 
stroke:#000000; stroke-width:59.0551; stroke-opacity:1; 
stroke-linecap:round; stroke-linejoin:round;">
<path d="M28322 42337
L30723 42337
" />
<path d="M28322 42376
L28322 42337
" />
<path d="M28322 45644
L28322 42376
" />
<path d="M31117 45644
L28322 45644
" />
<path d="M31117 45053
L31117 45644
" />
<path d="M31117 42337
L31117 45053
" />
<path d="M30723 42337
L31117 42337
" />
<path d="M30723 41274
L30723 42337
" />
<path d="M30329 41274
L30723 41274
" />
<path d="M30329 42100
L30329 41274
" />
<path d="M29936 42100
L30329 42100
" />
<path d="M29936 41274
L29936 42100
" />
<path d="M29542 41274
L29936 41274
" />
<path d="M29542 42100
L29542 41274
" />
<path d="M29188 42100
L29542 42100
" />
<path d="M29188 41274
L29188 42100
" />
<path d="M28361 41274
L29188 41274
" />
<path d="M27967 40880
L31511 40880
" />
<path d="M27967 45998
L27967 40880
" />
<path d="M31511 45998
L27967 45998
" />
<path d="M31511 44462
L31511 45998
" />
<path d="M31511 40919
L31511 44462
" />
<path d="M31353 54187
L31353 55407
" />
<path d="M28558 54187
L31353 54187
" />
<path d="M28558 55407
L28558 54187
" />
<path d="M31314 55407
L28558 55407
" />
</g>
<g style="fill:#000000; fill-opacity:0.0; 
stroke:#000000; stroke-width:47.2441; stroke-opacity:1; 
stroke-linecap:round; stroke-linejoin:round;">
<path d="M25577 55561
L24530 55561
" />
<path d="M25577 40514
L25054 40514
" />
<path d="M25577 41537
L25577 55561
" />
<path d="M24530 41537
L24530 55561
" />
<path d="M25577 41537
L24530 41537
" />
<path d="M25577 41037
L25577 40514
" />
<path d="M34869 55561
L33822 55561
" />
<path d="M34869 41537
L34869 55561
" />
<path d="M33822 41537
L33822 55561
" />
<path d="M34869 41537
L33822 41537
" />
<path d="M34869 41037
L34869 40514
" />
<path d="M34869 40514
L34345 40514
" />
<path d="M22923 42376
L22400 42376
" />
<path d="M22923 42900
L22923 42376
" />
<path d="M22923 43400
L21876 43400
" />
<path d="M21876 43400
L21876 45423
" />
<path d="M22923 43400
L22923 45423
" />
<path d="M22923 45423
L21876 45423
" />
<path d="M22923 47076
L22400 47076
" />
<path d="M22923 47600
L22923 47076
" />
<path d="M22923 48100
L21876 48100
" />
<path d="M21876 48100
L21876 50123
" />
<path d="M22923 48100
L22923 50123
" />
<path d="M22923 50123
L21876 50123
" />
<path d="M22923 54423
L21876 54423
" />
<path d="M22923 52400
L22923 54423
" />
<path d="M21876 52400
L21876 54423
" />
<path d="M22923 52400
L21876 52400
" />
<path d="M22923 51900
L22923 51376
" />
<path d="M22923 51376
L22400 51376
" />
<path d="M37123 54923
L36076 54923
" />
<path d="M37123 52900
L37123 54923
" />
<path d="M36076 52900
L36076 54923
" />
<path d="M37123 52900
L36076 52900
" />
<path d="M37123 52400
L37123 51876
" />
<path d="M37123 51876
L36600 51876
" />
</g>
<g style="fill:#000000; fill-opacity:0.0; 
stroke:#000000; stroke-width:59.0551; stroke-opacity:1; 
stroke-linecap:round; stroke-linejoin:round;">
<path d="M34527 39904
L34527 40223
L34508 40261
L34490 40279
L34452 40298
L34377 40298
L34340 40279
L34321 40261
L34302 40223
L34302 39904
" />
<path d="M33908 40298
L34133 40298
" />
<path d="M34021 40298
L34021 39904
L34058 39961
L34096 39998
L34133 40017
" />
<path d="M29632 42811
L29632 42942
" />
<path d="M29838 42998
L29838 42811
L29445 42811
L29445 42998
" />
<path d="M29819 43148
L29838 43205
L29838 43298
L29819 43336
L29801 43355
L29763 43373
L29726 43373
L29688 43355
L29670 43336
L29651 43298
L29632 43223
L29613 43186
L29595 43167
L29557 43148
L29520 43148
L29482 43167
L29463 43186
L29445 43223
L29445 43317
L29463 43373
" />
<path d="M29838 43542
L29445 43542
L29445 43692
L29463 43729
L29482 43748
L29520 43767
L29576 43767
L29613 43748
L29632 43729
L29651 43692
L29651 43542
" />
<path d="M29613 43992
L29595 43954
L29576 43936
L29538 43917
L29520 43917
L29482 43936
L29463 43954
L29445 43992
L29445 44067
L29463 44104
L29482 44123
L29520 44142
L29538 44142
L29576 44123
L29595 44104
L29613 44067
L29613 43992
L29632 43954
L29651 43936
L29688 43917
L29763 43917
L29801 43936
L29819 43954
L29838 43992
L29838 44067
L29819 44104
L29801 44123
L29763 44142
L29688 44142
L29651 44123
L29632 44104
L29613 44067
" />
<path d="M29482 44292
L29463 44311
L29445 44348
L29445 44442
L29463 44479
L29482 44498
L29520 44517
L29557 44517
L29613 44498
L29838 44273
L29838 44517
" />
<path d="M29445 44854
L29445 44779
L29463 44742
L29482 44723
L29538 44686
L29613 44667
L29763 44667
L29801 44686
L29819 44704
L29838 44742
L29838 44817
L29819 44854
L29801 44873
L29763 44892
L29670 44892
L29632 44873
L29613 44854
L29595 44817
L29595 44742
L29613 44704
L29632 44686
L29670 44667
" />
<path d="M29445 45229
L29445 45154
L29463 45117
L29482 45098
L29538 45061
L29613 45042
L29763 45042
L29801 45061
L29819 45079
L29838 45117
L29838 45192
L29819 45229
L29801 45248
L29763 45267
L29670 45267
L29632 45248
L29613 45229
L29595 45192
L29595 45117
L29613 45079
L29632 45061
L29670 45042
" />
<path d="M30511 54601
L30511 54920
L30493 54957
L30474 54976
L30436 54995
L30361 54995
L30324 54976
L30305 54957
L30286 54920
L30286 54601
" />
<path d="M30118 54976
L30061 54995
L29968 54995
L29930 54976
L29911 54957
L29893 54920
L29893 54882
L29911 54845
L29930 54826
L29968 54807
L30043 54789
L30080 54770
L30099 54751
L30118 54714
L30118 54676
L30099 54639
L30080 54620
L30043 54601
L29949 54601
L29893 54620
" />
<path d="M29593 54789
L29536 54807
L29518 54826
L29499 54864
L29499 54920
L29518 54957
L29536 54976
L29574 54995
L29724 54995
L29724 54601
L29593 54601
L29555 54620
L29536 54639
L29518 54676
L29518 54714
L29536 54751
L29555 54770
L29593 54789
L29724 54789
" />
<path d="M22531 41767
L22531 42048
L22549 42104
L22587 42142
L22643 42160
L22681 42160
" />
<path d="M22137 42160
L22362 42160
" />
<path d="M22250 42160
L22250 41767
L22287 41823
L22325 41860
L22362 41879
" />
<path d="M22531 46467
L22531 46748
L22549 46804
L22587 46842
L22643 46860
L22681 46860
" />
<path d="M22362 46504
L22343 46485
L22306 46467
L22212 46467
L22175 46485
L22156 46504
L22137 46542
L22137 46579
L22156 46635
L22381 46860
L22137 46860
" />
<path d="M22531 50767
L22531 51048
L22549 51104
L22587 51142
L22643 51160
L22681 51160
" />
<path d="M22381 50767
L22137 50767
L22268 50917
L22212 50917
L22175 50935
L22156 50954
L22137 50992
L22137 51085
L22156 51123
L22175 51142
L22212 51160
L22325 51160
L22362 51142
L22381 51123
" />
<path d="M36731 51267
L36731 51548
L36749 51604
L36787 51642
L36843 51660
L36881 51660
" />
<path d="M36375 51398
L36375 51660
" />
<path d="M36468 51248
L36562 51529
L36318 51529
" />
</g> 
</svg>
