<?xml version="1.0" standalone="no"?>
 <!DOCTYPE svg PUBLIC "-//W3C//DTD SVG 1.1//EN" 
 "http://www.w3.org/Graphics/SVG/1.1/DTD/svg11.dtd"> 
<svg xmlns="http://www.w3.org/2000/svg" version="1.1" 
    width="29.7002cm" height="21.0007cm" viewBox="0 0 116930 82680 ">
<title>SVG Picture created as PCB-Edge.Cuts.svg date 2018/09/05 19:24:52 </title>
  <desc>Picture generated by PCBNEW </desc>
<g style="fill:#000000; fill-opacity:1;stroke:#000000; stroke-opacity:1;
stroke-linecap:round; stroke-linejoin:round; "
 transform="translate(0 0) scale(1 1)">
</g>
<g style="fill:#000000; fill-opacity:0.0; 
stroke:#000000; stroke-width:-0.000393701; stroke-opacity:1; 
stroke-linecap:round; stroke-linejoin:round;">
</g>
<g style="fill:#000000; fill-opacity:0.0; 
stroke:#000000; stroke-width:73.3209; stroke-opacity:1; 
stroke-linecap:round; stroke-linejoin:round;">
<path d="M38107 38569
L38082 38401
" />
<path d="M38172 39007
L38107 38569
" />
<path d="M38272 39685
L38172 39007
" />
<path d="M38403 40572
L38272 39685
" />
<path d="M38561 41639
L38403 40572
" />
<path d="M38740 42855
L38561 41639
" />
<path d="M38938 44191
L38740 42855
" />
<path d="M39148 45616
L38938 44191
" />
<path d="M39368 47099
L39148 45616
" />
<path d="M39591 48612
L39368 47099
" />
<path d="M39815 50124
L39591 48612
" />
<path d="M40034 51604
L39815 50124
" />
<path d="M40244 53023
L40034 51604
" />
<path d="M40440 54351
L40244 53023
" />
<path d="M40618 55556
L40440 54351
" />
<path d="M40774 56610
L40618 55556
" />
<path d="M40903 57483
L40774 56610
" />
<path d="M41001 58143
L40903 57483
" />
<path d="M41063 58561
L41001 58143
" />
<path d="M41084 58708
L41063 58561
" />
<path d="M32586 60540
L41084 58708
" />
<path d="M16915 57604
L32586 60540
" />
<path d="M16937 57429
L16915 57604
" />
<path d="M17001 56934
L16937 57429
" />
<path d="M17101 56164
L17001 56934
" />
<path d="M17230 55164
L17101 56164
" />
<path d="M17383 53979
L17230 55164
" />
<path d="M17555 52652
L17383 53979
" />
<path d="M17739 51230
L17555 52652
" />
<path d="M17930 49757
L17739 51230
" />
<path d="M18122 48278
L17930 49757
" />
<path d="M18310 46837
L18122 48278
" />
<path d="M18486 45480
L18310 46837
" />
<path d="M18647 44251
L18486 45480
" />
<path d="M18785 43195
L18647 44251
" />
<path d="M18896 42357
L18785 43195
" />
<path d="M18974 41781
L18896 42357
" />
<path d="M19012 41513
L18974 41781
" />
<path d="M19197 40834
L19012 41513
" />
<path d="M19895 40520
L19197 40834
" />
<path d="M20281 40393
L19895 40520
" />
<path d="M21142 40124
L20281 40393
" />
<path d="M22367 39747
L21142 40124
" />
<path d="M22541 39084
L22367 39747
" />
<path d="M22776 38342
L22541 39084
" />
<path d="M23075 37552
L22776 38342
" />
<path d="M23442 36743
L23075 37552
" />
<path d="M23878 35945
L23442 36743
" />
<path d="M24389 35188
L23878 35945
" />
<path d="M24976 34501
L24389 35188
" />
<path d="M25642 33915
L24976 34501
" />
<path d="M26391 33460
L25642 33915
" />
<path d="M27226 33164
L26391 33460
" />
<path d="M28150 33059
L27226 33164
" />
<path d="M28875 33253
L28150 33059
" />
<path d="M29584 33876
L28875 33253
" />
<path d="M29717 33876
L29584 33876
" />
<path d="M30553 34023
L29717 33876
" />
<path d="M31245 34425
L30553 34023
" />
<path d="M31805 35025
L31245 34425
" />
<path d="M32248 35766
L31805 35025
" />
<path d="M32586 36591
L32248 35766
" />
<path d="M33403 36348
L32586 36591
" />
<path d="M33999 36414
L33403 36348
" />
<path d="M34501 36901
L33999 36414
" />
<path d="M35248 37642
L34501 36901
" />
<path d="M35632 38026
L35248 37642
" />
<path d="M36180 38066
L35632 38026
" />
<path d="M37218 38140
L36180 38066
" />
<path d="M37839 38180
L37218 38140
" />
<path d="M38082 38401
L37839 38180
" />
</g> 
</svg>
